<?xml version="1.0" encoding="UTF-8" standalone="no"?>
<!-- Generator: Adobe Illustrator 27.9.0, SVG Export Plug-In . SVG Version: 6.00 Build 0)  -->

<svg
   version="1.1"
   id="Layer_1"
   x="0px"
   y="0px"
   viewBox="0 0 71.33 71.33"
   xml:space="preserve"
   sodipodi:docname="favicon.svg"
   inkscape:version="1.3.2 (091e20ef0f, 2023-11-25, custom)"
   width="71.330002"
   height="71.330002"
   xmlns:inkscape="http://www.inkscape.org/namespaces/inkscape"
   xmlns:sodipodi="http://sodipodi.sourceforge.net/DTD/sodipodi-0.dtd"
   xmlns="http://www.w3.org/2000/svg"
   xmlns:svg="http://www.w3.org/2000/svg"><defs
   id="defs5" /><sodipodi:namedview
   id="namedview5"
   pagecolor="#ffffff"
   bordercolor="#666666"
   borderopacity="1.0"
   inkscape:showpageshadow="2"
   inkscape:pageopacity="0.0"
   inkscape:pagecheckerboard="0"
   inkscape:deskcolor="#d1d1d1"
   inkscape:zoom="12.280947"
   inkscape:cx="31.675082"
   inkscape:cy="35.665002"
   inkscape:window-width="1920"
   inkscape:window-height="1131"
   inkscape:window-x="0"
   inkscape:window-y="0"
   inkscape:window-maximized="1"
   inkscape:current-layer="Layer_1" />
<style
   type="text/css"
   id="style1">
	.st0{fill:#98BF40;}
	.st1{fill:#47C0B8;}
	.st2{fill:#F36D37;}
	.st3{fill:#EB4174;}
	.st4{fill:#F59B24;}
</style>
<g
   id="g5"
   transform="matrix(0,-1,-1,0,71.329562,54.525018)">
	<path
   class="st0"
   d="m 0.94,39.5 c 0.51,-0.13 0.97,0.03 1.44,0.19 2.4,0.82 4.61,2.03 6.8,3.29 3.74,2.14 7.32,4.53 10.82,7.06 2.49,1.79 4.89,3.69 6.95,5.95 2.5,2.74 3.72,6.02 3.44,9.76 -0.19,2.6 -1.99,4.41 -4.57,4.69 -1.06,0.11 -1.98,-0.26 -2.76,-0.97 C 22.32,68.79 21.81,67.95 21.37,67.06 20.46,65.23 19.73,63.32 19,61.42 17.34,57.14 14.78,53.4 11.95,49.84 9.43,46.66 6.64,43.74 3.3,41.38 2.54,40.84 1.73,40.37 0.94,39.87 c 0,-0.12 0,-0.25 0,-0.37 z"
   id="path1" />
	<path
   class="st1"
   d="m 0.94,31.6 c 0.21,-0.26 0.45,-0.48 0.74,-0.64 2.96,-1.61 5.35,-3.92 7.63,-6.36 3.33,-3.57 6.13,-7.54 8.45,-11.85 0.73,-1.36 1.28,-2.8 1.79,-4.25 0.56,-1.61 1.31,-3.13 2.07,-4.64 0.7,-1.39 1.7,-2.49 3.24,-2.99 0.37,0 0.74,0 1.11,0 0.43,0.13 0.86,0.24 1.28,0.39 1.94,0.73 2.96,2.2 3.14,4.19 0.35,3.86 -0.94,7.2 -3.53,10.03 -1.81,1.97 -3.86,3.69 -6.03,5.26 -4.9,3.56 -9.94,6.91 -15.37,9.63 -1.12,0.56 -2.27,1.06 -3.48,1.4 -0.34,0.1 -0.67,0.18 -1.02,0.07 C 0.94,31.77 0.94,31.69 0.94,31.6 Z"
   id="path2" />
	<path
   class="st2"
   d="m 2.29,33.53 c 0.14,-0.25 0.39,-0.27 0.6,-0.29 3.11,-0.27 5.9,-1.48 8.63,-2.89 2.71,-1.4 5.22,-3.09 7.3,-5.37 0.71,-0.78 1.53,-1.42 2.45,-1.93 0.89,-0.49 1.78,-0.63 2.65,0.02 0.93,0.7 1.45,1.6 1.22,2.82 -0.16,0.87 -0.6,1.61 -1.13,2.3 -1.64,2.17 -3.93,3.37 -6.41,4.25 -3.38,1.21 -6.9,1.57 -10.47,1.53 -1.27,-0.01 -2.54,-0.1 -3.81,-0.16 -0.36,0 -0.74,0.01 -1.03,-0.28 z"
   id="path3" />
	<path
   class="st3"
   d="m 6.95,37.35 c 4.51,0.03 8.45,0.51 12.19,2.16 1.99,0.88 3.72,2.08 5.02,3.84 0.37,0.5 0.67,1.03 0.86,1.63 0.34,1.02 0.19,1.94 -0.53,2.76 -0.91,1.05 -1.97,1.25 -3.19,0.58 -0.92,-0.51 -1.73,-1.16 -2.46,-1.92 -3.81,-3.97 -8.5,-6.45 -13.75,-7.93 -0.65,-0.18 -1.32,-0.3 -2,-0.34 -0.28,-0.02 -0.75,-0.01 -0.74,-0.27 0.01,-0.33 0.47,-0.3 0.76,-0.31 1.45,-0.09 2.88,-0.16 3.84,-0.2 z"
   id="path4" />
	<path
   class="st4"
   d="m 31.67,40.75 c -2.79,-0.01 -5.04,-2.26 -5.06,-5.06 -0.02,-2.82 2.3,-5.11 5.15,-5.09 2.78,0.02 5.03,2.29 5.02,5.09 0,2.81 -2.28,5.07 -5.11,5.06 z"
   id="path5" />
</g>
</svg>
