<?xml version="1.0" encoding="UTF-8" standalone="no"?>
<!-- Generator: Adobe Illustrator 27.9.0, SVG Export Plug-In . SVG Version: 6.00 Build 0)  -->

<svg
   version="1.1"
   id="Layer_1"
   x="0px"
   y="0px"
   viewBox="0 0 488.14 179.83"
   style="enable-background:new 0 0 488.14 179.83;"
   xml:space="preserve"
   sodipodi:docname="bottom_decoration.svg"
   inkscape:version="1.3.2 (091e20ef0f, 2023-11-25, custom)"
   xmlns:inkscape="http://www.inkscape.org/namespaces/inkscape"
   xmlns:sodipodi="http://sodipodi.sourceforge.net/DTD/sodipodi-0.dtd"
   xmlns="http://www.w3.org/2000/svg"
   xmlns:svg="http://www.w3.org/2000/svg"><defs
   id="defs97" /><sodipodi:namedview
   id="namedview97"
   pagecolor="#ffffff"
   bordercolor="#666666"
   borderopacity="1.0"
   inkscape:showpageshadow="2"
   inkscape:pageopacity="0.0"
   inkscape:pagecheckerboard="0"
   inkscape:deskcolor="#d1d1d1"
   inkscape:zoom="2.1325849"
   inkscape:cx="244.07001"
   inkscape:cy="90.031588"
   inkscape:window-width="1920"
   inkscape:window-height="1131"
   inkscape:window-x="0"
   inkscape:window-y="0"
   inkscape:window-maximized="1"
   inkscape:current-layer="g97" />
<style
   type="text/css"
   id="style1">
	.st0{fill:#F69C22;}
	.st1{fill:#53823E;}
	.st2{fill:#E32A2E;}
	.st3{fill:#08B4DF;}
	.st4{fill:#B84D9C;}
	.st5{fill:#EC3F73;}
	.st6{fill:#EE5343;}
	.st7{fill:#99BE40;}
	.st8{fill:#9D2A83;}
	.st9{fill:#47C0B7;}
	.st10{fill:#6E2765;}
	.st11{fill:#F26C36;}
	.st12{fill:#F178A0;}
	.st13{fill:#FFD631;}
	.st14{fill:#8B7F79;}
	.st15{fill:#FFFFFF;}
</style>
<g
   id="g97"
   transform="matrix(1,0,0,-1,0,179.85084)">
	<path
   class="st0"
   d="m 377.36,105.25 c 0.88,-0.5 1.56,-0.99 2.35,-1.26 2.46,-0.86 4.29,-0.1 5.35,2.26 0.44,0.98 0.71,2.01 0.81,3.06 0.49,5.18 -0.42,9.96 -3.72,14.2 -4.57,5.87 -9.68,11.25 -14.69,16.74 -1.13,1.24 -2.22,2.51 -3.54,3.56 -0.54,0.43 -1.15,0.71 -1.85,0.28 -0.74,-0.46 -1.08,-1.1 -0.94,-1.98 0.05,-0.27 0.1,-0.55 0.17,-0.82 0.31,-1.25 0.6,-2.5 0.94,-3.73 3.74,-13.4 5.1,-27.07 4.5,-40.94 -0.33,-7.59 -1.17,-15.13 -3.2,-22.5 -1.33,-4.82 -3.27,-9.37 -5.75,-13.7 -0.92,-1.62 -1.6,-3.32 -1.9,-5.16 -0.3,-1.86 0.26,-2.71 2.1,-3.17 1.99,-0.5 3.76,0.16 5.39,1.22 5.03,3.25 9.26,7.32 12.81,12.15 3.27,4.44 5.37,9.34 6.5,14.72 0.73,3.45 0.14,6.77 -0.63,10.1 -1.06,4.58 -2.69,8.97 -4.35,13.36 -0.16,0.44 -0.47,0.87 -0.35,1.61 z"
   id="path1" />
	<path
   class="st0"
   d="m 110.88,105.12 c 0.27,-0.69 -0.15,-1.16 -0.33,-1.65 -1.72,-4.54 -3.27,-9.13 -4.47,-13.84 -1.21,-4.72 -0.88,-9.28 0.68,-13.83 3.38,-9.81 9.76,-17.19 18.4,-22.71 1.58,-1.01 3.36,-1.51 5.27,-0.93 1.55,0.48 2.08,1.27 1.86,2.88 -0.23,1.67 -0.72,3.28 -1.58,4.74 -4.84,8.17 -7.31,17.08 -8.41,26.44 -1.17,9.96 -1.29,19.93 -0.35,29.92 0.76,8.09 2.47,15.98 4.58,23.8 0.19,0.7 0.36,1.41 0.5,2.12 0.18,0.86 -0.14,1.53 -0.87,2.01 -0.75,0.49 -1.39,0.15 -2,-0.29 -0.27,-0.2 -0.51,-0.44 -0.74,-0.68 -5.98,-6.19 -11.72,-12.58 -17.06,-19.34 -2.98,-3.78 -4.22,-8.05 -4.05,-12.8 0.05,-1.46 0.26,-2.9 0.78,-4.26 1.08,-2.87 3.21,-3.74 6.02,-2.49 0.6,0.25 1.16,0.59 1.77,0.91 z"
   id="path2" />
	<path
   class="st1"
   d="m 272.44,71.69 c 0.55,0.11 0.22,0.41 0.08,0.57 -2.53,2.88 -3.31,6.39 -3.62,10.06 -0.27,3.23 -0.41,6.46 -0.64,9.69 -0.18,2.52 -0.64,4.98 -1.84,7.25 -0.27,0.51 -0.21,0.87 0.01,1.38 1.26,2.83 1.28,5.61 -0.5,8.27 -0.28,0.42 -0.51,0.87 -0.81,1.27 -0.78,1.04 -0.97,1.93 -0.41,3.32 1.05,2.62 0.04,5.04 -1.7,7.12 -1.1,1.3 -2.53,2.2 -4.09,2.85 -0.69,0.29 -1.03,0.65 -1.19,1.41 -0.44,2.13 -1.01,4.23 -1.52,6.35 -0.08,0.32 -0.2,0.65 -0.04,0.98 0.35,0.09 0.49,-0.18 0.65,-0.38 5.34,-6.24 11.76,-11.08 19,-14.89 1.03,-0.54 2.05,-1.12 3.07,-1.68 1.33,-0.06 2.66,-0.01 3.99,-0.26 2.8,-0.53 5.5,-1.39 8.19,-2.3 1.92,-0.65 3.64,-1.65 5.24,-2.9 4.28,-3.33 8.1,-7.15 11.99,-10.9 1.32,-1.27 2.57,-2.62 4.11,-3.65 -0.52,1.16 -1.17,2.23 -1.95,3.24 -0.27,0.36 -0.8,0.67 -0.48,1.27 -0.43,-0.26 -0.48,0.05 -0.53,0.36 l 0.01,-0.03 c -0.26,-0.02 -0.4,0.17 -0.53,0.34 -4.01,4.81 -8.92,8.59 -14.1,12.02 -6.05,4.02 -12.41,7.52 -18.85,10.87 -3.83,1.99 -7.48,4.24 -10.63,7.23 -1.25,1.18 -2.43,2.42 -3.59,4.03 2.32,0.11 4.41,0.21 6.5,0.3 0.53,0.02 0.77,-0.38 1.06,-0.71 0.87,-1.03 1.85,-1.93 3.02,-2.63 1.72,-1.04 3.58,-1.21 5.5,-0.84 0.53,0.1 1.18,0.28 1.51,0.66 1.11,1.24 2.31,0.99 3.62,0.47 3.08,-1.22 5.9,-0.78 8.41,1.42 0.27,0.24 0.54,0.35 0.9,0.27 3.79,-0.79 7.43,0.15 11.08,0.97 2.29,0.51 4.56,1.05 6.91,1.28 2.49,0.24 4.9,0.09 7.2,-0.99 0.2,-0.09 0.4,-0.21 0.62,-0.08 0.04,0.02 0.07,0.09 0.07,0.14 0.01,0.05 -0.02,0.11 -0.03,0.16 -0.26,0.16 -0.31,0.41 -0.26,0.68 0,0 0.01,-0.02 0.01,-0.02 -0.5,0.33 -0.98,0.7 -1.51,0.98 -1.35,0.7 -2.67,1.47 -4.21,1.68 -0.28,0.01 -0.56,-0.02 -0.83,0.05 -2.75,0.66 -5.53,1.05 -8.37,1.01 -0.44,-0.01 -0.89,-0.03 -1.28,0.26 -2.4,0 -4.8,0.05 -7.19,-0.01 -1.83,-0.04 -3.68,-0.1 -5.48,-0.37 -2.25,-0.34 -4.48,-0.83 -6.67,-1.41 -3.13,-0.82 -6.31,-1.22 -9.52,-1.47 -1.62,-0.12 -3.22,0.13 -4.82,0.28 -2.23,-0.01 -4.47,0.01 -6.7,-0.05 -0.79,-0.02 -1.25,0.26 -1.6,0.92 -0.96,1.76 -1.96,3.51 -2.93,5.27 -0.98,1.76 -1.97,3.51 -3.44,4.93 -0.73,0.7 -1.52,1.51 -2.62,1.03 -1.12,-0.49 -0.99,-1.66 -0.98,-2.65 0.04,-2.35 0.87,-4.49 1.95,-6.52 0.56,-1.06 0.87,-2.15 1.13,-3.3 0.93,-4.08 1.9,-8.15 3.24,-12.12 0.44,-1.43 0.97,-2.85 1.29,-4.31 0.43,-2 1.2,-3.96 1.21,-6.04 0.01,-2.45 0.29,-4.89 0.4,-7.34 0.08,-1.66 0,-3.37 0.34,-4.99 1.49,-7.08 3.08,-14.16 6.06,-20.79 1.54,-3.42 3.06,-6.98 6.61,-8.99 0,0 0.05,0 0.05,0 0.14,-0.02 0.28,-0.02 0.43,-0.02 z"
   id="path3" />
	<path
   class="st1"
   d="m 170.65,134.78 c 3.62,1.61 7.32,1.13 11.02,0.38 2.52,-0.51 5.02,-1.08 7.53,-1.6 2.15,-0.44 4.32,-0.52 6.49,-0.11 0.5,0.09 0.81,0 1.2,-0.32 2.31,-1.94 4.9,-2.53 7.8,-1.5 0.63,0.23 1.27,0.41 1.92,0.59 0.5,0.14 0.92,0.1 1.39,-0.25 2.58,-1.93 5.54,-1.98 8.23,-0.21 0.94,0.62 1.8,1.34 2.47,2.24 0.54,0.72 1.15,0.87 2.01,0.83 1.78,-0.09 3.57,-0.03 5.24,-0.03 0.4,-0.7 -0.05,-0.92 -0.26,-1.19 -2.92,-3.61 -6.52,-6.41 -10.54,-8.68 -4.62,-2.61 -9.37,-4.95 -13.95,-7.64 -5.73,-3.37 -11.35,-6.91 -16.41,-11.27 -1.82,-1.57 -3.53,-3.26 -5.1,-5.08 -0.28,-0.32 -0.47,-0.77 -0.96,-0.87 0,0 0.01,0.03 0.01,0.03 0.03,-0.28 -0.09,-0.45 -0.36,-0.52 -0.8,-1.41 -1.88,-2.63 -2.55,-4.12 0.67,-0.03 0.95,0.52 1.34,0.89 2.67,2.54 5.3,5.11 7.98,7.63 2.35,2.22 4.68,4.51 7.38,6.28 5.06,3.3 10.72,4.83 16.75,4.99 1.12,0.62 2.23,1.26 3.36,1.85 7.14,3.76 13.44,8.58 18.7,14.72 0.14,0.17 0.21,0.4 0.31,0.59 0.58,-0.39 0.4,-0.74 0.34,-1 -0.52,-2.23 -1.1,-4.44 -1.59,-6.67 -0.14,-0.62 -0.4,-0.97 -0.98,-1.2 -1.3,-0.53 -2.48,-1.27 -3.54,-2.2 -1.69,-1.47 -2.53,-3.36 -2.8,-5.54 -0.09,-0.73 -0.11,-1.57 0.28,-2.13 1.08,-1.54 0.31,-2.7 -0.57,-3.89 -1.45,-1.96 -2.24,-4.1 -1.83,-6.58 0.06,-0.38 0.04,-0.84 0.23,-1.14 1.06,-1.62 0.42,-3.05 -0.2,-4.64 -1.13,-2.89 -1.22,-6 -1.35,-9.06 -0.11,-2.73 -0.24,-5.46 -0.64,-8.17 -0.44,-2.99 -1.44,-5.72 -3.42,-8.05 0.3,-0.22 0.62,-0.23 0.94,-0.07 0.88,0.47 1.73,0.97 2.35,1.79 1.25,1.63 2.27,3.4 3.27,5.18 0.46,1.27 0.9,2.55 1.78,3.61 l 0.03,0.06 c -0.05,0.37 -0.1,0.74 0.32,0.95 l 0.02,0.04 c -0.09,0.66 0.16,1.19 0.64,1.63 l 0.03,0.06 c -0.04,0.36 -0.14,0.74 0.31,0.94 l 0.03,0.07 c -0.02,1.22 0.27,2.35 0.93,3.39 0.03,0.56 0.11,1.1 0.26,1.64 0.73,2.79 1.47,5.58 2.08,8.4 0.23,1.07 0.47,2.17 0.44,3.3 -0.05,2.56 0.31,5.1 0.43,7.65 0.07,1.59 0.04,3.22 0.38,4.81 0.62,2.88 1.36,5.72 2.29,8.51 1.35,3.97 2.31,8.04 3.24,12.12 0.28,1.2 0.62,2.34 1.2,3.45 1.06,2.04 1.88,4.18 1.88,6.54 0,0.95 0.08,2.03 -0.96,2.49 -1.11,0.49 -1.9,-0.32 -2.62,-1.01 -1.35,-1.29 -2.3,-2.87 -3.19,-4.49 -1,-1.81 -2.05,-3.59 -2.99,-5.42 -0.48,-0.94 -1.14,-1.2 -2.13,-1.18 -2.12,0.05 -4.25,0.02 -6.37,0.02 -0.28,-0.01 -0.57,0.03 -0.83,-0.03 -2.72,-0.67 -5.44,-0.07 -8.13,0.13 -2.41,0.18 -4.79,0.92 -7.15,1.51 -3.9,0.97 -7.87,1.34 -11.87,1.39 -1.89,0.02 -3.79,0 -5.68,-0.01 -0.33,-0.25 -0.72,-0.25 -1.11,-0.26 -1.65,-0.03 -3.3,-0.11 -4.95,-0.32 -1.58,-0.2 -3.11,-0.79 -4.73,-0.74 -1.75,-0.38 -3.3,-1.2 -4.72,-2.24 -0.36,-0.27 -0.78,-0.7 -0.35,-1.27 z"
   id="path4" />
	<path
   class="st2"
   d="m 75.3,144.48 c -0.7,-0.84 -1.23,-1.34 -1.54,-1.99 -0.58,-1.23 -0.43,-2.24 0.53,-3.21 0.56,-0.56 1.24,-0.96 1.97,-1.25 3.51,-1.35 7.05,-1.61 10.58,-0.07 5.73,2.5 11.19,5.54 16.57,8.71 0.24,0.14 0.48,0.29 0.69,0.47 0.41,0.35 0.66,0.79 0.46,1.33 -0.19,0.5 -0.55,0.85 -1.12,0.87 -0.72,0.03 -1.45,0.03 -2.18,0.02 -4.41,-0.07 -8.82,-0.12 -13.21,0.34 -10.45,1.1 -20.51,3.61 -30.02,8.14 -3.8,1.81 -7.22,4.22 -10.29,7.11 -0.94,0.89 -1.96,1.66 -3.17,2.15 -1.45,0.58 -2.34,0.17 -2.84,-1.31 -0.32,-0.98 -0.35,-2.01 -0.01,-2.97 2.79,-7.95 7.57,-14.23 15.32,-17.95 1.63,-0.78 3.34,-1.19 5.16,-1.23 3.58,-0.1 7.14,0.06 10.68,0.59 0.67,0.11 1.34,0.15 2.42,0.25 z"
   id="path5" />
	<path
   class="st2"
   d="m 413.25,144.38 c 1.69,0.05 3.38,-0.33 5.08,-0.5 2.95,-0.3 5.91,-0.31 8.86,-0.14 1.41,0.08 2.72,0.58 3.99,1.18 6.05,2.85 10.33,7.49 13.36,13.36 0.72,1.39 1.33,2.82 1.82,4.31 0.39,1.21 0.45,2.42 -0.09,3.59 -0.53,1.17 -1.21,1.44 -2.43,1.02 -1.02,-0.35 -1.95,-0.88 -2.71,-1.62 -6.98,-6.8 -15.67,-10.28 -24.84,-12.83 -8.82,-2.45 -17.79,-3.67 -26.96,-3.41 -1.39,0.04 -2.79,0.02 -4.19,0.04 -0.7,0.01 -1.19,-0.3 -1.41,-0.95 -0.21,-0.65 0.21,-1.05 0.66,-1.4 0.18,-0.14 0.37,-0.25 0.56,-0.37 5.28,-3.13 10.66,-6.06 16.25,-8.6 3.28,-1.49 6.6,-1.39 9.95,-0.31 0.26,0.09 0.52,0.2 0.78,0.31 2.8,1.23 3.89,3.28 1.43,5.82 -0.09,0.11 -0.2,0.23 -0.11,0.5 z"
   id="path6" />
	<path
   class="st3"
   d="m 142.72,40.39 c 1.2,-3.59 3.01,-6.81 5.9,-9.33 3.34,-2.91 7.17,-3.69 11.41,-2.5 1.68,0.47 3.27,1.14 4.74,2.07 0.6,0.38 1.02,0.37 1.62,-0.08 6.17,-4.54 12.66,-4.77 19.36,-1.31 3.21,1.66 5.92,3.98 8.39,6.59 2.85,3 5.69,5.99 8.82,8.7 0.55,0.48 1.14,0.9 1.67,1.39 0.83,0.76 1.69,1.18 2.8,0.56 0.24,-0.14 0.63,-0.35 0.86,0.09 0.11,0.21 0.05,0.44 -0.05,0.64 -0.18,0.38 -0.59,0.47 -0.85,0.3 -1.35,-0.9 -2.7,-0.25 -4.03,-0.03 -11.37,1.88 -21.86,-0.53 -31.58,-6.54 -3.44,-2.12 -6.95,-4.04 -10.89,-5.03 -4.7,-1.19 -9.29,-1.05 -13.69,1.2 -1.63,0.87 -3.07,2.02 -4.48,3.28 z"
   id="path7" />
	<path
   class="st3"
   d="m 344.79,40.41 c -3.24,-3.17 -7.06,-4.91 -11.55,-5.17 -2.71,-0.16 -5.34,0.26 -7.92,1.06 -3.17,0.98 -6.11,2.45 -8.89,4.24 -5.67,3.63 -11.79,6.08 -18.46,7.1 -4.96,0.76 -9.91,0.68 -14.83,-0.33 -0.93,-0.19 -1.83,-0.49 -2.71,0.15 -0.16,0.12 -0.43,0.12 -0.65,0.11 -0.51,-0.02 -0.67,-0.38 -0.63,-0.8 0.04,-0.48 0.42,-0.51 0.73,-0.32 1.4,0.86 2.36,0 3.35,-0.81 3.56,-2.9 6.73,-6.21 9.87,-9.54 2.82,-2.99 5.91,-5.64 9.67,-7.36 6.37,-2.91 12.48,-2.44 18.19,1.71 0.7,0.51 1.18,0.57 1.9,0.11 1.32,-0.84 2.77,-1.44 4.27,-1.9 4.63,-1.41 8.73,-0.48 12.24,2.83 2.61,2.47 4.32,5.51 5.42,8.92 z"
   id="path8" />
	<path
   class="st3"
   d="m 40.58,130.94 c -0.61,-0.49 -1.02,-0.77 -1.37,-1.1 -1.28,-1.21 -1.36,-2.51 -0.23,-3.84 0.47,-0.56 1.03,-1.02 1.65,-1.42 2.85,-1.81 5.91,-2.57 9.27,-1.9 5.48,1.1 10.86,2.56 16.19,4.24 0.73,0.23 1.65,0.38 1.6,1.41 -0.05,1.01 -0.95,1.13 -1.71,1.29 -4.98,1.03 -9.92,2.2 -14.69,4.01 -8.62,3.27 -16.7,7.51 -23.83,13.42 -2.77,2.3 -5.13,4.97 -7.13,7.96 -0.72,1.08 -1.51,2.09 -2.58,2.84 -1.22,0.85 -2,0.7 -2.79,-0.53 -0.57,-0.88 -0.76,-1.87 -0.65,-2.89 0.76,-7.14 3.47,-13.33 8.79,-18.3 2.3,-2.15 5.06,-3.18 8.06,-3.82 3,-0.67 6.06,-0.94 9.42,-1.37 z"
   id="path9" />
	<path
   class="st3"
   d="m 447.84,130.9 c 1.68,0.44 3.42,0.42 5.11,0.68 2.15,0.33 4.28,0.76 6.39,1.31 2.17,0.57 4.01,1.68 5.64,3.16 5.33,4.86 8.07,10.99 8.85,18.08 0.14,1.26 0,2.46 -0.85,3.48 -0.74,0.89 -1.34,0.99 -2.33,0.38 -0.91,-0.57 -1.68,-1.32 -2.25,-2.22 -4.29,-6.74 -10.44,-11.4 -17.21,-15.36 -8.6,-5.04 -17.77,-8.59 -27.57,-10.48 -0.71,-0.14 -1.42,-0.3 -2.12,-0.49 -0.58,-0.16 -1.01,-0.5 -1.03,-1.16 -0.02,-0.6 0.38,-0.9 0.87,-1.1 0.36,-0.14 0.73,-0.27 1.1,-0.39 5.12,-1.59 10.29,-2.97 15.54,-4.07 3.42,-0.71 6.54,-0.05 9.45,1.79 0.14,0.09 0.28,0.18 0.42,0.28 2.56,1.83 3.02,3.98 0.15,5.79 -0.07,0.05 -0.09,0.18 -0.16,0.32 z"
   id="path10" />
	<path
   class="st4"
   d="m 86.28,100.06 c -0.7,-1.57 -1.48,-2.65 -2.12,-3.82 -1.33,-2.39 -2.4,-4.91 -3.22,-7.53 -0.86,-2.76 -0.56,-5.52 0.07,-8.26 1.41,-6.07 4.95,-10.77 9.5,-14.83 0.77,-0.68 1.66,-1.15 2.67,-1.31 1.52,-0.24 2.34,0.49 2.36,2 0.01,1.02 -0.24,2 -0.63,2.93 -3.11,7.41 -3.42,15.14 -2.85,23.02 0.72,9.83 3.03,19.26 6.93,28.3 0.26,0.61 0.46,1.25 0.68,1.89 0.17,0.49 -0.02,0.87 -0.39,1.18 -0.39,0.34 -0.84,0.32 -1.24,0.06 -0.6,-0.4 -1.18,-0.84 -1.75,-1.29 -4.2,-3.34 -8.24,-6.86 -12.09,-10.58 -2.66,-2.57 -3.57,-5.9 -3.21,-9.5 0.26,-2.63 1.71,-3.43 4.23,-2.65 0.26,0.09 0.51,0.19 1.06,0.39 z"
   id="path11" />
	<path
   class="st4"
   d="m 402.28,99.83 c 0.77,-0.17 1.25,-0.32 1.73,-0.38 1.58,-0.19 2.59,0.48 3.01,2 0.25,0.92 0.33,1.86 0.24,2.82 -0.33,3.29 -1.6,6.1 -4.04,8.4 -3.91,3.68 -7.97,7.17 -12.16,10.52 -0.09,0.07 -0.18,0.13 -0.27,0.2 -0.52,0.34 -1.04,0.76 -1.67,0.3 -0.68,-0.49 -0.55,-1.14 -0.29,-1.81 0.76,-1.92 1.54,-3.83 2.28,-5.76 2.67,-6.98 4.24,-14.2 4.97,-21.63 0.38,-3.9 0.48,-7.8 0.33,-11.71 -0.17,-4.39 -1.05,-8.63 -2.69,-12.71 -0.44,-1.09 -0.79,-2.21 -0.91,-3.38 -0.19,-1.85 0.83,-2.73 2.66,-2.3 0.88,0.21 1.67,0.61 2.36,1.22 5.16,4.54 8.66,10.03 9.73,16.92 0.34,2.17 0.31,4.31 -0.41,6.45 -0.99,2.98 -2.3,5.81 -3.78,8.57 -0.38,0.67 -0.82,1.31 -1.09,2.28 z"
   id="path12" />
	<path
   class="st1"
   d="m 33.94,119.07 c 3.1,-0.91 6.29,-0.9 9.44,-1.14 5.91,-0.45 11.83,-0.47 17.75,-0.05 9.19,0.65 18.16,2.27 26.64,6.03 5.23,2.32 9.99,5.45 14.63,8.77 6,4.3 11.67,9.01 17.25,13.83 1.06,0.92 1,1.37 -0.33,1.76 -2.14,0.62 -4.32,0.48 -6.47,0.04 -0.49,-0.1 -0.92,-0.6 -1.35,-0.95 -5.8,-4.74 -11.73,-9.31 -18.22,-13.08 -9.92,-5.75 -20.58,-9.65 -31.7,-12.36 -8.56,-2.09 -17.26,-3.02 -26.05,-3.07 -0.55,-0.01 -1.11,-0.06 -1.59,0.22 z"
   id="path13" />
	<path
   class="st1"
   d="m 454.19,119.13 c -0.35,-0.35 -0.8,-0.34 -1.23,-0.33 -18.68,0.12 -36.35,4.48 -53.04,12.81 -7.33,3.65 -13.91,8.46 -20.31,13.52 -1.09,0.86 -2.23,1.68 -3.3,2.57 -0.59,0.49 -1.22,0.71 -1.96,0.8 -1.62,0.19 -3.22,0.25 -4.83,-0.07 -0.5,-0.1 -0.98,-0.24 -1.39,-0.53 -0.39,-0.27 -0.5,-0.59 -0.09,-0.95 0.17,-0.15 0.33,-0.3 0.5,-0.44 6.77,-5.84 13.77,-11.37 21.16,-16.41 7.36,-5.03 15.32,-8.68 24.09,-10.44 8.97,-1.8 18.03,-2.34 27.16,-1.94 3.46,0.15 6.91,0.38 10.35,0.8 0.97,0.11 1.95,0.19 2.89,0.61 z"
   id="path14" />
	<path
   class="st5"
   d="m 248.61,60.74 c 0.62,-0.93 1.33,-1.8 1.7,-2.88 1.08,-0.32 1.01,-1.61 1.83,-2.15 0,-0.18 0,-0.36 0,-0.54 l -0.01,0.02 c 0.76,-0.11 1,-0.81 1.41,-1.28 6.69,-7.85 14.92,-13.54 24.45,-17.39 0.45,-0.18 0.9,-0.47 1.43,-0.4 0.35,0.31 0.09,0.61 -0.02,0.91 -5.19,13.72 -13.92,24.43 -26.84,31.59 -2.55,1.41 -5.28,2.39 -7.92,3.56 -0.3,0.13 -0.65,0.14 -0.93,-0.12 0.24,-0.7 0.47,-1.4 0.71,-2.1 0.08,-0.26 0.14,-0.53 0.23,-0.79 1.04,-2.95 2.49,-5.7 3.96,-8.43 z"
   id="path15" />
	<path
   class="st6"
   d="m 244.41,69.95 c -0.23,0.7 -0.47,1.4 -0.71,2.1 -17.44,-6.29 -28.59,-18.74 -35.1,-35.73 0.56,-0.45 0.96,-0.1 1.34,0.05 9.89,3.89 18.36,9.78 25.2,17.96 0.37,0.44 0.55,1.12 1.28,1.19 0,0 -0.03,-0.02 -0.03,-0.02 -0.05,0.28 -0.02,0.48 0.35,0.36 l -0.02,-0.03 c -0.2,0.42 0.11,0.63 0.35,0.88 0.44,0.54 0.62,1.26 1.16,1.73 0.44,0.7 0.88,1.4 1.31,2.09 1.68,2.8 3.1,5.72 4.21,8.79 0.12,0.35 0.27,0.61 0.66,0.63 z"
   id="path16" />
	<path
   class="st7"
   d="m 244.41,69.95 c -0.39,-0.02 -0.54,-0.28 -0.67,-0.62 -1.11,-3.07 -2.53,-6 -4.21,-8.79 0.01,-1.8 -0.56,-3.51 -0.82,-5.27 -0.6,-4.04 -0.68,-8.09 -0.6,-12.16 0.27,-2.11 0.55,-4.22 0.82,-6.33 1.15,-5.51 2.74,-10.88 5.28,-16.01 0.68,0.5 0.83,1.24 1.1,1.88 2.7,6.41 4.35,13.07 4.84,20.01 0.04,0.5 0.04,1 0.25,1.47 0.23,2.53 -0.25,5.03 -0.25,7.55 -0.33,3.05 -0.84,6.07 -1.55,9.06 -1.47,2.73 -2.92,5.48 -3.97,8.42 -0.08,0.26 -0.14,0.53 -0.22,0.79 z"
   id="path17" />
	<path
   class="st8"
   d="m 171.66,101.09 c -0.56,0.31 -0.53,0.93 -0.71,1.43 -2.07,5.62 -4.68,10.97 -7.78,16.09 -2.92,4.83 -7.32,7.55 -12.57,9.08 -2.8,0.82 -3.63,0.08 -3.41,-2.79 0.03,-0.39 0.08,-0.78 0.17,-1.16 0.89,-3.89 2.43,-7.53 4.27,-11.05 0.83,-1.6 2.12,-2.87 3.37,-4.15 2.89,-2.96 6.05,-5.63 9.16,-8.34 0.34,-0.3 0.94,-0.44 0.85,-1.09 0,0 -0.03,0.01 -0.03,0.01 0.65,0.2 0.84,-0.38 1.18,-0.7 1.73,-1.45 3.46,-2.9 5.18,-4.35 0.44,0.24 0.87,0.48 1.31,0.72 0.25,1.87 -0.65,3.53 -0.94,5.3 -0.06,0.34 -0.37,0.67 -0.06,1.03 z"
   id="path18" />
	<path
   class="st8"
   d="m 323.2,99.12 c -0.13,0.66 0.49,0.79 0.82,1.08 2.95,2.57 5.9,5.13 8.7,7.86 2.36,2.29 4.21,4.89 5.44,7.95 1.03,2.54 2.07,5.06 2.66,7.74 0.17,0.77 0.23,1.55 0.19,2.33 -0.07,1.44 -0.57,1.89 -1.97,1.87 -0.85,-0.01 -1.66,-0.24 -2.45,-0.52 -5.04,-1.79 -9.22,-4.62 -11.96,-9.4 -3.29,-5.73 -6.23,-11.6 -8.16,-17.93 -0.39,-1.73 -1,-3.42 -1.06,-5.21 0.47,-0.27 0.94,-0.54 1.41,-0.81 1.71,1.48 3.36,3.04 5.21,4.35 0.34,0.33 0.51,0.94 1.18,0.7 z"
   id="path19" />
	<path
   class="st9"
   d="m 322.04,98.42 c -1.85,-1.31 -3.5,-2.87 -5.21,-4.35 0.26,-0.61 0.52,-1.22 0.78,-1.83 2.23,0.37 4.47,0.53 6.74,0.42 1.04,-0.05 2.06,-0.39 3.12,-0.22 0.72,0.72 1.65,0.56 2.52,0.58 3.74,0.09 7.46,0.33 11.14,0.98 1.5,0.26 2.9,0.76 4.26,1.43 2.8,1.39 5.55,2.85 8.06,4.73 0.76,0.57 1.48,1.2 2.08,1.93 1.14,1.37 1.02,2.2 -0.46,3.13 -0.52,0.33 -1.07,0.62 -1.64,0.82 -4.92,1.8 -9.84,2.14 -14.85,0.18 -4.84,-1.89 -9.54,-4.04 -14.04,-6.63 -0.41,-0.24 -0.78,-0.68 -1.35,-0.48 0,0 0.03,0.01 0.03,0.01 -0.17,-0.61 -0.59,-0.8 -1.18,-0.7 z"
   id="path20" />
	<path
   class="st9"
   d="m 171.34,94.07 c -1.73,1.45 -3.46,2.9 -5.18,4.35 -0.6,-0.11 -1.03,0.07 -1.18,0.7 0,0 0.03,-0.01 0.03,-0.01 -0.82,-0.16 -1.33,0.46 -1.93,0.8 -4.78,2.68 -9.7,5.05 -14.9,6.77 -4.91,1.63 -9.7,0.98 -14.33,-1.07 -2.45,-1.09 -2.56,-2.18 -0.63,-4.13 1.55,-1.57 3.41,-2.69 5.29,-3.79 3.58,-2.1 7.27,-3.9 11.52,-4.18 2.78,-0.18 5.56,-0.49 8.35,-0.5 0.81,-0.01 1.69,0.13 2.35,-0.57 0.49,0 1,-0.06 1.48,0.02 2.81,0.44 5.59,0.21 8.37,-0.23 0.1,0.68 0.52,1.22 0.76,1.84 z"
   id="path21" />
	<path
   class="st10"
   d="m 327.47,92.44 c -1.06,-0.17 -2.08,0.17 -3.12,0.22 -2.26,0.11 -4.51,-0.06 -6.74,-0.42 -0.16,-0.51 -0.32,-1.01 -0.47,-1.52 0.56,-0.35 1.13,-0.68 1.68,-1.04 1.59,-1.04 3.16,-2.09 4.74,-3.13 0.4,-0.21 0.89,-0.32 1.02,-0.85 l -0.01,0.01 c 0.52,0.05 0.86,-0.16 1.01,-0.67 l 0.04,0.03 c 0.62,0.03 1,-0.44 1.46,-0.72 2.47,-1.52 4.94,-3.04 7.49,-4.43 2.62,-1.44 5.34,-2.5 8.34,-2.81 2.83,-0.3 5.66,-0.59 8.52,-0.45 1.01,0.05 2.01,0.18 2.94,0.57 1.17,0.49 1.45,1.08 1.04,2.24 -0.2,0.57 -0.47,1.14 -0.81,1.64 -2.87,4.15 -6.42,7.36 -11.48,8.67 -5.15,1.32 -10.35,2.27 -15.65,2.66 z"
   id="path22" />
	<path
   class="st10"
   d="m 170.57,92.24 c -2.78,0.44 -5.57,0.67 -8.37,0.23 -0.48,-0.08 -0.99,-0.02 -1.48,-0.02 -5.74,-0.43 -11.39,-1.36 -16.9,-3.06 -4.78,-1.48 -8.04,-4.83 -10.65,-8.93 -0.15,-0.23 -0.26,-0.5 -0.35,-0.76 -0.51,-1.36 -0.19,-2.08 1.21,-2.57 0.84,-0.29 1.72,-0.43 2.62,-0.47 3.64,-0.17 7.24,0.22 10.82,0.82 1.67,0.28 3.19,0.98 4.69,1.72 3.1,1.54 6.02,3.38 8.96,5.19 0.46,0.28 0.83,0.77 1.46,0.69 0,0 0.01,-0.04 0.01,-0.04 -0.09,0.33 0.13,0.33 0.35,0.34 l -0.01,-0.01 c 0.12,0.33 0.33,0.47 0.68,0.35 l -0.02,-0.01 c -0.06,0.31 0.14,0.33 0.36,0.34 l -0.02,-0.02 c 0.2,0.33 0.43,0.59 0.86,0.36 -0.08,0.52 0.36,0.6 0.67,0.8 1.85,1.18 3.71,2.36 5.56,3.54 -0.14,0.5 -0.3,1.01 -0.45,1.51 z"
   id="path23" />
	<path
   class="st6"
   d="m 209.28,115.25 c -6.03,-0.16 -11.69,-1.69 -16.75,-4.99 -2.71,-1.77 -5.03,-4.06 -7.38,-6.28 -2.68,-2.52 -5.31,-5.09 -7.98,-7.63 -0.39,-0.37 -0.67,-0.93 -1.34,-0.89 -0.16,-0.27 -0.31,-0.54 -0.47,-0.82 0.13,-0.26 0.26,-0.52 0.39,-0.78 0.75,-0.79 1.74,-0.26 2.6,-0.47 3.62,0.35 7.1,1.35 10.54,2.45 4.19,1.34 8.26,2.98 12.21,4.94 4.66,2.32 7.44,6.23 9.39,10.86 0.09,0.2 0.13,0.43 0.19,0.64 0.49,1.8 0.32,2.16 -1.4,2.97 z"
   id="path24" />
	<path
   class="st6"
   d="m 312.41,95.23 c -1.54,1.03 -2.79,2.38 -4.11,3.65 -3.89,3.75 -7.72,7.57 -11.99,10.9 -1.6,1.24 -3.31,2.25 -5.24,2.9 -2.69,0.91 -5.39,1.77 -8.19,2.3 -1.33,0.25 -2.66,0.2 -3.99,0.26 -1.71,-0.81 -1.98,-1.22 -1.39,-2.96 1.49,-4.33 3.85,-8.16 7.86,-10.47 7.39,-4.25 15.4,-6.93 23.81,-8.38 0.22,-0.04 0.44,-0.03 0.67,-0.04 0.88,0.21 1.98,-0.4 2.63,0.7 0.12,0.18 0.24,0.37 0.36,0.55 -0.14,0.2 -0.28,0.4 -0.42,0.59 z"
   id="path25" />
	<path
   class="st4"
   d="m 309.92,92.73 c -6.85,-0.93 -13.72,-1.68 -20.45,-3.35 -1.97,-0.49 -3.8,-1.26 -5.49,-2.39 -2.7,-1.79 -5.38,-3.6 -7.7,-5.89 -0.68,-0.67 -1.3,-1.39 -1.69,-2.27 -0.45,-0.99 -0.3,-1.55 0.6,-2.14 0.8,-0.53 1.71,-0.81 2.64,-1.03 4.94,-1.16 9.74,-1.01 14.29,1.51 1.17,0.65 2.37,1.24 3.57,1.85 0.33,0.17 0.64,0.49 1.07,0.31 0,0 -0.02,-0.02 -0.02,-0.02 0.07,0.43 0.32,0.51 0.69,0.36 l -0.03,-0.02 c -0.09,0.31 0.17,0.39 0.35,0.51 1.31,0.51 2.3,1.51 3.45,2.26 3.63,2.34 7.09,4.9 10.15,7.97 0.15,0.11 0.31,0.22 0.46,0.33 l 0.02,0.02 c 0,0.11 -0.01,0.22 0.01,0.32 0.43,1.61 0.29,1.79 -1.29,1.68 -0.2,-0.03 -0.41,-0.01 -0.63,-0.01 z"
   id="path26" />
	<path
   class="st4"
   d="m 191.44,79.32 c 0.57,0.17 0.94,-0.27 1.37,-0.48 1.6,-0.78 3.17,-1.64 4.79,-2.38 4.67,-2.14 9.43,-1.8 14.2,-0.35 0.21,0.06 0.41,0.17 0.61,0.26 1.58,0.78 1.8,1.55 0.85,3.06 -0.69,1.1 -1.61,2 -2.6,2.82 -1.07,0.89 -2.19,1.73 -3.29,2.59 -3.58,2.79 -7.58,4.56 -12.09,5.35 -5.65,0.99 -11.33,1.79 -17.01,2.54 -0.32,0 -0.65,0 -0.97,0.02 -1.05,0.07 -1.33,-0.23 -1.15,-1.25 0.05,-0.26 0.13,-0.51 0.2,-0.77 l 0.02,-0.02 c 0.24,-0.05 0.32,-0.21 0.33,-0.44 1.57,-1.31 3.14,-2.63 4.72,-3.92 2.53,-2.07 5.38,-3.7 7.99,-5.66 0.52,-0.27 1.25,-0.27 1.38,-1.04 l -0.02,0.02 c 0.37,0.14 0.62,0.07 0.69,-0.36 z"
   id="path27" />
	<path
   class="st11"
   d="m 311.36,90.38 c -3.06,-3.07 -6.52,-5.63 -10.15,-7.97 -1.16,-0.74 -2.14,-1.75 -3.45,-2.26 0.02,-0.26 -0.06,-0.46 -0.35,-0.51 0,0 0.03,0.02 0.03,0.02 -0.14,-0.29 -0.28,-0.58 -0.69,-0.36 0,0 0.02,0.02 0.02,0.02 0.09,-0.79 -0.65,-0.96 -1.06,-1.33 -4.45,-4.15 -6.64,-9.54 -8.35,-15.19 -0.13,-0.42 -0.18,-0.88 -0.2,-1.32 -0.05,-1.45 0.55,-2.07 1.99,-2.04 0.83,0.02 1.66,0.15 2.47,0.38 4.75,1.37 8.79,3.72 11.6,7.96 1.79,2.7 3.56,5.4 5.1,8.24 2.43,4.5 4.61,9.1 5.86,14.09 -0.3,0.53 -0.85,0.7 -1.36,0.94 -0.33,-0.09 -0.57,-0.43 -0.96,-0.33 0,0 -0.02,-0.02 -0.02,-0.02 -0.07,-0.26 -0.25,-0.33 -0.48,-0.32 z"
   id="path28" />
	<path
   class="st11"
   d="m 189.41,80.69 c -2.62,1.95 -5.46,3.58 -7.99,5.66 -1.58,1.3 -3.15,2.62 -4.72,3.92 -0.17,0.1 -0.33,0.21 -0.33,0.44 l -0.02,0.02 c -0.4,-0.11 -0.64,0.24 -0.97,0.32 -0.5,-0.23 -1.05,-0.4 -1.34,-0.93 0.53,-1.51 0.82,-3.09 1.38,-4.61 1.12,-3.03 2.73,-5.81 3.97,-8.78 0.59,-0.4 0.85,-1.01 1.03,-1.66 1.72,-3.13 3.59,-6.16 5.83,-8.94 3,-3.74 7.1,-5.6 11.67,-6.59 0.43,-0.09 0.89,-0.12 1.33,-0.11 1.21,0.04 1.71,0.51 1.75,1.75 0.03,0.78 -0.11,1.55 -0.33,2.3 -1.16,3.99 -2.99,7.67 -5.18,11.17 -0.86,1.38 -2.1,2.44 -3.28,3.55 -0.32,0.3 -0.94,0.45 -0.77,1.11 0,0 0.02,-0.02 0.02,-0.02 -0.43,-0.26 -0.55,0.06 -0.69,0.36 l 0.02,-0.02 c -0.62,0.15 -0.97,0.64 -1.38,1.06 z"
   id="path29" />
	<path
   class="st5"
   d="m 314.16,90.12 c -1.25,-4.99 -3.43,-9.6 -5.86,-14.09 0.1,-0.62 -0.09,-1.21 -0.24,-1.8 -0.1,-0.38 -0.21,-0.75 -0.35,-1.11 -2.53,-6.42 -1.87,-12.89 -0.23,-19.36 0.27,-1.08 0.63,-2.14 1.31,-3.05 0.74,-0.99 1.39,-1.11 2.44,-0.47 0.38,0.23 0.74,0.51 1.04,0.83 3.74,3.84 6.17,8.27 6.26,13.78 0.06,3.96 -0.03,7.91 -0.4,11.85 -0.04,0.43 -0.21,0.88 0.07,1.3 0,0 0.01,-0.03 0.01,-0.03 -0.51,0.29 -0.24,0.8 -0.33,1.2 -0.59,3.6 -1.29,7.18 -2.46,10.64 -0.4,0.22 -0.82,0.29 -1.26,0.31 z"
   id="path30" />
	<path
   class="st5"
   d="m 179.38,76.73 c -1.23,2.96 -2.85,5.75 -3.97,8.78 -0.56,1.51 -0.84,3.09 -1.38,4.61 -0.44,-0.02 -0.86,-0.09 -1.26,-0.3 -1.18,-3.45 -1.88,-7.01 -2.46,-10.59 -0.3,-3.61 -0.75,-7.21 -0.68,-10.85 0.02,-1.06 0.03,-2.12 0.02,-3.18 -0.08,-5.47 2.24,-9.93 5.9,-13.78 2.29,-2.41 3.6,-2.1 4.73,1.08 1.07,3.02 1.38,6.19 1.78,9.34 0.6,4.65 -0.81,8.93 -2.28,13.22 -0.27,0.52 -0.53,1.05 -0.4,1.67 z"
   id="path31" />
	<path
   class="st12"
   d="m 175.36,94.65 c 0.16,0.27 0.31,0.54 0.47,0.82 0.67,1.49 1.76,2.71 2.55,4.12 0,0.26 0.05,0.48 0.36,0.52 0,0 -0.01,-0.03 -0.01,-0.03 -0.21,0.63 0.24,1.05 0.49,1.53 1.43,2.71 2.71,5.49 3.73,8.39 0.52,1.48 0.77,3 0.79,4.59 0.06,3.86 -0.23,7.68 -1.02,11.45 -0.26,1.26 -0.62,2.49 -1.24,3.62 -0.94,1.71 -2.15,1.96 -3.68,0.77 -0.94,-0.74 -1.54,-1.76 -2.08,-2.79 -1.87,-3.53 -2.93,-7.35 -3.65,-11.24 -0.7,-3.79 -0.89,-7.62 -0.48,-11.47 0.13,-1.26 0.27,-2.55 0.07,-3.83 0,0 -0.01,0.03 -0.01,0.03 0.48,-0.32 0.42,-0.67 0.06,-1.03 0.3,-1.77 1.19,-3.43 0.94,-5.3 0.93,0.44 1.82,0.17 2.71,-0.15 z"
   id="path32" />
	<path
   class="st12"
   d="m 312.41,95.23 c 0.14,-0.2 0.27,-0.39 0.41,-0.59 0.85,0.29 1.69,0.6 2.59,0.24 0.06,1.8 0.67,3.48 1.05,5.21 -0.41,0.36 -0.31,0.83 -0.22,1.25 0.44,1.92 0.4,3.89 0.47,5.83 0.17,4.53 -0.28,9.01 -1.59,13.39 -0.75,2.51 -1.54,5.01 -2.81,7.32 -0.57,1.03 -1.17,2.04 -2.18,2.71 -1.43,0.94 -2.48,0.72 -3.35,-0.75 -0.81,-1.36 -1.19,-2.89 -1.49,-4.42 -0.8,-4.07 -1.03,-8.19 -0.78,-12.32 0.12,-2.02 0.91,-3.91 1.71,-5.74 0.85,-1.94 1.82,-3.83 2.71,-5.75 0.23,-0.49 0.67,-0.92 0.52,-1.54 0,0 -0.01,0.03 -0.01,0.03 0.27,0.02 0.39,-0.19 0.53,-0.36 -0.32,-0.6 0.2,-0.91 0.48,-1.27 0.79,-1 1.45,-2.07 1.96,-3.24 z"
   id="path33" />
	<path
   class="st13"
   d="m 170.31,79.22 c 0.58,3.59 1.28,7.15 2.46,10.59 -0.61,0.24 -1.02,0.87 -1.74,0.92 -1.85,-1.18 -3.71,-2.36 -5.56,-3.54 -0.31,-0.19 -0.75,-0.27 -0.67,-0.8 -0.24,-0.23 -0.45,-0.54 -0.86,-0.36 0,0 0.02,0.02 0.02,0.02 0.08,-0.32 -0.06,-0.42 -0.36,-0.34 0,0 0.02,0.01 0.02,0.01 -0.04,-0.48 -0.21,-0.71 -0.68,-0.35 0,0 0.01,0.01 0.01,0.01 0.01,-0.12 0.17,-0.21 0.01,-0.37 -0.16,-0.16 -0.25,0.01 -0.36,0.03 0,0 -0.01,0.04 -0.01,0.04 0.37,-0.23 0.16,-0.49 -0.01,-0.67 -0.58,-0.6 -1.16,-1.21 -1.79,-1.76 -3.12,-2.79 -5.16,-6.24 -6.38,-10.23 -0.81,-2.67 -1.59,-5.34 -2.02,-8.1 -0.17,-1.11 -0.23,-2.23 -0.11,-3.34 0.22,-2.11 1.4,-2.82 3.37,-2.1 1.39,0.51 2.51,1.44 3.54,2.47 4.48,4.48 7.94,9.62 10.13,15.59 0.28,0.78 0.48,1.6 0.99,2.28 z"
   id="path34" />
	<path
   class="st13"
   d="m 315.4,89.81 c 1.17,-3.47 1.87,-7.04 2.46,-10.64 0.34,-0.34 0.46,-0.74 0.33,-1.2 0,0 -0.01,0.03 -0.01,0.03 0.6,-0.27 0.59,-0.89 0.78,-1.39 2.19,-5.78 5.55,-10.78 9.9,-15.15 0.91,-0.91 1.89,-1.74 3.05,-2.32 2.44,-1.21 3.89,-0.36 4.03,2.34 0.08,1.41 -0.13,2.79 -0.39,4.15 -0.72,3.73 -1.87,7.34 -3.39,10.83 -0.88,2.04 -2.35,3.65 -3.85,5.23 -0.8,0.85 -1.67,1.64 -2.49,2.48 -0.23,0.24 -0.72,0.48 -0.21,0.91 0,0 -0.04,-0.03 -0.04,-0.03 -0.73,-0.37 -0.95,0.04 -1.01,0.67 0,0 0.01,-0.01 0.01,-0.01 -0.68,-0.13 -0.93,0.27 -1.02,0.85 -1.58,1.04 -3.16,2.09 -4.74,3.13 -0.55,0.36 -1.12,0.69 -1.68,1.04 -0.71,-0.05 -1.1,-0.69 -1.73,-0.92 z"
   id="path35" />
	<path
   class="st7"
   d="m 271.95,71.68 c -3.55,2.01 -5.07,5.57 -6.61,8.99 -2.99,6.63 -4.57,13.71 -6.06,20.79 -0.34,1.62 -0.26,3.33 -0.34,4.99 -0.12,2.45 -0.39,4.88 -0.4,7.34 -0.01,2.08 -0.77,4.03 -1.21,6.04 -0.32,1.46 -0.85,2.87 -1.29,4.31 -1.06,0.27 -1.96,-0.05 -2.83,-0.66 -2.55,-1.78 -3.92,-4.22 -4.11,-7.31 -0.05,-0.78 0.01,-1.56 0,-2.34 -0.02,-1.34 0.34,-2.57 1.24,-3.55 1.2,-1.31 1.45,-2.83 1.27,-4.51 -0.19,-1.79 -0.05,-3.54 0.5,-5.29 0.74,-2.39 2.06,-4.35 4.06,-5.79 1.36,-0.98 1.92,-2.26 2.01,-3.84 0.15,-2.66 0.77,-5.15 2.17,-7.47 1.12,-1.86 1.94,-3.9 3.11,-5.74 1.14,-1.81 2.44,-3.49 4.29,-4.63 1.26,-0.82 2.59,-1.55 4.2,-1.33 z"
   id="path36" />
	<path
   class="st7"
   d="m 222.16,79.05 c -1,-1.78 -2.02,-3.55 -3.27,-5.18 -0.63,-0.82 -1.47,-1.32 -2.35,-1.79 -0.31,-0.17 -0.64,-0.15 -0.94,0.07 -0.3,-0.22 -0.34,-0.5 0.05,-0.58 0.72,-0.14 1.44,0.03 2.14,0.22 2.31,0.62 4.07,2.03 5.54,3.84 1.02,1.26 1.85,2.65 2.61,4.08 0.5,0.94 0.91,1.92 1.46,2.82 1.63,2.68 2.54,5.55 2.66,8.69 0.05,1.4 0.71,2.49 1.87,3.38 3.62,2.77 5.09,6.53 4.63,11.03 -0.18,1.76 0.08,3.3 1.3,4.66 0.85,0.94 1.19,2.12 1.23,3.39 0.06,1.85 0.07,3.67 -0.63,5.44 -0.79,2 -2.13,3.5 -3.93,4.64 -0.76,0.48 -1.55,0.58 -2.4,0.37 -0.93,-2.79 -1.67,-5.64 -2.29,-8.51 -0.34,-1.59 -0.31,-3.22 -0.38,-4.81 -0.11,-2.55 -0.48,-5.1 -0.43,-7.65 0.02,-1.13 -0.21,-2.23 -0.44,-3.3 -0.61,-2.82 -1.35,-5.61 -2.08,-8.4 -0.14,-0.55 -0.22,-1.09 -0.26,-1.64 0.14,-1.25 -0.36,-2.33 -0.93,-3.39 0,0 -0.03,-0.07 -0.03,-0.07 0.01,-0.35 0.08,-0.72 -0.31,-0.94 0,0 -0.03,-0.06 -0.03,-0.06 0.04,-0.64 -0.12,-1.21 -0.64,-1.63 0,0 -0.02,-0.04 -0.02,-0.04 0,-0.35 0.08,-0.73 -0.32,-0.95 0,0 -0.03,-0.06 -0.03,-0.06 -0.23,-1.4 -0.72,-2.66 -1.78,-3.63 z"
   id="path37" />
	<path
   class="st7"
   d="m 186.5,139.61 c 1.89,0 3.79,0.03 5.68,0.01 4.01,-0.05 7.97,-0.41 11.87,-1.39 2.37,-0.59 4.74,-1.33 7.15,-1.51 2.69,-0.2 5.41,-0.8 8.13,-0.13 0.26,0.07 0.55,0.02 0.83,0.03 0.48,0.92 0.34,1.82 -0.01,2.74 -0.89,2.3 -2.44,4 -4.71,4.94 -2.25,0.93 -4.54,1.55 -6.92,0.31 -1.14,-0.6 -2.3,-0.2 -3.4,0.21 -1.53,0.57 -3.06,0.95 -4.72,0.9 -2.25,-0.07 -4.33,-0.63 -6.06,-2.06 -1.2,-0.99 -2.48,-1.25 -3.9,-0.94 -5.39,1.17 -10.35,-0.6 -15.3,-2.27 -1.99,-0.67 -3.56,-2.06 -4.62,-3.94 -0.28,-0.49 -0.6,-0.98 -0.61,-1.54 -0.01,-0.74 0.39,-0.46 0.72,-0.2 -0.44,0.57 -0.02,1 0.35,1.27 1.42,1.05 2.97,1.87 4.72,2.24 0.4,0.46 0.99,0.49 1.51,0.62 3.07,0.77 6.17,0.89 9.29,0.71 z"
   id="path38" />
	<path
   class="st7"
   d="m 312.16,138.3 c 1.54,-0.21 2.87,-0.98 4.21,-1.68 0.53,-0.27 1.01,-0.65 1.51,-0.98 -0.3,1.6 -1.43,2.61 -2.62,3.54 -1.61,1.26 -3.52,1.93 -5.48,2.41 -2.17,0.53 -4.36,0.92 -6.54,1.42 -1.63,0.37 -3.23,0.14 -4.82,-0.18 -1.79,-0.35 -3.31,-0.19 -4.86,0.98 -2.88,2.16 -6.15,2.41 -9.55,1.34 -0.48,-0.15 -0.96,-0.3 -1.43,-0.48 -1.15,-0.45 -2.26,-0.37 -3.42,0.07 -4.58,1.74 -10.51,-1.57 -11.47,-6.34 -0.13,-0.65 0.03,-1.21 0.29,-1.78 1.6,-0.15 3.2,-0.4 4.82,-0.28 3.21,0.25 6.39,0.64 9.52,1.47 2.2,0.58 4.43,1.07 6.67,1.41 1.8,0.27 3.65,0.33 5.48,0.37 2.4,0.06 4.79,0.01 7.19,0.01 0.88,0.1 1.77,0.37 2.62,0.26 2.18,-0.28 4.39,-0.39 6.54,-0.93 0.52,-0.1 1.01,-0.2 1.34,-0.63 z"
   id="path39" />
	<path
   class="st7"
   d="m 67.46,104.99 c -1.25,-1.15 -2.33,-2.18 -3.46,-3.18 -2.63,-2.33 -3.5,-5.36 -3.46,-8.72 0.03,-2.6 0.64,-5.08 1.83,-7.4 0.2,-0.4 0.41,-0.8 0.68,-1.14 0.47,-0.58 1.06,-1.06 1.87,-0.84 0.72,0.19 0.77,0.89 0.88,1.48 0.09,0.49 0.18,0.99 0.17,1.49 -0.09,3.82 0.96,7.39 2.47,10.84 2.58,5.94 6.05,11.29 10.65,15.89 0.39,0.39 0.77,0.81 1.13,1.23 0.23,0.27 0.34,0.58 0.12,0.91 -0.22,0.33 -0.55,0.34 -0.89,0.28 -0.16,-0.03 -0.32,-0.08 -0.48,-0.13 -3.14,-0.97 -6.26,-2 -9.29,-3.29 -1.72,-0.73 -2.93,-1.99 -3.74,-3.66 -1.02,-2.06 -0.72,-2.84 1.52,-3.76 z"
   id="path40" />
	<path
   class="st7"
   d="m 420.71,105.01 c 2.22,0.91 2.52,1.64 1.57,3.66 -0.75,1.62 -1.88,2.88 -3.55,3.62 -3.12,1.37 -6.35,2.42 -9.59,3.43 -0.16,0.05 -0.32,0.09 -0.49,0.11 -0.35,0.05 -0.67,-0.01 -0.85,-0.37 -0.14,-0.28 -0.07,-0.56 0.11,-0.78 0.51,-0.59 1.05,-1.16 1.59,-1.72 5.15,-5.34 8.93,-11.52 11.39,-18.51 0.86,-2.44 1.36,-4.94 1.3,-7.54 -0.02,-0.79 0.04,-1.57 0.3,-2.31 0.35,-1.01 1.03,-1.24 1.95,-0.68 0.49,0.3 0.83,0.73 1.1,1.23 1.83,3.41 2.41,7.04 1.85,10.85 -0.32,2.17 -1.36,3.99 -2.94,5.5 -1.2,1.16 -2.43,2.29 -3.74,3.51 z"
   id="path41" />
	<path
   class="st10"
   d="m 250.17,51.68 c -0.01,-2.52 0.47,-5.03 0.25,-7.55 0.5,-6.72 0.96,-13.46 2.41,-20.07 0.55,-2.51 1.23,-4.97 2.36,-7.3 0.92,-1.89 2.32,-3.27 4.3,-3.98 1.52,-0.54 2.97,-0.44 4.21,0.72 1.15,1.08 1.58,2.38 1.17,3.94 -0.4,1.52 -1.33,2.36 -2.97,2.48 -1.79,0.13 -3.42,-0.31 -4.9,-1.89 -2.88,11.86 -5.55,23.49 -6.31,35.47 -0.43,-0.51 -0.07,-1.29 -0.52,-1.82 z"
   id="path42" />
	<path
   class="st10"
   d="m 238.94,36.78 c -0.27,2.11 -0.55,4.22 -0.82,6.33 -1.12,-6.26 -2.26,-12.52 -3.74,-18.71 -0.48,-2.01 -0.96,-4.01 -1.43,-5.97 -0.39,-0.2 -0.56,0.03 -0.76,0.22 -1.19,1.12 -2.67,1.38 -4.2,1.27 -2.41,-0.17 -3.86,-2.66 -2.92,-4.91 0.89,-2.13 3.04,-3.07 5.26,-2.25 1.8,0.66 3.16,1.83 4.08,3.54 1.09,2.03 1.76,4.22 2.31,6.44 1,4.07 1.52,8.23 1.99,12.39 0.06,0.55 0.15,1.1 0.23,1.65 z"
   id="path43" />
	
	<path
   class="st10"
   d="m 238.23,58.45 c -0.55,-0.47 -0.72,-1.19 -1.16,-1.73 0.03,-0.35 0.09,-0.71 -0.35,-0.88 0,0 0.02,0.03 0.02,0.03 0.01,-0.24 0.07,-0.54 -0.35,-0.36 0,0 0.03,0.02 0.03,0.02 0.48,-0.53 -0.05,-0.93 -0.22,-1.33 -1.45,-3.32 -3.13,-6.53 -4.86,-9.72 -2.16,-3.97 -4.44,-7.87 -6.79,-11.72 -0.22,-0.36 -0.37,-0.8 -0.86,-1.09 -0.61,1.19 -1.57,1.98 -2.83,2.42 -2.01,0.7 -3.42,0.07 -4.13,-1.88 -0.58,-1.61 0.39,-3.63 2.08,-4.2 1.79,-0.61 3.41,-0.08 4.91,0.91 1.08,0.72 1.89,1.72 2.67,2.75 1.55,2.05 2.81,4.29 3.96,6.58 2.96,5.89 5.35,12.01 7.46,18.24 0.22,0.64 0.33,1.3 0.42,1.96 z"
   id="path45" />
	<path
   class="st10"
   d="m 251.5,54.18 c 2.28,-6.72 4.96,-13.26 8.52,-19.43 1.06,-1.84 2.26,-3.58 3.79,-5.09 1.21,-1.19 2.67,-1.82 4.35,-1.9 1.37,-0.07 2.51,0.45 3.22,1.7 0.7,1.23 0.69,2.43 -0.12,3.62 -0.77,1.12 -1.71,1.54 -3.03,1.2 -1.52,-0.39 -2.78,-1.15 -3.47,-2.64 -0.53,0.37 -0.74,0.91 -1.02,1.38 -3.95,6.48 -7.72,13.07 -10.95,19.94 -0.09,0.2 -0.23,0.38 -0.34,0.57 -0.33,0.21 -0.47,0.68 -0.95,0.65 z"
   id="path46" />
	<path
   class="st9"
   d="m 53.23,108.8 c -0.42,-0.6 -1.09,-0.92 -1.64,-1.39 -2.42,-2.07 -3.14,-6.47 -1.48,-9.17 0.24,-0.39 0.53,-0.79 1.02,-0.74 0.54,0.06 0.66,0.6 0.71,1.02 0.66,6.04 4.14,10.42 8.37,14.37 0.24,0.23 0.47,0.47 0.68,0.73 0.05,0.07 0.02,0.21 0.03,0.32 -0.23,0.35 -0.59,0.26 -0.89,0.18 -1.62,-0.41 -3.23,-0.83 -4.84,-1.28 -0.71,-0.2 -1.31,-0.6 -1.8,-1.16 -0.94,-1.06 -0.98,-1.66 -0.16,-2.88 z"
   id="path47" />
	<path
   class="st9"
   d="m 438.9,101.93 c 0,2.46 -0.7,4.37 -2.63,5.69 -0.37,0.25 -0.71,0.54 -1.05,0.82 -0.29,0.23 -0.45,0.45 -0.06,0.78 0.68,0.55 0.4,1.19 0.07,1.8 -0.44,0.81 -1.1,1.41 -1.96,1.73 -1.68,0.61 -3.41,1.04 -5.15,1.39 -0.3,0.06 -0.71,0.2 -0.87,-0.21 -0.15,-0.38 0.2,-0.6 0.45,-0.8 2.49,-2.11 4.53,-4.59 6.19,-7.4 1.23,-2.08 2.16,-4.27 2.37,-6.71 0.05,-0.6 0.06,-1.39 0.8,-1.48 0.69,-0.09 1,0.6 1.22,1.19 0.39,1.1 0.67,2.23 0.62,3.2 z"
   id="path48" />
	<path
   class="st11"
   d="m 244.14,90.05 c -2.42,0.03 -4.38,-1.91 -4.37,-4.31 0.01,-2.32 1.93,-4.26 4.25,-4.3 2.36,-0.04 4.4,1.98 4.38,4.35 -0.01,2.32 -1.92,4.23 -4.26,4.26 z"
   id="path49" />
	<path
   class="st7"
   d="m 149.51,49.55 c -0.04,2.32 -2,4.24 -4.32,4.24 -2.38,0 -4.37,-2.02 -4.32,-4.41 0.05,-2.39 2.09,-4.32 4.49,-4.23 2.33,0.09 4.19,2.07 4.15,4.4 z"
   id="path50" />
	<path
   class="st7"
   d="m 345.7,49.38 c 0.03,2.43 -1.9,4.42 -4.29,4.41 -2.31,-0.01 -4.28,-1.95 -4.33,-4.24 -0.05,-2.37 1.95,-4.4 4.33,-4.39 2.37,0 4.27,1.87 4.29,4.22 z"
   id="path51" />
	<path
   class="st7"
   d="m 352.41,130.73 c -0.02,2.36 -1.89,4.22 -4.26,4.24 -2.41,0.02 -4.39,-1.96 -4.36,-4.35 0.03,-2.29 2.02,-4.27 4.3,-4.28 2.4,-0.01 4.33,1.95 4.32,4.39 z"
   id="path52" />
	<path
   class="st7"
   d="m 202.18,24.41 c -2.5,0.02 -4.37,-1.81 -4.36,-4.27 0.01,-2.38 1.84,-4.22 4.23,-4.27 2.39,-0.04 4.41,1.93 4.4,4.3 -0.01,2.32 -1.92,4.21 -4.27,4.24 z"
   id="path53" />
	<path
   class="st7"
   d="m 140.07,134.97 c -2.37,0.01 -4.26,-1.83 -4.3,-4.19 -0.04,-2.44 1.84,-4.4 4.25,-4.44 2.25,-0.03 4.29,1.96 4.35,4.23 0.06,2.39 -1.9,4.39 -4.3,4.4 z"
   id="path54" />
	<path
   class="st7"
   d="m 286.18,15.91 c 2.46,-0.01 4.38,1.88 4.35,4.29 -0.03,2.35 -1.9,4.19 -4.28,4.21 -2.49,0.02 -4.33,-1.81 -4.31,-4.3 0.03,-2.42 1.82,-4.19 4.24,-4.2 z"
   id="path55" />
	
	
	
	
	
	
	<path
   class="st8"
   d="m 251.5,54.18 c 0.48,0.03 0.62,-0.44 0.94,-0.64 0.05,0.58 -0.64,1.02 -0.32,1.65 0,0 0.01,-0.02 0.01,-0.02 -0.24,-0.01 -0.34,0.11 -0.32,0.35 0.02,0.22 0.18,0.17 0.32,0.18 -0.82,0.54 -0.74,1.83 -1.83,2.15 0.2,-1.29 0.6,-2.51 1.2,-3.67 z"
   id="path62" />
	<path
   class="st12"
   d="m 311.84,90.73 c 0.39,-0.1 0.63,0.24 0.96,0.33 -0.23,1 -0.42,2 -0.33,3.04 -0.65,-1.1 -1.75,-0.48 -2.63,-0.7 0.12,-0.21 0.14,-0.43 0.08,-0.66 0.22,0 0.43,-0.02 0.65,0 1.59,0.11 1.72,-0.07 1.29,-1.68 -0.03,-0.12 -0.01,-0.23 -0.02,-0.33 z"
   id="path63" />
	<path
   class="st12"
   d="m 175.37,91.05 c 0.33,-0.08 0.58,-0.43 0.97,-0.32 -0.07,0.26 -0.15,0.51 -0.2,0.77 -0.18,1.02 0.1,1.32 1.15,1.25 0.32,-0.02 0.65,-0.01 0.97,-0.02 -0.07,0.23 -0.04,0.46 0.08,0.67 -0.86,0.21 -1.85,-0.32 -2.6,0.47 0.05,-0.97 -0.18,-1.89 -0.37,-2.82 z"
   id="path64" />
	<path
   class="st12"
   d="m 179.38,76.73 c -0.12,-0.62 0.13,-1.15 0.41,-1.68 0.21,0.01 0.41,0.01 0.62,0.02 -0.19,0.66 -0.45,1.26 -1.03,1.66 z"
   id="path65" />
	<path
   class="st7"
   d="m 272.44,71.69 c -0.14,0 -0.29,-0.01 -0.43,-0.01 0.14,-0.23 0.29,-0.34 0.43,0.01 z"
   id="path66" />
	<path
   class="st7"
   d="m 317.87,135.66 c -0.05,-0.28 0,-0.52 0.26,-0.68 0.08,0.29 0.04,0.54 -0.26,0.68 z"
   id="path67" />
	<path
   class="st14"
   d="m 312.16,138.3 c -0.33,0.43 -0.82,0.53 -1.3,0.65 -2.15,0.54 -4.36,0.65 -6.54,0.93 -0.85,0.11 -1.75,-0.16 -2.62,-0.26 0.38,-0.29 0.83,-0.27 1.28,-0.26 2.83,0.04 5.62,-0.35 8.37,-1.01 0.25,-0.07 0.53,-0.04 0.81,-0.05 z"
   id="path68" />
	<path
   class="st15"
   d="m 309.99,99.75 c -0.15,0.17 -0.26,0.37 -0.53,0.36 0.05,-0.32 0.1,-0.62 0.53,-0.36 z"
   id="path69" />
	<path
   class="st14"
   d="m 186.5,139.61 c -3.12,0.18 -6.22,0.05 -9.27,-0.7 -0.52,-0.13 -1.11,-0.17 -1.51,-0.62 1.62,-0.05 3.14,0.53 4.73,0.74 1.65,0.21 3.3,0.29 4.95,0.32 0.39,0.01 0.77,0.02 1.1,0.26 z"
   id="path70" />
	<path
   class="st14"
   d="m 222.16,79.05 c 1.06,0.97 1.56,2.23 1.78,3.61 -0.88,-1.06 -1.32,-2.34 -1.78,-3.61 z"
   id="path71" />
	<path
   class="st14"
   d="m 225.31,86.42 c 0.57,1.06 1.07,2.14 0.93,3.39 -0.66,-1.04 -0.96,-2.17 -0.93,-3.39 z"
   id="path72" />
	<path
   class="st14"
   d="m 224.31,83.71 c 0.52,0.42 0.67,0.99 0.64,1.63 -0.48,-0.44 -0.73,-0.97 -0.64,-1.63 z"
   id="path73" />
	<path
   class="st14"
   d="m 224.97,85.41 c 0.39,0.22 0.31,0.59 0.31,0.94 -0.45,-0.2 -0.34,-0.58 -0.31,-0.94 z"
   id="path74" />
	<path
   class="st14"
   d="m 223.97,82.72 c 0.4,0.22 0.32,0.6 0.32,0.95 -0.42,-0.21 -0.37,-0.58 -0.32,-0.95 z"
   id="path75" />
	<path
   class="st15"
   d="m 178.74,100.11 c -0.31,-0.04 -0.36,-0.27 -0.36,-0.52 0.26,0.07 0.39,0.24 0.36,0.52 z"
   id="path76" />
	<path
   class="st15"
   d="m 252.14,55.71 c -0.13,-0.01 -0.3,0.03 -0.32,-0.18 -0.02,-0.24 0.07,-0.36 0.32,-0.35 0,0.17 0,0.35 0,0.53 z"
   id="path77" />
	<path
   class="st15"
   d="m 236.72,55.84 c 0.44,0.17 0.37,0.53 0.35,0.88 -0.24,-0.25 -0.55,-0.47 -0.35,-0.88 z"
   id="path78" />
	<path
   class="st15"
   d="m 236.39,55.5 c 0.42,-0.17 0.36,0.12 0.35,0.36 -0.37,0.12 -0.4,-0.08 -0.35,-0.36 z"
   id="path79" />
	<path
   class="st0"
   d="m 175.37,91.05 c 0.18,0.93 0.41,1.86 0.37,2.82 -0.13,0.26 -0.26,0.52 -0.39,0.78 -0.89,0.32 -1.78,0.59 -2.71,0.13 -0.44,-0.24 -0.87,-0.48 -1.31,-0.72 -0.24,-0.62 -0.66,-1.16 -0.77,-1.83 0.16,-0.5 0.31,-1.01 0.47,-1.51 0.72,-0.04 1.12,-0.68 1.74,-0.92 0.39,0.21 0.82,0.28 1.26,0.3 0.3,0.55 0.84,0.72 1.34,0.95 z"
   id="path80" />
	<path
   class="st15"
   d="m 164.97,99.13 c 0.15,-0.64 0.58,-0.81 1.18,-0.7 -0.34,0.32 -0.53,0.9 -1.18,0.7 z"
   id="path81" />
	<path
   class="st15"
   d="m 171.7,100.08 c 0.36,0.37 0.42,0.71 -0.06,1.03 -0.31,-0.36 0,-0.68 0.06,-1.03 z"
   id="path82" />
	<path
   class="st0"
   d="m 312.47,94.1 c -0.09,-1.04 0.11,-2.04 0.33,-3.04 0.51,-0.24 1.06,-0.41 1.36,-0.94 0.43,-0.02 0.86,-0.09 1.24,-0.31 0.62,0.23 1.02,0.87 1.74,0.92 0.16,0.51 0.32,1.01 0.47,1.52 -0.26,0.61 -0.52,1.22 -0.78,1.83 -0.47,0.27 -0.94,0.54 -1.41,0.81 -0.91,0.36 -1.75,0.05 -2.59,-0.24 -0.12,-0.19 -0.24,-0.37 -0.36,-0.55 z"
   id="path83" />
	<path
   class="st15"
   d="m 322.04,98.42 c 0.6,-0.1 1.02,0.09 1.18,0.7 -0.67,0.25 -0.84,-0.37 -1.18,-0.7 z"
   id="path84" />
	<path
   class="st15"
   d="m 324.58,85.72 c 0.06,-0.63 0.28,-1.04 1.01,-0.67 -0.15,0.51 -0.49,0.72 -1.01,0.67 z"
   id="path85" />
	<path
   class="st15"
   d="m 323.57,86.56 c 0.09,-0.58 0.34,-0.98 1.02,-0.85 -0.13,0.53 -0.62,0.63 -1.02,0.85 z"
   id="path86" />
	<path
   class="st15"
   d="m 162.94,85.37 c 0.47,-0.36 0.64,-0.13 0.68,0.35 -0.35,0.12 -0.56,-0.02 -0.68,-0.35 z"
   id="path87" />
	<path
   class="st15"
   d="m 163.94,86.03 c 0.41,-0.18 0.62,0.13 0.86,0.36 -0.43,0.23 -0.66,-0.03 -0.86,-0.36 z"
   id="path88" />
	<path
   class="st15"
   d="m 162.6,85.04 c 0.12,-0.02 0.2,-0.19 0.36,-0.03 0.16,0.16 0,0.25 -0.01,0.37 -0.22,-0.01 -0.44,-0.01 -0.35,-0.34 z"
   id="path89" />
	<path
   class="st15"
   d="m 163.6,85.71 c 0.3,-0.07 0.44,0.02 0.36,0.34 -0.22,-0.01 -0.42,-0.04 -0.36,-0.34 z"
   id="path90" />
	<path
   class="st15"
   d="m 296.74,79.31 c 0.41,-0.22 0.55,0.07 0.69,0.36 -0.38,0.15 -0.62,0.07 -0.69,-0.36 z"
   id="path91" />
	<path
   class="st12"
   d="m 311.36,90.38 c 0.24,-0.01 0.42,0.06 0.46,0.33 -0.15,-0.11 -0.31,-0.22 -0.46,-0.33 z"
   id="path92" />
	<path
   class="st15"
   d="m 297.4,79.64 c 0.29,0.05 0.37,0.25 0.35,0.51 -0.18,-0.12 -0.43,-0.2 -0.35,-0.51 z"
   id="path93" />
	<path
   class="st15"
   d="m 189.41,80.69 c 0.41,-0.41 0.77,-0.9 1.38,-1.04 -0.14,0.77 -0.86,0.77 -1.38,1.04 z"
   id="path94" />
	<path
   class="st15"
   d="m 190.77,79.66 c 0.14,-0.3 0.26,-0.62 0.69,-0.36 -0.08,0.43 -0.33,0.51 -0.69,0.36 z"
   id="path95" />
	<path
   class="st12"
   d="m 176.37,90.71 c 0,-0.23 0.16,-0.34 0.33,-0.44 -0.01,0.22 -0.09,0.39 -0.33,0.44 z"
   id="path96" />
	<path
   class="st15"
   d="m 318.2,77.97 c 0.13,0.47 0,0.86 -0.33,1.2 0.08,-0.41 -0.19,-0.92 0.33,-1.2 z"
   id="path97" />
</g>
</svg>
