<?xml version="1.0" encoding="UTF-8"?>
<svg width="356.84" height="406.79" version="1.1" viewBox="0 0 356.84 406.79" xml:space="preserve" xmlns="http://www.w3.org/2000/svg">
<style type="text/css">
	.st0{fill:#F69C22;}
	.st1{fill:#EE5343;}
	.st2{fill:#53823E;}
	.st3{fill:#08B4DF;}
	.st4{fill:#E32A2E;}
	.st5{fill:#B84D9C;}
	.st6{fill:#EC3F73;}
	.st7{fill:#F26C36;}
	.st8{fill:#9D2A83;}
	.st9{fill:#FFD631;}
	.st10{fill:#99BE40;}
	.st11{fill:#99BE40;}
	.st12{fill:#B84D9C;}
	.st13{fill:#47C0B7;}
	.st14{fill:#F178A0;}
</style>
<g transform="translate(-1.5896 -2.6056)">
	<path class="st0" d="m80.07 335.01c-1 0.37-1.69 0.68-2.4 0.86-1.35 0.34-2.33-0.07-3.09-1.21-0.5-0.75-0.79-1.6-0.89-2.47-0.43-3.79-0.03-7.41 2.35-10.58 4.05-5.39 8.61-10.33 13.26-15.19 0.22-0.23 0.45-0.45 0.72-0.6 1.07-0.62 2.1-0.04 2.03 1.19-0.05 0.8-0.26 1.61-0.49 2.39-3.25 11.1-4.24 22.44-3.58 33.95 0.26 4.45 0.83 8.88 1.88 13.23 1 4.12 2.56 8.01 4.65 11.69 0.72 1.26 1.32 2.57 1.47 4.04 0.15 1.44-0.35 2.15-1.76 2.35-1.29 0.19-2.52-0.07-3.61-0.78-7.48-4.86-12.68-11.37-14.6-20.23-0.54-2.51-0.18-5 0.4-7.47 0.77-3.25 1.88-6.38 3.05-9.5 0.18-0.45 0.34-0.92 0.61-1.67z"/>
	<path class="st0" d="m79.35 76.48c-0.26-1.43-0.92-2.73-1.39-4.09-0.89-2.55-1.62-5.14-2.23-7.77-0.63-2.77-0.51-5.49 0.28-8.18 2.32-7.97 7.28-13.92 14.19-18.36 1.04-0.67 2.2-0.92 3.42-0.79 1.48 0.16 1.99 0.75 1.92 2.22-0.07 1.76-0.9 3.25-1.74 4.73-2.35 4.14-3.88 8.55-4.81 13.21-0.94 4.69-1.37 9.43-1.56 14.2-0.42 10.5 0.85 20.79 3.67 30.9 0.13 0.48 0.23 0.98 0.37 1.46 0.25 0.82 0.43 1.66-0.43 2.2-0.89 0.56-1.53-0.04-2.13-0.64-0.13-0.13-0.27-0.26-0.4-0.4-4.19-4.34-8.16-8.87-11.98-13.54-2.71-3.31-3.75-7.03-3.34-11.23 0.08-0.82 0.24-1.62 0.56-2.37 0.75-1.79 2.1-2.4 3.95-1.83 0.48 0.15 0.94 0.34 1.41 0.52 0.13 0.13 0.27 0.31 0.42 0.04 0.01-0.04-0.12-0.18-0.18-0.28z"/>
	<path class="st0" d="m279.99 335.12c-0.04 0.92 0.38 1.57 0.63 2.25 1.15 3.12 2.19 6.28 2.96 9.52 0.77 3.22 0.56 6.34-0.45 9.46-2.43 7.57-7.28 13.22-13.86 17.51-0.97 0.63-2.06 0.92-3.23 0.85-1.81-0.11-2.5-0.93-2.2-2.7 0.22-1.25 0.7-2.41 1.33-3.5 2.83-4.89 4.65-10.15 5.56-15.71 1.2-7.27 1.55-14.59 1.14-21.95-0.42-7.56-1.76-14.94-3.82-22.21-0.12-0.42-0.14-0.87-0.26-1.29-0.19-0.7 0-1.27 0.62-1.61 0.64-0.35 1.21-0.1 1.71 0.37 0.18 0.17 0.36 0.35 0.54 0.53 4.4 4.49 8.56 9.19 12.47 14.11 2.79 3.52 3.71 7.46 2.9 11.85-0.11 0.63-0.32 1.22-0.61 1.77-0.77 1.43-1.87 1.92-3.46 1.49-0.62-0.19-1.23-0.47-1.97-0.74z"/>
	<path class="st0" d="m279.67 76.78c0.58-0.22 0.99-0.39 1.4-0.52 2.15-0.69 3.6-0.06 4.22 2.15 1.18 4.21 0.67 8.22-1.9 11.85-1.78 2.52-3.81 4.84-5.84 7.15-2.32 2.64-4.67 5.27-7.14 7.77-0.35 0.36-0.71 0.73-1.12 1-0.44 0.3-0.96 0.34-1.42 0.01-0.43-0.31-0.71-0.74-0.6-1.29 0.14-0.68 0.29-1.35 0.48-2.02 1.62-5.88 2.88-11.84 3.41-17.93 0.41-4.69 0.62-9.4 0.33-14.12-0.28-4.52-0.65-9.01-1.56-13.46-0.95-4.65-2.5-9.07-4.83-13.22-0.71-1.26-1.39-2.54-1.66-3.98-0.39-2.08 0.37-2.93 2.5-2.92 0.97 0.01 1.89 0.23 2.69 0.74 7.03 4.51 12.05 10.55 14.37 18.69 0.91 3.19 0.67 6.33-0.14 9.48-0.75 2.92-1.7 5.78-2.78 8.6-0.19 0.59-0.54 1.14-0.41 2.02z"/>
	<path class="st1" d="m327.78 160.74c4.33 0.03 8.65 0.19 12.95 0.78 4.62 0.64 8.11 3.14 11.07 6.55 0.08 0.09 0.15 0.2 0.22 0.31 1.15 1.7 0.89 2.54-1 3.28-1.06 0.41-2.19 0.58-3.3 0.71-5.44 0.65-10.78 0.52-15.8-2.09-0.54-0.28-1.11-0.64-1.78-0.42 0.06-0.21 0.04-0.33-0.22-0.22 0.08 0.07 0.17 0.13 0.25 0.2 1.82 1.42 3.63 2.87 5.47 4.27 4.03 3.06 6.07 7.22 6.81 12.12 0.01 0.06 0.03 0.12 0.04 0.18 0.36 2.71-0.64 3.67-3.18 2.69-4.78-1.83-9.23-4.22-12.47-8.38-0.22-0.29-0.39-0.65-0.81-0.73l0.02 0.02c-0.01-0.14-0.02-0.29-0.04-0.43-0.26-0.56-0.48-1.15-1.08-1.46l-0.03-0.03c-0.09-0.13-0.18-0.27-0.27-0.4l-0.15-0.45c-0.05-0.07-0.11-0.12-0.18-0.16-2.18-4.35-4.78-8.44-7.71-12.33-0.01-1.18 1.13-1.7 1.51-2.66 3.16-0.97 6.44-1.05 9.68-1.35z"/>
	<path class="st1" d="m34.36 178.32c-0.16 0.2-0.34 0.38-0.47 0.59-2.88 4.63-7.35 7.24-12.06 9.55-0.9 0.44-1.85 0.79-2.85 0.93-1.42 0.2-1.98-0.27-2.07-1.69-0.07-1.13 0.1-2.24 0.36-3.35 0.93-3.89 2.7-7.24 5.9-9.78 1.72-1.36 3.38-2.8 5.2-4.02 0.57-0.26 1.13-0.52 1.49-1.07 0.05-0.09 0.1-0.17 0.15-0.26-0.09 0.04-0.19 0.08-0.28 0.13-0.5-0.01-0.96 0.09-1.32 0.47-5.87 3.21-12.11 3.33-18.5 2.24-0.49-0.08-0.98-0.22-1.45-0.39-1.99-0.71-2.36-1.72-1.02-3.38 2.89-3.57 6.45-6.11 11.14-6.76 4.3-0.6 8.63-0.76 12.96-0.78 3.21 0.33 6.48 0.32 9.6 1.34 0.72 0.62 0.98 1.61 1.77 2.16-0.18 0.44-0.63 0.75-0.66 1.27-3.17 3.92-5.44 8.42-7.89 12.8z"/>
	<path class="st2" d="m158.77 359.45c2.19-3.27 2.51-7.01 2.68-10.78 0.08-1.82 0.08-3.64 0.41-5.43 0.13-0.68 0.24-1.36 0.42-2.02 0.65-2.33 0.69-2.33 0.23-4.59-0.35-1.71-0.04-3.25 0.95-4.64 0.86-1.21 1.35-2.3 0.76-3.93-0.6-1.65 0.15-3.34 1.31-4.69 0.44-0.52 0.95-1.12 1.56-1.33 3.48-1.21 2.69-4.43 3.66-6.9-0.56-0.1-0.73 0.09-0.89 0.28-4.31 4.85-9.48 8.55-15.28 11.4-0.22 0.11-0.44 0.25-0.65 0.37-2.84 0.06-5.55 0.79-8.23 1.64-1.86 0.59-3.57 1.42-5.12 2.65-1.91 1.52-3.71 3.15-5.48 4.83-1.85 1.76-3.78 3.44-5.67 5.16-0.12-1.27 1.11-1.82 1.51-2.81 0.2-0.29 0.69-0.47 0.42-0.97l-0.01 0.04c0.29 0.16 0.46-0.03 0.62-0.22 3.65-4.06 8.11-7.12 12.7-9.97 3.68-2.29 7.49-4.36 11.34-6.36 2.69-1.4 5.24-2.99 7.5-5.01 1.03-0.92 1.98-1.9 2.95-3.33-1.75-0.05-3.27-0.13-4.8-0.13-0.64 0-0.88 0.66-1.27 1.04-1.25 1.22-2.63 2.12-4.47 2.13-1.03 0-2.04-0.1-2.83-0.81-0.61-0.55-1.23-0.58-1.91-0.31-2.47 1-4.78 0.91-6.86-0.91-0.26-0.23-0.56-0.24-0.88-0.17-2.22 0.54-4.37 0.01-6.52-0.43-1.48-0.3-2.95-0.64-4.42-0.93-2.55-0.5-5.09-0.73-7.59 0.33-0.72 0.3-0.79-0.05-0.42-0.61 0.23-0.08 0.35-0.23 0.28-0.49l-0.01-0.01c0.48 0.07 0.84-0.21 1.21-0.43 1.89-1.09 4-1.35 6.09-1.69 3.35-0.53 6.73-0.4 10.1-0.37 1.74 0.01 3.48 0.25 5.19 0.6 4.77 0.97 9.52 2.09 14.44 1.67 0.12-0.01 0.25-0.01 0.37-0.02 1.5 0 3.01-0.04 4.51 0.01 0.72 0.02 1.18-0.24 1.51-0.85 0.75-1.38 1.52-2.74 2.28-4.1 0.74-1.31 1.5-2.61 2.66-3.62 0.48-0.42 1.04-0.77 1.71-0.51 0.72 0.27 0.75 0.98 0.77 1.59 0.07 1.54-0.34 3-1.03 4.35-0.81 1.58-1.25 3.26-1.66 4.96-0.47 1.95-1.02 3.87-1.51 5.82-0.15 0.6-0.48 1.17-0.31 1.83-1.31 2.19-1.85 4.65-2.02 7.12-0.17 2.43-0.52 4.85-0.47 7.31 0.03 1.36-0.31 2.72-0.54 4.08-0.5 2.97-1.37 5.85-2.2 8.73-1.05 3.63-2.56 7.07-4.81 10.15-0.54 0.74-1.18 1.43-2.28 1.28z"/>
	<path class="st2" d="m200.02 52.06c0.77-0.19 1.01 0.01 0.47 0.68-1.39 1.72-2.03 3.74-2.32 5.88-0.22 1.61-0.33 3.25-0.4 4.87-0.14 3.14-0.19 6.29-1.6 9.19-0.23 0.47-0.06 0.82 0.1 1.23 0.92 2.34 0.69 4.54-0.82 6.58-0.7 0.93-1.05 1.76-0.53 3.07 0.69 1.73 0.01 3.45-1.13 4.92-0.54 0.7-1.18 1.4-2 1.68-1.82 0.62-2.4 2-2.61 3.69-0.12 1.02-0.69 1.98-0.48 3.43 4.77-5.48 10.36-9.42 16.6-12.48 1.69-0.07 3.37-0.26 4.99-0.71 3.38-0.94 6.71-1.96 9.43-4.39 2.34-2.09 4.63-4.21 6.85-6.42 0.89-0.88 1.8-1.72 2.88-2.36 0.26 1.11-0.98 1.52-1.14 2.42-0.22 0.14-0.38 0.32-0.41 0.6l0.02-0.03c-1.79 1.56-3.36 3.36-5.23 4.85-4.14 3.31-8.63 6.07-13.24 8.65-2.85 1.6-5.76 3.09-8.6 4.69-2.42 1.36-4.62 3.03-6.53 5.06-0.51 0.54-1.04 1.06-1.49 2 1.58 0.05 2.99 0.07 4.4 0.15 0.77 0.04 1.08-0.54 1.5-0.98 1.31-1.37 2.81-2.3 4.8-2.23 0.9 0.03 1.79 0.13 2.48 0.74 0.65 0.58 1.31 0.66 2.07 0.36 2.4-0.96 4.66-0.88 6.71 0.86 0.25 0.21 0.53 0.3 0.87 0.23 2.81-0.57 5.48 0.2 8.19 0.77 1.84 0.39 3.66 0.91 5.56 0.97 1.57 0.05 3.14 0.13 4.59-0.68 0.6-0.33 0.8-0.02 0.67 0.58-0.19 0.11-0.3 0.26-0.25 0.49h0.02c-1.08-0.07-1.76 0.83-2.71 1.13-5.17 1.65-10.48 1.54-15.78 1.29-1.33-0.06-2.72-0.13-4.07-0.45-4.74-1.14-9.51-2.11-14.43-1.71-0.12 0.01-0.25 0.02-0.37 0.02-1.38 0-2.77 0.08-4.14-0.02-1.11-0.08-1.73 0.37-2.21 1.3-0.85 1.61-1.75 3.19-2.65 4.76-0.56 0.99-1.24 1.9-2.14 2.6-1.22 0.95-2.18 0.56-2.33-0.97s0.24-3.02 0.94-4.36c0.98-1.86 1.4-3.87 1.89-5.87 0.53-2.18 1.13-4.35 1.69-6.53 0.33-0.32 0.41-0.77 0.54-1.18 1.24-3.77 1.77-7.67 1.87-11.61 0.06-2.32 0.3-4.6 0.73-6.89 0.47-2.47 1.23-4.84 1.93-7.25 1.34-4.71 2.86-9.32 6.82-12.62z"/>
	<path class="st2" d="m205.72 327.18c-4.1-2.07-8.02-4.41-11.5-7.43-1.38-1.19-2.69-2.45-3.93-3.78-0.33-0.35-0.58-0.81-1.41-1.05 0.47 1.98 0.9 3.78 1.34 5.57 0.1 0.42 0.51 0.51 0.85 0.67 0.97 0.46 1.89 0.99 2.64 1.77 1.65 1.71 2.32 3.71 1.5 6.02-0.24 0.67-0.25 1.18 0.17 1.74 0.3 0.4 0.52 0.86 0.81 1.27 1.3 1.86 1.37 3.85 0.61 5.91-0.2 0.54-0.4 1.01-0.11 1.59 1.16 2.37 1.34 4.93 1.46 7.51 0.09 2 0.23 4.01 0.41 6 0.21 2.35 1.15 4.46 2.32 6.47-0.95 0.19-1.59-0.36-2.07-1.01-0.67-0.9-1.35-1.79-1.88-2.8-2.06-3.92-3.29-8.12-4.43-12.36-0.45-1.69-0.91-3.37-1.18-5.11-0.5-3.23-0.18-6.5-0.67-9.73-0.41-2.67-0.91-5.29-1.99-7.78-0.84-3.34-1.7-6.68-2.52-10.03-0.17-0.69-0.54-1.26-0.83-1.89-0.72-1.55-1.3-3.14-1.25-4.88 0.02-0.63 0.04-1.31 0.73-1.62 0.75-0.33 1.33 0.12 1.85 0.59 1.04 0.94 1.76 2.12 2.44 3.32 0.77 1.36 1.54 2.74 2.27 4.12 0.39 0.74 0.92 1.07 1.8 1.02 1.44-0.07 2.89-0.01 4.33 0 3.96 0.09 7.87 0.01 11.75-1.08 3.82-1.07 7.76-1.39 11.74-1.19 0.82 0.04 1.64-0.03 2.45 0.02 3.5 0.24 7 0.49 10.23 2.04 0.35 0.17 0.71 0.23 1.1 0.18l-0.01-0.01c-0.08 0.36 0.06 0.62 0.38 0.79-0.17 0.48-0.56 0.46-0.92 0.34-2.81-0.91-5.58-0.42-8.36 0.16-1.9 0.4-3.81 0.78-5.71 1.17-0.37 0.07-0.74 0.11-1.12 0.14-1.07 0.09-2.15-0.26-3.17-0.17-0.93 0.07-1.64 1.04-2.6 1.39-1.47 0.54-2.85 0.32-4.23-0.17-1.01-0.36-1.8-0.34-2.77 0.33-1.77 1.23-4.5 0.94-6.21-0.91-1.44-1.56-2.98-1.8-4.84-1.58-0.55 0.07-1.11 0.06-1.67 0.08-0.13 0.67 0.37 0.95 0.67 1.29 2.32 2.71 5.17 4.74 8.29 6.41 4.43 2.37 8.87 4.7 13.12 7.37 4.21 2.64 8.26 5.49 11.68 9.14 0.17 0.18 0.34 0.37 0.63 0.33v-0.04c-0.09 0.62 0.38 0.86 0.79 1.14l-0.02-0.03c0.04 0.23 0.15 0.4 0.41 0.41l-0.03-0.04c0 0.27 0.12 0.48 0.35 0.61 0.1 0.75 1.08 1.15 0.81 2.05-2.56-2.37-5.22-4.65-7.67-7.12-4.68-4.68-10.39-6.74-16.83-7.15z"/>
	<path class="st2" d="m124.01 100.03c-0.15-0.84 0.61-0.52 0.79-0.46 3.61 1.11 7.09 0.15 10.59-0.62 2.51-0.55 5.03-1.25 7.63-0.65 0.52 0.12 0.81-0.16 1.17-0.42 1.79-1.35 3.75-1.69 5.87-0.87 1.05 0.41 1.91 0.46 2.95-0.29 1.66-1.2 4.46-0.95 6.06 0.84 1.54 1.72 3.22 1.9 5.2 1.66 0.48-0.06 0.99 0.13 1.6-0.26-0.57-0.98-1.36-1.76-2.15-2.53-2.27-2.21-4.9-3.93-7.7-5.39-4.63-2.41-9.21-4.9-13.6-7.73-3.76-2.42-7.36-5.05-10.44-8.33-0.17-0.18-0.34-0.37-0.63-0.35v0.04c0.06-0.6-0.38-0.86-0.78-1.14l0.02 0.03c-0.05-0.22-0.17-0.39-0.39-0.47-0.52-0.79-1.28-1.47-1.15-2.55 0.25 0.18 0.53 0.33 0.75 0.54 2.38 2.24 4.72 4.51 7.12 6.72 1.15 1.06 2.35 2.09 3.63 2.99 3.87 2.75 8.35 3.57 12.95 4.02 4.88 2.39 9.38 5.33 13.35 9.07 1.09 1.03 2.25 1.99 3.41 3.01 0.07-0.15-0.06-0.55-0.15-0.92-0.21-0.92-0.53-1.82-0.66-2.74-0.2-1.41-0.84-2.25-2.18-2.94-3.14-1.6-4.11-4.15-3.16-7.52 0.13-0.47 0.13-0.85-0.12-1.25-0.27-0.43-0.51-0.87-0.81-1.27-1.43-1.95-1.6-4.05-0.72-6.24 0.23-0.57 0.3-1.03 0.03-1.6-1.04-2.14-1.27-4.44-1.39-6.77-0.1-1.94-0.24-3.89-0.35-5.83-0.15-2.63-1.08-4.99-2.36-7.25 0.68-0.28 1.03 0.23 1.45 0.59 1.78 1.52 2.61 3.65 3.59 5.66 1.79 3.68 2.66 7.67 3.74 11.58 0.35 1.26 0.62 2.56 0.73 3.85 0.31 3.42 0.37 6.86 0.81 10.26 0.3 2.32 0.64 4.69 1.88 6.78 0.86 3.47 1.68 6.94 2.6 10.39 0.24 0.89 0.79 1.7 1.15 2.57 0.51 1.22 0.87 2.48 0.81 3.83-0.03 0.64-0.03 1.33-0.69 1.63-0.73 0.34-1.34-0.09-1.86-0.56-0.94-0.85-1.64-1.9-2.26-2.99-0.83-1.47-1.66-2.95-2.46-4.45-0.4-0.74-0.93-1.08-1.8-1.04-1.44 0.06-2.89 0.01-4.33 0-1.82 0-3.64-0.01-5.47 0.01-0.87 0.01-1.73 0.06-2.61 0.27-5.55 1.34-11.15 2.28-16.91 1.99-3.89-0.2-7.74-0.49-11.35-2.12-0.27-0.12-0.61-0.07-0.92-0.1l0.01 0.01c0.06-0.37-0.05-0.65-0.49-0.69z"/>


	<path class="st4" d="m52.88 305.52c-2.46 0.09-4.7 0.41-6.95 0.56-4.4 0.29-7.95-1.39-11.11-4.22-2.96-2.66-5.03-5.92-6.4-9.63-0.33-0.89-0.56-1.79-0.21-2.76 0.42-1.16 1.03-1.51 2.16-1.08 0.71 0.27 1.37 0.65 1.91 1.18 5.65 5.51 12.75 8.09 20.18 10 6.67 1.72 13.46 2.45 20.35 2.11 0.56-0.03 1.14-0.03 1.69 0.08 0.84 0.18 1.02 0.93 0.41 1.55-0.21 0.22-0.49 0.39-0.76 0.55-3.96 2.31-7.97 4.53-12.17 6.39-2.31 1.02-4.65 0.97-6.99 0.26-2.98-0.89-3.49-2.05-2.11-4.99z"/>
	<path class="st4" d="m307.15 305.62c-0.11 0.35 0.01 0.57 0.16 0.77 1.04 1.33 0.6 2.77-1.23 3.64-2.35 1.11-4.85 1.49-7.33 0.55-4.72-1.79-9.05-4.36-13.39-6.9-0.49-0.29-0.99-0.65-0.74-1.34 0.21-0.57 0.74-0.64 1.25-0.64 0.56-0.01 1.13 0.02 1.7 0.04 10.46 0.33 20.52-1.53 30.14-5.63 3.44-1.47 6.56-3.46 9.28-6.03 0.74-0.7 1.53-1.32 2.48-1.68 1.11-0.42 1.84-0.04 2.14 1.12 0.21 0.8 0.18 1.62-0.11 2.41-2 5.51-5.32 9.94-10.56 12.77-1.63 0.88-3.36 1.37-5.23 1.35-2.07-0.02-4.15 0.01-6.21-0.31-0.77-0.14-1.58-0.3-2.35-0.12z"/>
	<path class="st4" d="m52.36 106.49c-0.02-0.29 0-0.43-0.05-0.52-1.2-2.25-0.88-3.26 1.45-4.21 2.48-1.01 5.01-1.21 7.52-0.14 4.34 1.85 8.45 4.16 12.51 6.55 0.22 0.13 0.42 0.27 0.62 0.43 0.33 0.26 0.44 0.61 0.35 1-0.1 0.41-0.42 0.62-0.83 0.64-0.5 0.02-1 0.03-1.5 0.02-10.25-0.35-20.15 1.32-29.66 5.18-3.82 1.55-7.31 3.62-10.32 6.46-0.74 0.69-1.53 1.32-2.48 1.69-1.15 0.45-1.76 0.14-2.17-1.03-0.26-0.74-0.24-1.48 0.01-2.22 2.05-5.95 5.66-10.59 11.4-13.41 1.31-0.64 2.71-0.96 4.19-0.95 2.26 0.02 4.52-0.05 6.77 0.33 0.7 0.1 1.44 0.11 2.19 0.18z"/>
	<path class="st4" d="m306.59 106.42c1 0.05 1.99-0.1 2.98-0.24 1.62-0.23 3.27-0.13 4.89-0.24 2.98-0.19 5.56 0.83 7.94 2.48 4.18 2.89 6.96 6.84 8.65 11.59 0.1 0.29 0.21 0.6 0.24 0.91 0.08 1.02 0.11 2.11-0.91 2.69-0.9 0.51-1.69-0.14-2.43-0.6-0.48-0.29-0.92-0.66-1.33-1.05-3.58-3.39-7.82-5.65-12.41-7.33-8.9-3.26-18.09-4.73-27.57-4.4-0.44 0.02-0.88 0.03-1.32 0.02-0.53-0.01-1.03-0.14-1.16-0.74-0.11-0.5 0.18-0.83 0.57-1.09 0.21-0.14 0.42-0.28 0.64-0.4 3.86-2.25 7.77-4.38 11.84-6.23 2.43-1.11 4.87-1.08 7.35-0.3 0.59 0.19 1.18 0.46 1.69 0.81 1.23 0.82 1.42 1.72 0.77 3.08-0.17 0.33-0.55 0.55-0.43 1.04z"/>
	<path class="st3" d="m103.47 28.1c1.15-3.05 2.78-5.73 5.6-7.52 2.92-1.85 6.02-1.79 8.99-0.28 1.74 0.89 2.98 0.89 4.72-0.19 3.86-2.38 8.02-2.21 12.1-0.36 2.73 1.24 4.97 3.16 7.03 5.3 2.18 2.27 4.31 4.58 6.72 6.6 1.01 0.85 1.9 2.13 3.56 1.36 0.2-0.09 0.36 0.13 0.36 0.32-0.01 0.16-0.1 0.35-0.21 0.48-0.06 0.08-0.25 0.13-0.34 0.09-2.08-0.84-4.05 0.27-6.07 0.39-7.32 0.42-14.09-1.27-20.34-5.07-2.75-1.67-5.51-3.25-8.67-4.04-4.69-1.17-8.97-0.51-12.71 2.71-0.17 0.16-0.33 0.37-0.74 0.21z"/>
	<path class="st3" d="m207.9 33.22c3.28-2.82 6.28-5.94 9.31-9.04 1.9-1.94 4.07-3.55 6.6-4.61 4.51-1.88 8.84-1.56 12.88 1.24 0.8 0.55 1.39 0.67 2.14 0.08 0.24-0.19 0.55-0.29 0.84-0.41 6.04-2.49 10.36-1.1 13.81 4.46 0.65 1.05 1.25 2.14 1.57 3.37-0.39 0.05-0.53-0.17-0.7-0.31-3.64-3.2-7.84-3.95-12.48-2.9-3.17 0.72-6.01 2.14-8.74 3.85-6.07 3.8-12.67 5.68-19.86 5.36-1.82-0.08-3.63-0.26-5.37-0.84 0.02-0.08 0.02-0.17 0-0.25z"/>
	<path class="st3" d="m209.02 378.46c3.56-1.03 7.19-0.99 10.82-0.57 5.39 0.63 10.31 2.61 14.87 5.52 3.16 2.02 6.55 3.42 10.31 3.82 3.6 0.38 6.84-0.47 9.68-2.76 0.29-0.23 0.59-0.45 0.9-0.69 0.45 0.5 0.05 0.86-0.1 1.21-0.79 1.79-1.83 3.43-3.22 4.83-2.86 2.87-6.2 3.63-10.01 2.27-0.94-0.34-1.87-0.73-2.77-1.18-0.65-0.33-1.13-0.24-1.71 0.15-5.39 3.68-10.73 3.15-16-0.28-1.43-0.93-2.7-2.04-3.88-3.27-2.88-2.97-5.74-5.97-8.92-8.63 0-0.13 0.02-0.28 0.03-0.42z"/>
	<path class="st3" d="m151.33 378.75c-3.1 2.65-6 5.51-8.78 8.49-1.98 2.12-4.26 3.9-6.94 5.07-4.54 1.99-8.94 1.72-13.04-1.12-0.9-0.62-1.48-0.59-2.33-0.08-1.13 0.68-2.38 1.11-3.68 1.4-1.44 0.32-2.88 0.37-4.27-0.11-4.19-1.46-6.59-4.53-7.75-8.7l-0.02 0.03c0.11 0.04 0.25 0.06 0.34 0.14 4.62 4.07 9.81 4.22 15.3 2.21 2.01-0.74 3.87-1.77 5.67-2.91 6.22-3.92 12.97-5.86 20.34-5.48 1.75 0.09 3.5 0.25 5.17 0.85-0.01 0.06-0.02 0.14-0.01 0.21z"/>
	<path class="st3" d="m27.02 312.08c-2.52-0.47-4.9-0.64-7.24-1.14-2.97-0.64-5.29-2.21-7.21-4.48-2.85-3.37-4.31-7.32-4.92-11.64-0.03-0.25-0.05-0.5-0.03-0.75 0.1-1.02 0.27-2.09 1.36-2.49 1-0.37 1.57 0.54 2.21 1.09 0.23 0.2 0.42 0.47 0.59 0.73 3.53 5.52 8.67 9.17 14.27 12.29 6.03 3.36 12.42 5.73 19.19 7.08 0.62 0.12 1.25 0.22 1.82 0.45 0.82 0.33 0.88 1.1 0.14 1.56-0.31 0.19-0.69 0.29-1.05 0.4-3.89 1.24-7.83 2.28-11.84 3.08-2.48 0.5-4.74-0.07-6.84-1.39-2.25-1.43-2.4-2.7-0.45-4.79z"/>
	<path class="st3" d="m27.71 99.97c0.1-0.33-0.03-0.46-0.15-0.61-1.39-1.66-1.33-2.62 0.36-3.87 2.1-1.57 4.47-2.31 7.1-1.82 4.2 0.79 8.32 1.9 12.39 3.21 0.18 0.06 0.37 0.09 0.54 0.17 0.41 0.2 0.78 0.44 0.71 0.98-0.06 0.42-0.33 0.67-0.72 0.78-0.54 0.15-1.09 0.28-1.65 0.39-9.45 1.88-18.07 5.64-25.85 11.32-2.82 2.05-5.26 4.48-7.19 7.4-0.52 0.79-1.1 1.54-1.86 2.11-1.07 0.78-1.8 0.58-2.41-0.62-0.3-0.58-0.37-1.21-0.31-1.84 0.57-5.97 2.94-11.02 7.77-14.71 2.39-1.82 5.35-2.05 8.2-2.5 1.03-0.15 2.08-0.26 3.07-0.39z"/>
	<path class="st3" d="m332.85 312.05c1.94 2.32 1.74 3.45-0.68 4.93-2 1.22-4.16 1.76-6.5 1.31-4.08-0.79-8.08-1.86-12.04-3.11-0.3-0.09-0.61-0.18-0.89-0.31-0.35-0.17-0.64-0.42-0.62-0.86 0.02-0.43 0.29-0.7 0.67-0.82 0.54-0.17 1.09-0.3 1.64-0.41 8.69-1.7 16.69-5.07 24.04-9.98 3.64-2.43 6.85-5.31 9.27-9.01 0.49-0.74 1.04-1.43 1.78-1.93 0.95-0.64 1.58-0.49 2.19 0.48 0.39 0.62 0.47 1.31 0.41 2-0.53 5.98-2.93 11-7.72 14.75-1.74 1.36-3.86 1.78-5.97 2.15-1.78 0.32-3.59 0.53-5.58 0.81z"/>
	<path class="st3" d="m330.26 99.89c2.27 0.35 4.37 0.67 6.48 0.99 3.85 0.58 6.65 2.76 8.87 5.83 2.3 3.18 3.54 6.76 3.97 10.64 0.04 0.37 0.02 0.75-0.03 1.12-0.13 0.84-0.44 1.63-1.28 1.95s-1.41-0.33-1.94-0.85c-0.44-0.44-0.85-0.93-1.19-1.45-2.39-3.63-5.54-6.48-9.12-8.88-7.34-4.92-15.32-8.29-24-10.02-0.55-0.11-1.1-0.25-1.65-0.38-0.47-0.11-0.82-0.4-0.83-0.9-0.01-0.51 0.39-0.75 0.82-0.92 0.23-0.09 0.48-0.16 0.72-0.23 3.84-1.18 7.71-2.22 11.65-3.03 2.48-0.51 4.74-0.04 6.86 1.24 2.45 1.46 2.65 2.63 0.67 4.89z"/>
	<path class="st5" d="m298.9 339.22c-0.03 0.8 0.41 1.29 0.69 1.84 0.72 1.46 1.41 2.94 2.06 4.44 1.16 2.66 1.2 5.36 0.47 8.11-1.15 4.32-3.5 7.88-6.85 10.81-0.58 0.51-1.23 0.88-1.98 1.04-1.24 0.25-1.93-0.34-1.93-1.6 0-0.83 0.25-1.61 0.57-2.37 2.54-6.05 2.43-12.37 1.87-18.72-0.6-6.81-2.37-13.32-5.09-19.59-0.1-0.23-0.19-0.47-0.27-0.7-0.19-0.55-0.35-1.12 0.25-1.52 0.54-0.36 0.97 0.05 1.35 0.34 3.49 2.77 6.95 5.59 10.03 8.83 1.44 1.53 2.02 3.45 2.17 5.5 0.18 2.67-0.6 3.51-3.34 3.59z"/>
	<path class="st5" d="m298.56 72.88c2.5-0.15 3.34 0.6 3.24 3.1-0.09 2.32-0.75 4.47-2.43 6.16-3.01 3.04-6.29 5.78-9.64 8.43-0.2 0.16-0.4 0.31-0.63 0.41-0.72 0.34-1.26 0-1.26-0.78 0-0.58 0.27-1.09 0.5-1.61 2.3-5.33 3.93-10.86 4.69-16.62 0.75-5.68 1.11-11.37-0.15-17.05-0.34-1.54-0.87-3.01-1.43-4.48-0.29-0.77-0.55-1.54-0.53-2.37 0.03-1.2 0.6-1.73 1.77-1.57 0.77 0.1 1.43 0.46 2.01 0.96 4.14 3.6 6.76 8.05 7.42 13.55 0.17 1.39-0.01 2.75-0.46 4.08-0.68 2.03-1.57 3.97-2.55 5.86-0.29 0.55-0.7 1.05-0.77 1.7-0.14 0.12-0.26 0.25-0.04 0.39 0.04 0.04 0.17-0.1 0.26-0.16z"/>
	<path class="st5" d="m60.56 72.64c-0.2-1.01-0.85-1.81-1.26-2.72-0.26-0.57-0.51-1.15-0.82-1.7-2.52-4.54-1.99-9.06 0.14-13.54 1.28-2.7 3.11-5 5.33-7 0.62-0.56 1.31-1 2.12-1.16 1.24-0.24 1.89 0.33 1.91 1.6 0.01 0.83-0.2 1.62-0.51 2.38-2.4 5.73-2.49 11.71-1.98 17.78 0.6 7.13 2.36 13.96 5.18 20.53 0.1 0.23 0.19 0.47 0.28 0.7 0.24 0.55 0.38 1.1-0.2 1.52-0.54 0.38-0.96 0-1.35-0.3-3.6-2.85-7.16-5.73-10.26-9.12-1.47-1.61-2.02-3.66-1.99-5.75 0.04-2.46 0.77-3.36 3.18-2.98 0.08 0.06 0.21 0.2 0.25 0.18 0.21-0.15 0.1-0.29-0.02-0.42z"/>
	<path class="st5" d="m61.11 339.3c-0.22-0.1-0.33-0.19-0.44-0.19-2.48 0.01-2.97-0.48-3.01-2.91-0.04-2.57 0.77-4.78 2.63-6.62 2.91-2.88 6.01-5.52 9.21-8.06 0.1-0.08 0.19-0.16 0.3-0.23 0.46-0.31 0.91-0.77 1.5-0.27 0.56 0.48 0.26 1.03 0.06 1.55-0.18 0.47-0.37 0.93-0.56 1.4-3.56 8.38-5.21 17.13-5.11 26.22 0.04 3.8 0.69 7.49 2.13 11.02 0.34 0.82 0.6 1.66 0.65 2.54 0.08 1.37-0.66 1.97-2.02 1.66-0.55-0.12-1.08-0.33-1.52-0.71-4.53-3.89-7.41-8.62-7.65-14.74-0.09-2.35 0.87-4.41 1.78-6.47 0.62-1.41 1.36-2.79 2.05-4.19z"/>


	<path class="st2" d="m314.88 213.7c-0.47 0.9-1.08 1.44-1.72 1.91-5.63 4.12-11.67 7.35-18.6 8.67-1.98 0.38-3.97 0.55-5.99 0.31-2.26-0.27-4.28-1.03-5.81-2.76-0.6-0.68-1.06-0.67-1.75-0.21-1.28 0.85-2.14 2.09-3.13 3.31-0.53-1.1-0.37-1.98 0.36-2.84 0.87-1.02 1.82-1.93 3.08-2.4 0.72-0.27 1.03-0.52 0.69-1.35-0.49-1.19-0.14-2.32 0.48-3.41 1.72-3.05 4.31-4.62 7.79-4.79 3.07-0.14 5.98 0.54 8.78 1.74 2.02 0.86 4.06 1.65 6.2 2.2 2.55 0.66 5.07 0.69 7.61-0.07 0.59-0.17 1.15-0.56 2.01-0.31z"/>
	<path class="st2" d="m81.32 224.95c-1.03-1.35-1.87-2.52-3.12-3.31-0.58-0.36-1.04-0.55-1.62 0.09-2.19 2.46-5.11 3.04-8.23 2.98-2.21-0.04-4.37-0.48-6.49-1.06-5.72-1.56-10.79-4.42-15.56-7.85-0.74-0.53-1.54-1.08-1.85-2.03 0.5-0.36 0.89-0.06 1.28 0.07 3.09 1.05 6.17 0.94 9.26-0.02 1.8-0.56 3.55-1.25 5.29-1.99 2.75-1.17 5.61-1.82 8.62-1.69 3.57 0.15 6.2 1.8 7.91 4.93 0.57 1.03 0.89 2.12 0.41 3.25-0.34 0.8-0.08 1.11 0.65 1.39 1.07 0.42 1.91 1.18 2.74 1.97 0.88 0.85 1.26 1.8 0.71 3.27z"/>
	<path class="st0" d="m318.1 162.08c-0.37 0.96-1.52 1.48-1.51 2.66-1.36-0.19-1.51-0.11-1.87 1.02-0.35 0.25-0.34 0.64-0.43 1-1.77 7.07-4.87 13.56-8.74 19.7-2.38 3.77-6.07 5.7-10.17 7-0.41 0.13-0.87 0.15-1.3 0.15-1.18 0-1.56-0.37-1.66-1.55-0.11-1.28 0.21-2.5 0.57-3.7 0.7-2.35 1.62-4.61 2.67-6.83 0.23-0.5 0.65-0.94 0.55-1.56l-0.02 0.04c0.64-0.48 1.26-0.98 1.16-1.91l-0.03 0.03c0.36 0.09 0.45-0.1 0.41-0.41l-0.03 0.03c0.31 0.04 0.43-0.12 0.41-0.41l-0.03 0.03c0.29 0.02 0.42-0.13 0.41-0.41l-0.03 0.03c0.28 0.01 0.41-0.14 0.41-0.41l-0.03 0.03c0.26-0.01 0.4-0.14 0.41-0.41l-0.03 0.03c0.26-0.01 0.4-0.15 0.41-0.41l-0.03 0.03c0.24-0.04 0.37-0.17 0.41-0.41l-0.04 0.03c0.53-0.09 0.79-0.59 1.22-0.82 1.93-2.07 4.26-3.69 6.31-5.61 1.5-1.4 3.34-2.44 4.56-4.16l-0.01 0.01c0.23-0.01 0.37-0.14 0.46-0.34 0.43-0.27 0.84-0.52 0.75-1.15-0.09-0.61-0.12-1.23-0.18-1.84 0.59-0.25 0.99-0.68 1.26-1.25 0.41-0.23 0.84-0.39 1.32-0.34 0.53 0.14 1.06 0.29 1.59 0.43 0.22 0.61 0.27 1.28 0.85 1.68z"/>
	<path class="st0" d="m42.92 164.24c-0.8-0.55-1.06-1.54-1.77-2.16 0.84-0.22 0.68-1.07 1.01-1.61 1.57-0.39 1.15-1.72 1.3-2.77 0.29 0.37 0.27 0.82 0.26 1.25-0.03 1.09 0.56 1.43 1.54 1.34 0.06 0.72 0.39 1.19 1.16 1.24-0.16 1.03-0.98 2.14 0.36 2.99 0.15 0.31 0.39 0.46 0.73 0.44h-0.01c0.02 0.34 0.2 0.58 0.44 0.79 1.9 1.61 3.84 3.19 5.7 4.85 2.51 2.24 5.22 4.26 7.46 6.79 0.08 0.19 0.21 0.33 0.43 0.35l-0.03-0.03c0.03 0.24 0.15 0.4 0.41 0.41l-0.03-0.03c0.02 0.25 0.12 0.43 0.41 0.41l-0.03-0.03c0.08 0.74 0.22 1.44 1.16 1.52l-0.03-0.02c-0.38 0.69 0.18 1.18 0.41 1.71 1.05 2.36 2.04 4.73 2.73 7.22 0.27 0.97 0.49 1.96 0.46 2.97-0.04 1.34-0.56 1.79-1.89 1.74-0.44-0.02-0.88-0.08-1.3-0.21-4.47-1.38-8.19-3.74-10.62-7.9-3.57-6.1-6.62-12.41-8.25-19.34-0.15-1.56-0.15-1.56-2.01-1.92z"/>
	<path class="st7" d="m46.42 161.53c-0.77-0.05-1.1-0.52-1.16-1.24 0.56-0.98 1.15-1.94 1.88-2.82 0.13-0.17 0.27-0.34 0.4-0.51l-0.01 0.01c0.33-0.15 0.43-0.41 0.38-0.75l0.01-0.01c0.4-0.11 0.46-0.39 0.37-0.74l0.02-0.03c0.27 0.03 0.36-0.11 0.35-0.36l0.01-0.02c0.21 0.05 0.34-0.04 0.39-0.24 2.39-3.53 4.85-7.02 7.59-10.29 3.62-4.32 8.52-6.51 13.74-8.08 2.1-0.63 3.09 0.31 2.7 2.44-0.87 4.67-2.68 8.86-6.59 11.89-3.99 3.08-8.24 5.72-12.73 7.99-0.61 0.31-1.24 0.56-1.86 0.83-0.57 0.33-1.47 0.11-1.72 0.99-1.28 0.25-2.45 0.88-3.77 0.94z"/>
	<path class="st7" d="m314.35 160.32c-0.28 0.56-0.68 1-1.26 1.25-1.14-0.02-2.16-0.5-3.21-0.84-0.68-0.55-1.43-0.94-2.3-1.08-5.81-2.61-11.28-5.81-16.02-10.06-3.19-2.86-4.74-6.73-5.21-10.97-0.23-2.03 0.53-2.59 2.59-2.2 2.24 0.44 4.24 1.51 6.27 2.48 3.59 1.7 6.54 4.12 8.92 7.31 1.94 2.61 3.89 5.22 5.69 7.93 0.32 0.49 0.42 1.16 1.13 1.31l0.01 0.02c-0.01 0.24 0.1 0.38 0.36 0.37l0.01 0.02c-0.06 0.43 0.08 0.7 0.54 0.75 0.72 1.31 1.48 2.59 2.48 3.71z"/>


	<path class="st8" d="m314.35 160.32c-1-1.12-1.76-2.41-2.47-3.72-0.12-0.29-0.16-0.65-0.54-0.75l-0.01-0.02c0.01-0.25-0.04-0.44-0.36-0.37l-0.01-0.02c0.26-0.58-0.06-1-0.41-1.4-2.21-4.44-3.76-9.12-5.09-13.89-1.17-4.19-0.68-8.19 1.01-12.11 0.35-0.8 0.78-1.58 1.29-2.28 0.85-1.16 1.61-1.21 2.67-0.28 0.23 0.21 0.47 0.43 0.64 0.69 2.73 4.04 4.94 8.34 5.43 13.25 0.33 3.3 0.19 6.64-0.15 9.96-0.3 1.26-0.22 2.54-0.18 3.82-0.17 2.26-0.33 4.52-0.5 6.78-0.48-0.05-0.9 0.12-1.32 0.34z"/>
	<path class="st9" d="m43.46 157.7c-0.16 1.05 0.27 2.38-1.3 2.77-1.67-2.02-3.13-4.23-5.16-5.93 0.03-0.31-0.04-0.55-0.41-0.58l0.02 0.03c0.03-0.3-0.06-0.47-0.4-0.4l0.02 0.02c0.07-0.34-0.02-0.51-0.4-0.4l0.02 0.01c0.29-0.76-0.38-1.13-0.71-1.6-1.12-1.58-2.27-3.15-3.46-4.68-2.62-3.36-3.87-7.25-4.49-11.4-0.25-1.68-0.48-3.35-0.42-5.05 0.02-0.5 0.03-1.01 0.15-1.49 0.33-1.27 0.99-1.64 2.23-1.29 0.42 0.12 0.83 0.3 1.21 0.51 3.98 2.15 7.14 5.06 8.73 9.43 1.35 3.71 2.48 7.49 3.25 11.36 0.46 1.75 0.42 3.6 1 5.33 0.05 1.11 0.09 2.24 0.12 3.36z"/>
	<path class="st10" d="m314.73 165.76c0.35-1.12 0.5-1.2 1.87-1.02 2.93 3.89 5.53 7.98 7.71 12.33 0 0.12 0.06 0.17 0.18 0.16l0.15 0.45c-0.02 0.21 0.06 0.35 0.27 0.4l0.03 0.03c-0.1 0.6 0.13 1.08 0.52 1.5 0.15 0.21 0.22 0.54 0.6 0.39l-0.02-0.02c-0.37 0.81 0.18 1.44 0.45 2.09 1.19 2.87 2.13 5.77 1.82 8.95-0.23 2.33-0.64 4.61-1.7 6.71-0.91 1.81-1.87 1.97-3.38 0.63-0.85-0.76-1.51-1.68-2.16-2.61-1.4-2.02-2.58-4.16-3.68-6.35-1.36-2.71-1.62-5.67-1.84-8.6-0.37-5.01-0.56-10.03-0.82-15.04z"/>
	<path class="st8" d="m43.46 157.7c-0.03-1.12-0.07-2.24-0.1-3.37 0.18-1.9-0.19-3.76-0.36-5.63-0.15-3.01-0.38-6.02-0.14-9.04 0.15-1.84 0.54-3.59 1.23-5.29 1.06-2.62 2.13-5.24 3.76-7.58 1.86-2.66 3.16-2.62 4.57 0.25 1.96 3.98 2.85 8.11 1.64 12.58-1.32 4.93-2.99 9.72-5.15 14.34-0.33 0.32-0.57 0.65-0.25 1.11l-0.01 0.02c-0.36-0.12-0.37 0.11-0.35 0.36l-0.02 0.03c-0.41 0.1-0.45 0.39-0.37 0.74l-0.01 0.01c-0.43 0.1-0.44 0.4-0.38 0.75l0.01-0.01c-0.3 0.04-0.37 0.26-0.4 0.51-0.72 0.87-1.32 1.83-1.88 2.82-0.98 0.09-1.57-0.25-1.54-1.34 0.03-0.44 0.05-0.89-0.25-1.26z"/>
	<path class="st10" d="m34.36 178.32c2.45-4.39 4.72-8.88 7.9-12.82 0.21-0.12 0.41-0.26 0.63-0.36 1.18-0.58 1.44-0.41 1.68 1.04-0.18 5.15-0.47 10.29-0.78 15.44-0.37 6.27-3.2 11.43-7.06 16.11-1.91 2.32-3.25 2.03-4.3-0.75-1.57-4.17-2.03-8.38-0.39-12.69 0.77-2 1.83-3.87 2.32-5.97z"/>
	<path class="st9" d="m315.68 159.99c0.17-2.26 0.33-4.52 0.5-6.78 0.53-1.1 0.49-2.31 0.71-3.47 0.87-4.5 2.09-8.9 3.86-13.14 1.66-3.97 4.78-6.51 8.45-8.49 0.33-0.18 0.69-0.3 1.05-0.4 1.26-0.34 1.88 0.02 2.2 1.31 0.21 0.85 0.31 1.72 0.23 2.61-0.26 2.81-0.78 5.58-1.43 8.32-0.47 1.98-1.42 3.74-2.53 5.43-1.68 2.57-3.54 5.02-5.44 7.43-0.38 0.48-0.92 0.87-1.01 1.55l0.02-0.03c-0.22 0.05-0.34 0.2-0.39 0.41l0.02-0.03c-0.39 0.23-0.62 0.59-0.8 0.98-0.04 0.08-0.09 0.14-0.17 0.18l-0.05 0.08c-1.21 1.49-2.41 2.97-3.62 4.46-0.54-0.14-1.07-0.28-1.6-0.42z"/>

	<path class="st11" d="m60.59 269.85c0.43-2.14 0.81-4.11 1.36-6.04 0.71-2.51 2.12-4.5 4.2-6.07 3.32-2.5 7.05-3.76 11.19-3.88 0.31-0.01 0.63 0 0.94 0.04 0.87 0.1 1.62 0.49 1.88 1.34 0.23 0.77-0.43 1.25-0.94 1.71-0.37 0.33-0.79 0.62-1.23 0.86-3.76 2.07-6.72 5.03-9.27 8.42-4.54 6.03-7.93 12.63-9.91 19.93-0.16 0.6-0.37 1.2-0.58 1.79-0.13 0.37-0.37 0.67-0.82 0.65-0.44-0.02-0.68-0.35-0.77-0.72-0.39-1.58-0.79-3.17-1.09-4.77-0.41-2.16-0.72-4.33-1.08-6.49-0.34-2.08 0.14-3.98 1.22-5.76 1.48-2.4 2.53-2.65 4.9-1.01z"/>
	<path class="st11" d="m298.89 270.06c1.86-1.84 2.84-1.81 4.28 0.08 1.17 1.53 1.91 3.25 1.78 5.24-0.27 4.15-1.21 8.19-2.13 12.24-0.11 0.47-0.26 1.03-0.94 0.99-0.53-0.04-0.7-0.47-0.83-0.9-0.22-0.72-0.45-1.44-0.65-2.16-2.2-7.66-5.88-14.54-10.88-20.73-2.23-2.76-4.81-5.14-7.94-6.88-0.72-0.4-1.4-0.86-1.92-1.5-0.72-0.88-0.59-1.57 0.38-2.17 0.56-0.35 1.18-0.41 1.82-0.4 4.63 0.09 8.74 1.59 12.27 4.62 1.57 1.35 2.6 3.03 3.21 5.01 0.63 2.08 0.98 4.25 1.55 6.56z"/>

	<path class="st2" d="m331.72 87.45c-12.53 0.73-24.4 3.95-35.6 9.58-6.16 3.1-11.62 7.24-16.95 11.56-1.81 1.47-4.79 1.59-6.81 0.28 0-0.35 0.21-0.57 0.45-0.78 6.01-5.17 12.13-10.18 18.92-14.33 5.9-3.6 12.33-5.62 19.12-6.55 6.81-0.93 13.65-1.11 20.51-0.4 0.12 0.22 0.24 0.43 0.36 0.64z"/>
	<path class="st2" d="m87.08 303.23c-0.09 0.14-0.16 0.32-0.29 0.44-5.91 5.09-11.92 10.04-18.56 14.18-6.14 3.83-12.84 5.99-19.96 6.94-6.19 0.82-12.4 1.04-18.63 0.51-0.53-0.05-1.09 0.04-1.7-0.36 0.46-0.63 1.06-0.49 1.56-0.53 9.47-0.75 18.57-3.01 27.39-6.54 8.51-3.4 15.99-8.42 22.97-14.25 2.14-1.79 4.36-1.53 6.73-0.95 0.11 0.03 0.22 0.13 0.3 0.22 0.07 0.08 0.11 0.2 0.19 0.34z"/>
	<path class="st2" d="m27.5 86.83c9.19-0.83 18.31-0.48 27.31 1.74 5.62 1.39 10.69 3.96 15.47 7.15 5.65 3.78 10.88 8.09 16 12.54 0.14 0.12 0.23 0.28 0.34 0.42-0.08 0.56-0.51 0.69-0.93 0.78-2.34 0.46-4.46 0.46-6.51-1.26-5.83-4.9-12.03-9.26-19-12.45-10.5-4.8-21.49-7.65-33.03-8.29 0.12-0.22 0.23-0.43 0.35-0.63z"/>
	<path class="st12" d="m46.42 161.53c1.31-0.06 2.49-0.68 3.76-0.93 0.61-0.07 1.23-0.08 1.77-0.42 2.83-0.52 5.68-0.93 8.56-1.08 4.84-0.25 9.5 0.57 14.07 2.09 0.95 0.32 1.86 0.76 2.67 1.38 1.8 1.41 1.73 2.82-0.22 3.99-1.36 0.81-2.87 1.28-4.39 1.67-2.99 0.78-6.03 1.21-9.11 1.43-1.72 0.12-3.37-0.32-5-0.78-2-0.56-3.94-1.29-5.85-2.07-0.19-0.14-0.38-0.22-0.58-0.04l-0.02-0.01c-0.09-0.43-0.44-0.33-0.72-0.36l-0.05-0.04c-0.05-0.08-0.11-0.14-0.19-0.18-1.25-0.29-2.22-1.39-3.62-1.23h0.01c-0.1-0.39-0.4-0.44-0.73-0.44-1.34-0.84-0.51-1.95-0.36-2.98z"/>
	<path class="st2" d="m331.84 324.99c-0.54 0.14-0.76 0.24-1 0.25-9.08 0.73-18.08 0.29-26.94-2-5.48-1.42-10.41-4.03-15.07-7.17-5.38-3.62-10.37-7.74-15.28-11.95-0.32-0.28-0.86-0.52-0.74-1.01 0.14-0.56 0.76-0.64 1.24-0.71 2.21-0.3 4.23-0.28 6.15 1.38 10.75 9.3 23.13 15.45 36.99 18.61 4.23 0.97 8.52 1.59 12.84 1.98 0.52 0.06 1.1-0.05 1.81 0.62z"/>
	<path class="st12" d="m309.88 160.73c1.05 0.34 2.07 0.82 3.21 0.84 0.06 0.62 0.09 1.23 0.18 1.84 0.09 0.63-0.32 0.88-0.75 1.15-0.23 0.01-0.4 0.1-0.46 0.34l0.01-0.01c-1.56 0.05-2.81 0.95-4.19 1.5-0.29 0.03-0.62-0.02-0.71 0.38l-0.02 0.01c-0.23-0.14-0.43-0.11-0.63 0.06-1.94 0.89-3.98 1.5-6 2.16-3.55 1.15-7.08 0.51-10.6-0.08-2.23-0.37-4.43-0.88-6.5-1.83-1.12-0.51-2.54-0.97-2.55-2.46-0.01-1.5 1.29-2.2 2.48-2.81 2.37-1.2 4.96-1.72 7.55-2.21 5.65-1.08 11.23-0.53 16.79 0.64 0.7 0.28 1.41 0.56 2.19 0.48z"/>
	<path class="st8" d="m329.17 268.69c1.23-1.1 2.32-2.04 3.36-3.03 3.52-3.37 7.71-3.93 12.26-2.91 2.16 0.48 4.19 1.32 6.05 2.53 0.42 0.27 0.85 0.56 1.18 0.92 0.52 0.56 0.99 1.23 0.63 2.03-0.33 0.72-1.1 0.74-1.79 0.79-0.31 0.02-0.63 0.04-0.94 0-6.54-0.78-12.55 1.11-18.44 3.63-4.65 1.99-8.92 4.6-12.86 7.76-0.49 0.39-0.98 0.82-1.55 1.05-0.56 0.23-0.99-0.07-0.95-0.74 0.02-0.31 0.12-0.62 0.25-0.9 1.45-3.34 2.9-6.67 4.71-9.84 1.02-1.79 2.58-2.89 4.48-3.53 2.21-0.75 3.05-0.24 3.61 2.24z"/>
	<path class="st8" d="m30.33 268.87c0.38-2.62 1.13-3.13 3.32-2.47 1.92 0.58 3.53 1.63 4.56 3.41 1.89 3.26 3.41 6.7 4.87 10.17 0.19 0.46 0.48 0.97-0.03 1.38-0.48 0.38-0.94 0.09-1.36-0.23-0.54-0.43-1.09-0.85-1.64-1.27-6.8-5.27-14.38-8.88-22.83-10.6-2.17-0.44-4.36-0.5-6.56-0.31-0.94 0.08-1.88 0.18-2.82-0.01-1.11-0.23-1.45-0.9-1.03-1.93 0.24-0.6 0.68-1.05 1.22-1.4 3.93-2.53 8.14-3.81 12.87-3.08 1.81 0.28 3.31 1.1 4.73 2.16 1.6 1.2 3.03 2.61 4.7 4.18z"/>


	<path class="st3" d="m37 154.54c2.03 1.71 3.49 3.91 5.16 5.93-0.33 0.54-0.17 1.39-1.01 1.61-3.12-1.02-6.39-1-9.6-1.34-1.06-0.57-2.25-0.75-3.39-1.09-4.7-1.42-8.86-3.84-12.69-6.86-0.94-0.74-1.8-1.57-2.45-2.6-1.33-2.12-0.67-3.53 1.78-3.8 1.76-0.19 3.52-0.09 5.27 0.13 1.12 0.14 2.22 0.42 3.34 0.6 4.33 0.71 8.17 2.42 11.35 5.49 0.3 0.29 0.57 0.7 1.1 0.6l-0.02-0.01c-0.04 0.3 0.11 0.42 0.4 0.4l-0.02-0.02c-0.02 0.29 0.12 0.41 0.4 0.4l-0.02-0.03c-0.01 0.29 0.2 0.44 0.4 0.59z"/>
	<path class="st3" d="m317.27 160.41c1.21-1.49 2.41-2.97 3.62-4.46 0 0 0.06-0.08 0.06-0.08 0.08-0.04 0.13-0.1 0.17-0.18 0.38-0.23 0.79-0.44 0.8-0.98l-0.02 0.03c0.28 0 0.43-0.12 0.39-0.41l-0.02 0.03c0.73 0.01 1.08-0.59 1.5-1.01 5.6-5.63 12.67-6.98 20.2-7 1.12 0 2.37 0.06 2.91 1.29 0.53 1.21-0.22 2.19-0.9 3.08-0.88 1.15-2 2.07-3.16 2.93-4.23 3.14-8.86 5.42-13.99 6.68-0.36 0.09-0.75 0.1-1.04 0.39-3.25 0.3-6.53 0.38-9.68 1.35-0.59-0.39-0.64-1.06-0.84-1.66z"/>
	<path class="st1" d="m184.22 370.12c-0.21-0.63-0.62-1.13-1.02-1.64-0.22-0.44-0.43-0.89-0.66-1.33-1.04-1.92-2.08-3.84-2.57-6 0.02-0.51 0.03-1.01 0.05-1.52 13.14 4.66 21.49 13.99 26.53 27.11-2.26-0.6-3.98-1.48-5.68-2.36-5.3-2.75-9.98-6.3-13.87-10.85-0.36-0.43-0.78-0.81-1.18-1.21-0.95-0.43-0.74-1.7-1.6-2.2z"/>
	<path class="st6" d="m186.04 38.86c1.75-1.33 3.02-3.14 4.68-4.58 4.07-3.53 8.56-6.36 13.53-8.42 0.51-0.21 1-0.5 1.58-0.46 0.32 0.48-0.03 0.86-0.18 1.23-4.36 11.04-11.67 19.37-22.54 24.39-1.02 0.47-2.09 0.84-3.14 1.28-0.44 0.18-0.84 0.23-1.18-0.18 0.49-0.31 0.45-0.81 0.48-1.29 1.26-2.53 2.51-5.06 3.77-7.6 0.53-0.47 0.76-1.13 1.06-1.73 0.58-0.3 1.06-0.68 1.19-1.38 0.34-0.22 0.64-0.47 0.75-0.88 0-0.13 0.01-0.27 0.01-0.4z"/>
	<path class="st1" d="m179.28 50.83c-0.03 0.48 0.01 0.98-0.48 1.29-2.47-0.59-4.69-1.78-6.84-3.06-8.99-5.32-15.14-13.01-18.83-22.73-0.1-0.27-0.34-0.54-0.03-0.98 0.53 0.18 1.11 0.35 1.67 0.58 6.35 2.65 11.89 6.45 16.57 11.5 0.4 0.43 0.62 1.25 1.49 1.06l-0.01-0.02c-0.31 0.8 0.36 1.1 0.78 1.53l-0.03-0.03c0.07 0.19 0.16 0.35 0.38 0.39 0.03 0.73 0.55 1.11 1.05 1.51 0.18 0.57 0.52 1.04 0.91 1.48 1.18 2.47 2.63 4.82 3.37 7.48z"/>
	<path class="st6" d="m180.02 359.63c-0.02 0.51-0.03 1.01-0.05 1.52-0.37 0.18-0.5 0.55-0.62 0.88-0.84 2.33-2.11 4.46-3.16 6.69-0.51 0.49-0.84 1.1-1.08 1.76-0.31 0.2-0.42 0.47-0.3 0.83l0.05 0.06c-0.88 0.03-0.93 0.84-1.27 1.37-0.21 0.06-0.44 0.1-0.39 0.41l0.02-0.02c-0.71 0.1-0.95 0.76-1.36 1.2-4.78 5.21-10.47 9.13-17.01 11.81-0.35 0.14-0.7 0.28-1.05 0.4-0.11 0.04-0.24 0.04-0.36 0.05-0.29-0.27-0.16-0.56-0.04-0.86 4.8-12.32 13.05-21.24 25.57-25.96 0.33-0.12 0.66-0.31 1.05-0.14z"/>
	<path class="st10" d="m179.28 50.83c-0.74-2.67-2.18-5.02-3.38-7.48-0.3-2.66-0.86-5.3-0.98-7.99-0.07-1.5-0.14-2.99 0.09-4.48-0.06-1.85 0.49-3.64 0.53-5.49 0.75-2.79 1.41-5.6 2.5-8.28 0.42-1.04 0.81-2.1 1.55-3.34 2.55 5.22 3.83 10.51 4.33 16.02 0.09 0.63 0.19 1.27 0.29 1.9l-0.06 4.2-0.07 0.11-0.08 0.01 0.08 0.01 0.06 1.29c-0.3 0.19-0.32 0.48-0.27 0.79-0.27 1.71-0.54 3.42-0.82 5.12-1.26 2.55-2.52 5.08-3.77 7.61z"/>
	<path class="st10" d="m176.18 368.73c1.06-2.23 2.32-4.36 3.16-6.69 0.12-0.34 0.26-0.7 0.62-0.88 0.48 2.16 1.53 4.08 2.57 6.01 0.24 0.44 0.44 0.89 0.66 1.33 0.91 4.2 1.21 8.45 1.07 12.73-0.03 1.82-0.63 3.6-0.54 5.44-0.62 1.17-0.69 2.51-1.07 3.75-0.77 2.57-1.63 5.1-2.86 7.53-1.64-1.76-3.86-9.01-4.35-14.13-0.14-1.03 0.25-2.13-0.4-3.1 0.01-1.89 0.03-3.78 0.04-5.67 0.26-0.22 0.33-0.49 0.2-0.8 0.32-1.85 0.61-3.69 0.9-5.52z"/>
	<path class="st8" d="m239.58 73.21c-0.18 0.42 0.18 0.52 0.4 0.7 2.59 2.09 5.13 4.26 7.31 6.79 2.83 3.28 4.19 7.25 4.94 11.44 0.31 1.72-0.5 2.42-2.17 1.98-3.73-0.99-6.94-2.8-9.26-6.03-3.04-4.22-5.12-8.88-6.84-13.74 0.1-0.66-0.29-1.2-0.45-1.8-0.27-1.03-0.71-2.01-0.59-3.11 0.34-0.16 0.68-0.31 1.02-0.47 0.95 0.78 1.89 1.57 2.84 2.35 0.13 0.22 0.29 0.38 0.56 0.39v0.01c0.11 0.4 0.34 0.56 0.74 0.38l0.01 0.01c-0.09 0.33 0.06 0.43 0.36 0.36l0.01-0.02c-0.02 0.29 0.14 0.4 0.41 0.41l-0.03-0.02c0.15 0.35 0.27 0.74 0.78 0.41z"/>
	<path class="st8" d="m234.29 337.99c-0.05-1.06 0.66-1.86 1.01-2.78 1.54-3.99 3.44-7.8 5.93-11.3 2.31-3.24 5.52-5.06 9.26-6.05 1.66-0.44 2.45 0.26 2.18 1.99-0.61 3.83-1.89 7.48-4.24 10.56-2.48 3.25-5.66 5.87-8.92 8.33-0.57 0.19-1.14 0.39-1.04 1.18l-0.01 0.01c-0.39-0.16-0.62 0-0.74 0.38-0.27 0.01-0.43 0.18-0.57 0.39l-2.79 2.34c-0.34-0.16-0.68-0.32-1.03-0.48-0.12-1.61 0.88-3 0.96-4.57z"/>
	<path class="st8" d="m121.14 339.97c-0.62-1.36-2.06-1.87-3.01-2.89-1.06-1.14-2.28-2.16-3.48-3.15-4.01-3.32-5.97-7.79-7.26-12.66-0.2-0.74-0.29-1.48-0.21-2.23 0.1-0.96 0.52-1.3 1.49-1.27 0.31 0.01 0.62 0.07 0.92 0.16 3.84 1.12 7.14 3.02 9.33 6.51 2.67 4.27 4.87 8.75 6.41 13.55 0.23 1.55 1.14 2.95 0.98 4.58-0.35 0.16-0.7 0.31-1.04 0.47-1.16-0.89-2.31-1.79-3.47-2.68-0.11-0.33-0.34-0.46-0.68-0.42z"/>
	<path class="st8" d="m124.93 73.97c-1.03 3.02-2.26 5.95-3.72 8.79-0.87 1.67-1.79 3.31-2.8 4.9-2.18 3.42-5.44 5.3-9.23 6.37-1.99 0.56-2.54 0.05-2.43-2 0.02-0.44 0.05-0.89 0.17-1.3 1.3-4.57 2.95-8.94 6.73-12.15 1.48-1.26 2.9-2.59 4.33-3.91 0.35-0.33 0.89-0.51 0.95-1.09h-0.04c0.75-0.07 1.15-0.59 1.51-1.16l-0.03 0.03c0.24-0.03 0.4-0.14 0.41-0.41v0.03c0.68 0.16 0.93-0.42 1.3-0.78 0.88-0.83 1.73-1.69 2.76-2.34 0.35 0.16 0.69 0.33 1.04 0.49 0.12 1.6-0.84 2.98-0.95 4.53z"/>
	<path class="st13" d="m236.78 71.3c-0.95-0.78-1.89-1.57-2.84-2.35 0.19-0.49 0.38-0.98 0.57-1.48 1.68 0.17 3.34 0.5 5.05 0.38 0.87-0.06 1.71-0.47 2.6-0.25 2.2 0.58 4.47 0.53 6.71 0.63 5.29 0.24 9.56 2.72 13.59 5.82 0.15 0.11 0.27 0.26 0.4 0.4 1.22 1.35 1.14 2.16-0.46 2.91-3.09 1.45-6.36 2.03-9.7 1.2-4.04-1-7.74-2.89-11.41-4.82-0.53-0.28-1-0.82-1.71-0.54l0.04 0.01c-0.08-0.48-0.38-0.53-0.78-0.41l0.03 0.02c0.05-0.32-0.15-0.39-0.41-0.41l-0.01 0.02c-0.02-0.22-0.16-0.32-0.36-0.36l-0.01-0.01c-0.17-0.28-0.42-0.39-0.74-0.38v-0.01c-0.1-0.23-0.31-0.33-0.56-0.37z"/>
	<path class="st8" d="m242.16 67.6c-0.89-0.22-1.73 0.19-2.6 0.25-1.71 0.12-3.37-0.2-5.05-0.38-0.18-0.46-0.25-0.93-0.13-1.42 1.47-0.81 2.93-1.64 4.21-2.75 0.17-0.04 0.31-0.11 0.31-0.31l-0.03 0.05c0.32-0.04 0.63-0.09 0.78-0.43l-0.03 0.03c0.33-0.01 0.64-0.03 0.79-0.4l-0.03 0.02c0.61-0.24 1.29-0.38 1.54-1.13l0.02 0.05c0.42 0.08 0.7-0.21 1.02-0.4 0.86-0.51 1.75-1 2.58-1.56 4.54-3.08 9.65-3.71 14.95-3.42 2.84 0.15 3.39 1.25 1.79 3.56-2.14 3.08-4.86 5.36-8.61 6.3-3.8 0.94-7.62 1.66-11.51 1.94z"/>
	<path class="st5" d="m218.87 354.65c-1.23-0.12-2.1 0.73-3.06 1.24-3.48 1.84-7.1 1.95-10.81 1.05-2.86-0.7-3.21-1.88-1.15-3.95 4.12-4.14 9.01-6.71 14.89-7.38 3.37-0.38 6.71-0.98 10.06-1.48 0.37-0.05 0.76-0.05 1.03-0.37 0.26-0.02 0.53-0.05 0.79-0.07 0.35 0.62 0.39 1.26 0.16 1.92-3.47 3.29-7.5 5.84-11.33 8.67-0.3-0.01-0.58 0.01-0.6 0.4z"/>
	<path class="st5" d="m130.22 343.76c1.75 0.97 3.74 0.78 5.61 1.08 3.46 0.57 6.96 0.93 10.33 1.94 4.01 1.2 7.15 3.8 10.07 6.67 0.09 0.09 0.16 0.19 0.23 0.29 1.02 1.44 0.81 2.25-0.82 2.87-1.96 0.75-4.02 0.89-6.1 0.86-2.4-0.04-4.5-0.98-6.58-2.02-0.7-0.35-1.31-1.01-2.21-0.8l0.01 0.04c-0.02-0.4-0.3-0.42-0.6-0.4-2.54-1.82-5.1-3.61-7.61-5.47-1.35-1-2.37-2.42-3.89-3.22-0.04-0.63-0.01-1.25 0.15-1.86 0.47 0.08 0.93 0.28 1.41 0.02z"/>
	<path class="st13" d="m234.37 343.04 2.79-2.34c0.25-0.04 0.46-0.14 0.57-0.39 0.32 0.01 0.58-0.09 0.74-0.38l0.01-0.01c0.37 0.01 0.67-0.17 0.92-0.42 3.67-2.05 7.42-3.9 11.35-5.4 3.69-1.42 7.36-1.32 11.01 0.02 2.91 1.07 3.16 2.27 0.75 4.12-4.09 3.13-8.51 5.51-13.87 5.53-1.5 0.01-3 0.21-4.49 0.33-1.12 0.04-2.23 0.08-3.35 0.12-1.93-0.19-3.84-0.02-5.74 0.31-0.24-0.5-0.47-0.99-0.69-1.49z"/>
	<path class="st8" d="m118.49 350.11c-0.55-0.01-0.91 0.39-1.33 0.64-1.08 0.64-2.18 1.26-3.21 1.96-4.47 3.04-9.49 3.73-14.73 3.49-1.06-0.05-2.32 0-2.85-1.07-0.54-1.11 0.38-2.03 1-2.86 2.13-2.91 4.8-5.06 8.4-5.96 3.23-0.81 6.49-1.4 9.79-1.8 1.22 0.03 2.44 0.11 3.62-0.29 1.82-0.16 3.62-0.09 5.41 0.31 0.38 0.41 0.37 0.9 0.24 1.4-1.66 1.03-3.32 2.06-4.98 3.1-0.25 0.15-0.54 0.32-0.41 0.7-0.5-0.3-0.76 0.01-0.98 0.4z"/>
	<path class="st8" d="m235.04 344.52c1.9-0.33 3.81-0.5 5.74-0.31 1.19 0.41 2.42 0.32 3.64 0.3 3.42 0.42 6.81 1.01 10.13 1.93 3.71 1.02 6.3 3.47 8.41 6.54 0.14 0.21 0.26 0.43 0.36 0.66 0.56 1.32 0.26 1.96-1.16 2.35-0.54 0.14-1.11 0.19-1.67 0.22-5.3 0.22-10.35-0.57-14.87-3.64-1.17-0.79-2.33-1.68-3.73-2.1l0.01 0.03c-0.32-0.64-0.96-0.85-1.55-1.13l0.04 0.02c-0.19-0.27-0.49-0.36-0.8-0.4l0.05 0.03c-0.21-0.11-0.42-0.23-0.63-0.34-1.28-1.12-2.75-1.94-4.22-2.77-0.11-0.5-0.13-0.98 0.25-1.39z"/>
	<path class="st5" d="m141.12 56.97c0.95 0.07 1.64-0.56 2.4-0.95 3.49-1.81 7.11-1.82 10.82-0.94 0.24 0.06 0.48 0.13 0.72 0.22 1.86 0.71 2.06 1.48 0.82 3.1-0.85 1.11-2 1.9-3.04 2.8-3.55 3.05-7.75 4.55-12.33 5.16-3.48 0.46-6.96 0.99-10.44 1.5-1.73-0.06-1.75-0.07-1.41-1.48 0.13-0.14 0.25-0.27 0.38-0.41 0.52-0.53 0.99-1.12 1.56-1.6 2.89-2.45 6.15-4.41 9.19-6.65 0.29 0 0.57-0.02 0.6-0.41l-0.03 0.02c0.4 0.14 0.69 0.06 0.78-0.4z"/>
	<path class="st13" d="m124.84 68.95c-1.03 0.65-1.88 1.51-2.76 2.34-0.57 0.02-1.04 0.23-1.3 0.78v-0.03c-0.22 0.05-0.41 0.14-0.41 0.41l0.03-0.03c-0.71 0.12-1.53 0.09-1.51 1.16h0.04c-0.78-0.53-1.29 0.19-1.83 0.47-2.79 1.45-5.65 2.72-8.58 3.86-3.77 1.47-7.5 1.25-11.2-0.19-2.52-0.98-2.76-2.2-0.6-3.86 4.09-3.13 8.48-5.54 13.86-5.68 2.04-0.05 4.14 0.01 6.14-0.6 2.48 0.3 4.96 0.4 7.43-0.13 0.23 0.5 0.46 1 0.69 1.5z"/>
	<path class="st8" d="m124.15 67.46c-2.47 0.53-4.95 0.44-7.43 0.13-4.25-0.33-8.45-1.02-12.53-2.29-3.54-1.1-6.01-3.54-7.9-6.59-1.01-1.64-0.53-2.67 1.43-2.81 4.52-0.32 9.04-0.29 13.19 1.95 1.6 0.86 3.15 1.81 4.73 2.7 0.43 0.24 0.77 0.66 1.33 0.62v-0.04c0.45 0.69 1.04 1.15 1.91 1.14l-0.03-0.03c-0.1 0.33 0.17 0.39 0.37 0.49 1.68 1.22 3.41 2.36 5.24 3.36 0.14 0.51-0.03 0.95-0.31 1.37z"/>
	<path class="st1" d="m229.45 70.92c-1.08 0.64-2 1.48-2.88 2.36-2.22 2.2-4.51 4.33-6.85 6.42-2.72 2.43-6.05 3.46-9.43 4.39-1.63 0.45-3.3 0.64-4.99 0.71-1.06-0.59-1.26-1.41-0.83-2.53 1.22-3.18 2.96-6.05 5.98-7.75 5.62-3.15 11.66-5.22 18.05-6.24 0.31-0.05 0.63-0.04 0.94-0.05 0.26 0.02 0.53 0.05 0.79 0.07 0.39 0.24 0.48 0.69 0.72 1.03-0.22 0.27-0.43 0.55-0.65 0.82-0.24 0.04-0.42 0.15-0.48 0.4l0.02-0.02c-0.23 0.03-0.37 0.16-0.39 0.39z"/>
	<path class="st5" d="m230.21 68.31c-0.26-0.02-0.53-0.05-0.79-0.07-1.87-0.82-3.91-0.78-5.87-1.08-3.47-0.53-6.97-0.92-10.35-1.91-4.16-1.21-7.47-3.81-10.35-6.92-1.36-1.47-1.06-2.39 0.88-3.01 3.44-1.09 6.91-1.29 10.3 0.21 1.78 0.79 3.48 1.73 5.22 2.6l-0.03-0.03c0.21 0.09 0.42 0.18 0.63 0.27 3.6 2.56 7.3 5 10.54 8.03 0.29 0.66-0.05 1.27-0.18 1.91z"/>
	<path class="st1" d="m130.22 343.76c-0.47 0.27-0.94 0.06-1.41-0.03-0.17-0.36-0.34-0.72-0.51-1.08 0.2-0.26 0.4-0.53 0.6-0.79 0.25-0.04 0.45-0.15 0.54-0.41l-0.02 0.01c1.89-1.72 3.82-3.4 5.67-5.16 1.77-1.68 3.57-3.31 5.48-4.83 1.55-1.23 3.26-2.06 5.12-2.65 2.68-0.86 5.39-1.59 8.23-1.64 1.07 0.59 1.22 1.46 0.81 2.54-1.27 3.3-3.12 6.2-6.29 7.91-5.7 3.1-11.78 5.19-18.22 6.13z"/>
	<path class="st1" d="m230.62 343.69c-0.26 0.02-0.53 0.05-0.79 0.07-2.89-0.21-5.66-0.98-8.41-1.85-3.47-1.1-6.86-2.39-10.05-4.15-3.18-1.75-5.07-4.57-6.4-7.84-0.45-1.09-0.42-2.08 0.75-2.74 6.44 0.42 12.15 2.48 16.81 7.16 2.46 2.47 5.11 4.75 7.67 7.12l-0.02-0.01c0.13 0.15 0.27 0.3 0.4 0.46 0.25 0.25 0.5 0.5 0.75 0.74-0.23 0.34-0.47 0.69-0.71 1.04z"/>
	<path class="st1" d="m153.5 84.82c-4.59-0.45-9.08-1.27-12.95-4.02-1.27-0.91-2.47-1.93-3.63-2.99-2.4-2.21-4.75-4.48-7.12-6.72-0.22-0.21-0.5-0.36-0.75-0.54l0.02 0.01c-0.08-0.24-0.25-0.35-0.48-0.38-0.33-0.19-0.53-0.49-0.66-0.84l0.15-0.66c0.61-0.57 1.38-0.25 2.07-0.37 6.51 0.93 12.62 3.1 18.32 6.32 2.94 1.66 4.64 4.49 5.82 7.6 0.36 1 0.25 1.96-0.79 2.59z"/>
	<path class="st13" d="m124.59 344.52c-1.79-0.4-3.59-0.47-5.41-0.31-1.12-0.04-2.23-0.07-3.35-0.11-2.75-0.22-5.52-0.24-8.23-0.76-4.24-0.81-7.81-2.99-10.99-5.81-1.38-1.22-1.17-2.24 0.53-3.01 3.17-1.42 6.5-1.97 9.89-1.03 4 1.11 7.74 2.88 11.33 4.96 0.91 0.53 1.85 1.01 2.78 1.51l-0.03-0.03c0.23 0.14 0.45 0.28 0.68 0.42 1.16 0.89 2.31 1.79 3.47 2.68-0.22 0.5-0.44 1-0.67 1.49z"/>
	<path class="st7" d="m139.79 57.72c-3.04 2.24-6.3 4.2-9.19 6.65-0.56 0.48-1.04 1.06-1.56 1.6-0.13 0.14-0.25 0.27-0.38 0.41-0.24 0-0.49 0.01-0.73 0.01-0.58-0.04-1.07-0.28-1.5-0.66 0.93-0.5 0.79-1.53 1.05-2.32 0.83-2.51 2.22-4.77 3.1-7.24 0.11-0.13 0.22-0.25 0.34-0.38v-0.24c0.67-0.43 0.97-1.1 1.18-1.83 1.09-1.98 2.33-3.86 3.71-5.65 2.27-2.93 5.38-4.43 8.92-5.12 2.03-0.4 2.78 0.37 2.22 2.37-1.08 3.89-2.62 7.57-5.4 10.61-0.25 0.27-0.83 0.46-0.44 1.03l0.02-0.02c-0.51-0.35-0.64 0.03-0.78 0.4l0.03-0.02c-0.28 0-0.46 0.17-0.59 0.4z"/>
	<path class="st7" d="m128.66 345.59c1.53 0.8 2.54 2.22 3.89 3.22 2.51 1.86 5.07 3.65 7.61 5.47 0.2 0.13 0.4 0.27 0.6 0.4l-0.01-0.04c2.83 2.7 4.56 6.07 5.95 9.65 0.34 0.87 0.62 1.78 0.77 2.7 0.28 1.66-0.28 2.3-1.93 2.06-3.51-0.52-6.59-2-8.92-4.75-1.46-1.72-2.69-3.62-3.77-5.6-0.17-0.73-0.62-1.27-1.15-1.77l-0.01-0.02c0.03-0.34-0.08-0.6-0.38-0.77-1.49-2.95-2.99-5.88-3.76-9.12-0.1-0.43-0.35-0.63-0.72-0.76 0.52-0.45 1.13-0.69 1.83-0.67z"/>
	<path class="st7" d="m230.39 66.38c-3.24-3.04-6.94-5.47-10.54-8.03-0.21-0.09-0.42-0.18-0.63-0.27l0.03 0.03c-0.05-0.42-0.38-0.63-0.66-0.87-3.53-2.93-5.25-6.95-6.59-11.15-0.93-2.91-0.04-3.8 2.91-2.99 3.46 0.94 6.48 2.63 8.58 5.69 1.16 1.71 2.35 3.39 3.32 5.23 0.04 0.19 0.15 0.31 0.37 0.29l0.02 0.03c-0.06 0.41 0.06 0.68 0.51 0.73 1.11 2.58 2.22 5.15 3.32 7.74 0.39 0.92 0.77 1.85 0.67 2.89-0.27 0.55-0.72 0.74-1.31 0.68z"/>
	<path class="st7" d="m219.45 354.28c3.82-2.83 7.85-5.38 11.33-8.67 0.77-0.08 1.44 0.15 2.03 0.65-0.37 0.13-0.62 0.34-0.72 0.76-0.77 3.24-2.28 6.18-3.76 9.12-0.3 0.17-0.41 0.44-0.39 0.77l-0.01 0.02c-0.52 0.51-1 1.04-1.14 1.79-0.84 1.62-1.91 3.09-2.94 4.58-2.08 2.99-5.06 4.63-8.46 5.56-2.98 0.82-3.87-0.05-2.95-2.96 1.25-3.96 2.84-7.77 6.03-10.66 0.17-0.16 0.27-0.4 0.41-0.6l-0.01 0.04c0.18-0.13 0.38-0.27 0.58-0.4z"/>
	<path class="st6" d="m130.93 55.55v0.24c-0.11 0.13-0.22 0.25-0.34 0.38-0.88 2.48-2.27 4.73-3.1 7.24-0.26 0.78-0.12 1.82-1.05 2.32-0.24-0.16-0.47-0.33-0.7-0.49-0.69-2.45-1.39-4.91-1.58-7.46 0-0.52 0.18-1.06-0.22-1.52-0.36-3.69-0.71-7.37-0.23-11.08 0.46-3.53 2.22-6.37 4.72-8.77 1.26-1.21 2.14-0.97 2.88 0.67 0.95 2.09 1.13 4.36 1.5 6.58 0.57 3.46-0.15 6.73-1.29 9.96-0.45 0.57-0.65 1.21-0.59 1.93z"/>
	<path class="st6" d="m228.32 356.15c1.49-2.95 2.99-5.88 3.76-9.12 0.1-0.43 0.35-0.63 0.72-0.76 0.23 0.17 0.46 0.35 0.68 0.52 0.79 2.62 1.25 5.32 1.76 8 0.23 3.87 0.65 7.74 0.27 11.63-0.35 3.7-2.16 6.63-4.73 9.14-1.24 1.21-2.15 0.96-2.9-0.62-0.8-1.66-0.99-3.48-1.31-5.26-0.65-3.59-0.48-7.1 0.88-10.51 0.33-0.7 0.67-1.4 0.46-2.21l0.01-0.02c0.42-0.14 0.38-0.48 0.4-0.79z"/>
	<path class="st6" d="m126.82 346.26c0.38 0.13 0.62 0.33 0.72 0.76 0.77 3.24 2.28 6.18 3.76 9.12 0.02 0.31-0.01 0.65 0.38 0.77l0.01 0.02c-0.13 0.63-0.09 1.23 0.35 1.75 2.1 5.09 1.49 10.19 0.06 15.3-0.1 0.36-0.24 0.72-0.41 1.05-0.75 1.45-1.62 1.7-2.81 0.55-2.6-2.49-4.45-5.43-4.76-9.13s-0.13-7.39 0.3-11.07c0.03-0.25 0.02-0.5 0.03-0.75 0.48-2.82 0.91-5.66 1.93-8.36 0.15 0 0.29 0 0.44-0.01z"/>
	<path class="st6" d="m231.69 65.69c0.1-1.04-0.28-1.97-0.67-2.89-1.1-2.58-2.21-5.16-3.32-7.74-0.12-0.28-0.06-0.68-0.51-0.73l-0.02-0.03h0.04c0.04-1.35-0.56-2.56-0.9-3.82-1.21-4.5-0.3-8.83 1-13.09 0.62-2.04 1.84-2.26 3.32-0.72 2.62 2.73 4.44 5.87 4.53 9.81 0.06 2.76 0 5.51-0.14 8.26-0.02 0.49-0.2 0.99 0.06 1.47l0.01-0.03c-0.54 0.26-0.24 0.75-0.32 1.14-0.52 2.81-0.92 5.65-1.98 8.34-0.36 0.01-0.73 0.02-1.1 0.03z"/>
	<path class="st14" d="m230.29 70.16c0.22-0.27 0.43-0.55 0.65-0.82 0.65 0.19 1.3 0.43 1.98 0.08-0.11 1.1 0.33 2.08 0.59 3.11 0.16 0.6 0.55 1.14 0.45 1.8-0.63 0.49-0.35 1.17-0.28 1.75 0.72 5.82-0.26 11.38-2.45 16.76-0.48 1.17-1.08 2.28-2.06 3.12-1.18 1.02-2.14 0.86-2.9-0.5-0.79-1.4-0.98-2.98-1.25-4.52-0.92-5.22-0.6-10.26 2.2-14.94 0.37-0.62 0.9-1.24 0.7-2.08l-0.02 0.03c0.33-0.07 0.36-0.34 0.41-0.6 0.16-0.91 1.4-1.31 1.14-2.42l-0.01 0.01c0.29 0.03 0.38-0.14 0.39-0.39l-0.02 0.02c0.25-0.04 0.36-0.23 0.48-0.41z"/>
	<path class="st14" d="m231.33 342.65c-0.25-0.25-0.5-0.5-0.75-0.74-0.04-0.24-0.12-0.44-0.4-0.46l0.02 0.01c0.27-0.9-0.71-1.3-0.81-2.05-0.12-0.2-0.24-0.41-0.35-0.61 0 0 0.03 0.04 0.03 0.04l-0.41-0.41 0.02 0.03c-0.03-0.54 0.04-1.15-0.79-1.14v0.04c0.33-0.91-0.33-1.54-0.67-2.24-1.33-2.8-2.44-5.65-2.21-8.82 0.21-2.86 0.21-5.77 1.18-8.53 0.35-1 0.63-2.17 1.89-2.33 1.33-0.17 2.01 0.88 2.59 1.85 1.81 3.07 2.72 6.45 3.27 9.93 0.51 3.17 0.55 6.36 0.09 9.55-0.06 0.42-0.16 0.88 0.26 1.22-0.09 1.57-1.08 2.96-0.95 4.58-0.68-0.35-1.34-0.08-2.01 0.08z"/>
	<path class="st14" d="m128.9 341.85c-0.2 0.26-0.4 0.53-0.6 0.79-0.66-0.19-1.31-0.4-1.99-0.08 0.16-1.63-0.75-3.03-0.98-4.58 0.52-0.46 0.31-1.06 0.24-1.59-0.73-5.52 0-10.87 1.93-16.07 0.42-1.12 0.89-2.21 1.56-3.2 0.6-0.9 1.25-1.86 2.5-1.68 1.17 0.16 1.47 1.23 1.82 2.17 0.4 1.06 0.65 2.17 0.76 3.29 0.3 2.92 0.84 5.83 0.24 8.79-0.43 2.11-1.36 4.02-2.25 5.96-0.31 0.67-0.87 1.25-0.8 2.07l0.01-0.04c-0.46 0.18-0.39 0.6-0.42 0.97-0.4 0.99-1.63 1.54-1.51 2.81l0.02-0.01c-0.27 0-0.39 0.22-0.53 0.4z"/>
	<path class="st9" d="m235.25 354.78c-0.52-2.68-0.97-5.38-1.76-8 0.11-0.78 0.7-0.83 1.3-0.87 1.47 0.83 2.94 1.65 4.22 2.77 0.21 0.11 0.42 0.23 0.63 0.34l-0.05-0.03c0.15 0.36 0.48 0.37 0.8 0.4l-0.04-0.02c0.26 0.73 0.61 1.33 1.55 1.13l-0.01-0.03c-0.33 0.64 0.25 0.91 0.57 1.2 4.47 4.03 5.58 9.5 6.45 15.06 0.15 0.99 0.12 2.13-0.81 2.75-1.04 0.69-2.06 0.05-2.96-0.54-0.63-0.41-1.23-0.88-1.74-1.44-2.88-3.16-5.68-6.37-7.15-10.5-0.27-0.75-0.66-1.48-1-2.22z"/>
	<path class="st14" d="m127.91 69.33c0.13 0.35 0.34 0.64 0.67 0.84 0.1 0.2 0.21 0.4 0.48 0.38l-0.02-0.01c-0.13 1.08 0.64 1.76 1.15 2.55 0.08 0.2 0.13 0.42 0.39 0.47l-0.02-0.03c0.01 0.55-0.07 1.17 0.78 1.14v-0.04c-0.38 0.76 0.2 1.31 0.47 1.9 1.13 2.52 2.32 5.01 2.29 7.86-0.03 3.26-0.15 6.5-1.05 9.66-0.12 0.42-0.31 0.82-0.51 1.21-0.85 1.61-2.03 1.79-3.26 0.44-1.17-1.27-1.82-2.85-2.4-4.44-1.88-5.22-2.45-10.58-1.74-16.09 0.05-0.42 0.21-0.87-0.23-1.21 0.11-1.55 1.08-2.93 0.95-4.54 0.7-0.02 1.38-0.05 2.05-0.09z"/>
	<path class="st9" d="m232.79 65.65c1.05-2.68 1.46-5.53 1.98-8.34 0.31-0.32 0.36-0.72 0.32-1.14l-0.01 0.03c0.59-0.37 0.64-1.04 0.87-1.61 1.62-4.12 4.36-7.45 7.43-10.53 0.71-0.71 1.53-1.32 2.49-1.66 1.43-0.51 2.36 0.06 2.46 1.59 0.07 1.06 0.07 2.15-0.12 3.19-0.53 2.97-1.42 5.85-2.68 8.6-0.72 1.57-1.9 2.79-3.03 4.05-0.32 0.35-1.05 0.61-0.57 1.33l-0.02-0.05c-1-0.29-1.32 0.35-1.54 1.13l0.03-0.02c-0.36-0.05-0.67-0.02-0.79 0.4l0.03-0.03c-0.26 0.14-0.52 0.28-0.78 0.43 0 0 0.03-0.05 0.03-0.05l-0.31 0.31c-1.28 1.11-2.74 1.93-4.21 2.75-0.54-0.06-1.15 0.15-1.58-0.38z"/>
	<path class="st6" d="m22.42 324.23c-0.28 0.25-0.56 0.49-0.92 0.81 1.21 0.56 2.35 1.06 3.47 1.6 0.91 0.44 1.74 1.01 2.41 1.78 0.29 0.33 0.65 0.72 0.49 1.16-0.2 0.57-0.82 0.51-1.3 0.52-1.23 0.05-2.35-0.35-3.43-0.88-0.73-0.36-1.44-0.74-2.22-1.15-0.31 0.88 0.19 1.55 0.31 2.25 0.22 1.25 0.33 2.49 0.15 3.75-0.07 0.48-0.13 1.09-0.75 1.18-0.46 0.07-0.8-0.31-1.09-0.65-0.91-1.09-1.34-2.4-1.73-3.73-0.13-0.46 0.02-1.02-0.48-1.46-0.68 0.18-1.03 0.83-1.55 1.24-1 0.78-2.01 1.53-3.3 1.73-0.99 0.15-1.29-0.2-1.01-1.15 0.37-1.23 1.11-2.24 1.96-3.19 0.2-0.22 0.49-0.41 0.42-1.03-2.47 0.61-4.9 0.63-7.23-1.16 1.71-1.69 3.8-1.91 5.94-2.21 0.07-0.67-0.56-0.89-0.9-1.27-0.71-0.8-1.36-1.64-1.86-2.6-0.17-0.33-0.45-0.69-0.23-1.05 0.27-0.46 0.79-0.3 1.2-0.26 1.21 0.12 2.28 0.66 3.36 1.17 0.49 0.24 0.9 0.69 1.53 0.68 0.37-0.5 0.19-1.09 0.25-1.62 0.11-0.88 0.27-1.74 0.74-2.51 0.59-0.96 1.03-0.96 1.64-0.01 0.65 1.03 0.92 2.2 1.09 3.38 0.1 0.68 0.16 1.37 0.24 2.13 0.77-0.17 1.09-0.87 1.64-1.24 0.9-0.61 1.86-1.09 2.95-1.15 1.32-0.07 1.74 0.59 1.11 1.76-0.7 1.29-1.74 2.29-2.9 3.18v0zm-3.16 1.27c0.01-0.88-0.49-1.42-1.34-1.44-0.81-0.02-1.29 0.45-1.27 1.24 0.02 0.84 0.59 1.45 1.35 1.47 0.78 0.03 1.25-0.45 1.26-1.27z"/>
	<path class="st6" d="m337.08 87.59c0.43-0.31 0.96-0.64 0.08-1.01-1.34-0.55-2.7-1.06-3.87-1.92-0.8-0.59-2.1-1.33-1.72-2.22 0.47-1.08 1.88-0.53 2.91-0.35 1.43 0.25 2.56 1.26 4.09 1.76-0.22-1.24-0.42-2.33-0.6-3.42-0.16-1.01-0.12-2.01 0.15-2.99 0.24-0.83 0.72-0.96 1.38-0.36 1.06 0.97 1.54 2.27 1.93 3.61 0.17 0.6 0.29 1.22 0.45 1.91 0.84-0.22 1.23-0.91 1.8-1.34 0.91-0.68 1.83-1.36 2.96-1.61 1.17-0.26 1.56 0.15 1.21 1.29-0.34 1.1-1.02 2.01-1.78 2.86-0.25 0.27-0.48 0.55-0.85 0.97 0.77 0.3 1.34 0.05 1.9-0.07 1.69-0.36 3.25 0.03 4.73 0.8 0.92 0.48 0.91 0.87 0.01 1.45-0.75 0.48-1.59 0.76-2.45 0.96-0.79 0.18-1.6 0.32-2.42 0.49-0.24 0.54 0.31 0.71 0.55 1.03 0.57 0.75 1.19 1.46 1.72 2.24 0.34 0.5 0.91 1.13 0.44 1.69-0.42 0.49-1.19 0.21-1.79 0.07-1.47-0.35-2.74-1.18-4.05-1.79-0.56 0.37-0.36 0.85-0.41 1.26-0.05 0.37-0.01 0.76-0.08 1.13-0.2 0.98-0.34 2.32-1.41 2.41-1.04 0.09-1.17-1.27-1.52-2.11-0.49-1.17-0.38-2.46-0.66-3.76-0.73-0.04-1.01 0.54-1.43 0.83-0.99 0.7-2.03 1.3-3.27 1.31-1.21 0.01-1.58-0.62-1.03-1.7 0.7-1.37 1.88-2.34 3-3.35-0.02-0.02 0.03-0.07 0.03-0.07zm4.57 0.33c0.82-0.03 1.03-0.55 1.01-1.25-0.03-0.99-0.6-1.55-1.51-1.45-0.75 0.08-1.09 0.53-1.09 1.25 0.01 0.84 0.74 1.5 1.59 1.45z"/>
	<path class="st6" d="m22.37 87.73c1.17 0.87 2.2 1.88 2.93 3.15 0.25 0.42 0.56 0.91 0.17 1.39-0.34 0.43-0.87 0.49-1.38 0.42-1.15-0.16-2.17-0.61-3.06-1.35-0.42-0.35-0.83-0.7-1.36-1.16-0.22 1.61-0.26 3.06-0.79 4.4-0.3 0.75-0.53 1.88-1.34 1.88-0.97 0-1.2-1.14-1.38-1.99-0.19-0.9-0.27-1.83-0.42-2.84-1 0.18-1.71 0.86-2.57 1.18-0.88 0.33-1.75 0.72-2.71 0.74s-1.16-0.27-0.76-1.12c0.59-1.27 1.47-2.33 2.47-3.3 0.17-0.17 0.31-0.36 0.6-0.72-1.62-0.24-3.09-0.44-4.43-1.06-0.59-0.27-1.52-0.44-1.43-1.25 0.07-0.62 0.92-0.76 1.49-0.99 1.25-0.5 2.53-0.72 3.87-0.4 0.53 0.12 1.06 0.3 1.64 0.14-0.06-0.76-0.68-1.08-1.04-1.57-0.53-0.71-1.02-1.43-1.3-2.28-0.41-1.24-0.07-1.64 1.24-1.34 1.13 0.25 2.03 0.95 2.94 1.64 0.52 0.4 0.89 1.05 1.76 1.2 0.35-1.08 0.48-2.21 0.94-3.23 0.36-0.81 0.76-1.59 1.43-2.19 0.66-0.6 1.11-0.49 1.38 0.35 0.37 1.16 0.28 2.36 0.09 3.54-0.14 0.92-0.38 1.82-0.62 2.89 1.02-0.17 1.67-0.78 2.43-1.12 1.28-0.57 2.58-1.03 4-0.8 0.78 0.13 0.94 0.51 0.53 1.19-0.53 0.89-1.39 1.44-2.25 1.96-1.08 0.65-2.26 1.09-3.42 1.57-0.62 0.26-0.26 0.54 0.03 0.79 0.11 0.09 0.21 0.18 0.32 0.28zm-3.11-1.2c0.01-0.79-0.52-1.43-1.17-1.44-0.76-0.01-1.47 0.82-1.44 1.68 0.03 0.76 0.45 1.14 1.2 1.16 0.87 0.02 1.4-0.51 1.41-1.4z"/>
	<path class="st6" d="m337.04 324.36c-1.05-0.99-2.18-1.91-2.91-3.19-0.24-0.42-0.59-0.9-0.26-1.4 0.36-0.53 0.96-0.56 1.53-0.48 1.02 0.14 1.9 0.6 2.75 1.16 0.47 0.31 0.77 0.84 1.39 1 0.52-0.48 0.35-1.14 0.42-1.73 0.17-1.32 0.47-2.6 1.21-3.73 0.5-0.76 0.9-0.75 1.43 0 0.49 0.68 0.72 1.46 0.77 2.29 0.04 0.62 0.08 1.25 0.11 1.84 0.63 0.4 0.99-0.12 1.4-0.32 1.18-0.61 2.36-1.2 3.69-1.37 0.41-0.05 0.92-0.2 1.18 0.28 0.2 0.36-0.01 0.73-0.19 1.06-0.57 1.06-1.32 1.99-2.14 2.85-0.21 0.22-0.41 0.45-0.77 0.85 1.34 0.35 2.58 0.41 3.71 0.87 0.8 0.33 2.08 0.51 2.05 1.38-0.03 1-1.37 1.07-2.22 1.37-0.96 0.34-1.96 0.38-2.97 0.17-0.59-0.12-1.18-0.37-1.98-0.08 0.73 0.95 1.59 1.7 2.09 2.7 0.36 0.71 1.04 1.57 0.45 2.24-0.61 0.69-1.53 0.1-2.26-0.23-1.32-0.6-2.32-1.66-3.47-2.65-0.52 0.85-0.48 1.69-0.74 2.44-0.35 1.01-0.76 2-1.45 2.83-0.32 0.38-0.67 0.84-1.24 0.67-0.47-0.15-0.51-0.66-0.6-1.1-0.31-1.45-0.04-2.88 0.23-4.3 0.09-0.48 0.38-0.93 0.22-1.54-0.53-0.16-0.91 0.23-1.3 0.46-1.1 0.64-2.25 1.14-3.51 1.32-0.73 0.1-1.72 0.32-2.09-0.4-0.39-0.77 0.48-1.31 1.01-1.8 1.03-0.95 2.3-1.52 3.57-2.06 0.4-0.17 0.85-0.28 1.21-0.52 0.57-0.38 0.02-0.57-0.2-0.8 0.01 0.03-0.12-0.08-0.12-0.08zm4.43-0.29c-0.81 0.02-1.38 0.59-1.41 1.42-0.03 0.78 0.47 1.29 1.25 1.29 0.89 0 1.39-0.63 1.35-1.63-0.03-0.79-0.45-1.1-1.19-1.08z"/>
	<path class="st9" d="m126.38 346.27c-1.02 2.7-1.45 5.54-1.93 8.36-1.21 2.33-1.95 4.89-3.45 7.09-1.53 2.23-3.1 4.42-5.1 6.27-0.74 0.69-1.54 1.3-2.52 1.62-1.34 0.44-2.23-0.13-2.4-1.53-0.19-1.58 0.1-3.14 0.44-4.66 0.54-2.39 1.32-4.71 2.28-6.97 0.78-1.84 2.19-3.19 3.53-4.6 0.48-0.51 1.28-0.83 1.24-1.73l-0.02 0.02c0.45 0.18 0.69-0.17 0.98-0.4-0.12-0.39 0.17-0.55 0.41-0.7 1.66-1.04 3.32-2.07 4.98-3.1 0.53 0.1 1.13-0.13 1.56 0.33z"/>
	<path class="st9" d="m124.16 57.77c0.19 2.56 0.89 5.01 1.58 7.46-0.1 0.78-0.7 0.8-1.29 0.86-1.83-0.99-3.56-2.14-5.24-3.36-0.04-0.23-0.13-0.42-0.37-0.49l0.03 0.03c-0.51-0.59-0.85-1.47-1.91-1.14v0.04c0.47-0.6-0.1-0.91-0.41-1.2-3.85-3.63-4.94-8.47-5.91-13.36-0.17-0.85-0.14-1.76-0.06-2.63 0.13-1.51 1.07-2.09 2.5-1.56 1.14 0.42 2.06 1.19 2.9 2.06 3.36 3.47 6 7.4 7.54 12.02 0.12 0.46 0.26 0.92 0.64 1.27z"/>
	<path class="st10" d="m170.6 91.31c-1.24-2.09-1.58-4.46-1.88-6.78-0.44-3.4-0.5-6.84-0.81-10.26-0.12-1.3-0.39-2.6-0.73-3.85-1.08-3.91-1.95-7.9-3.74-11.58-0.98-2.01-1.81-4.15-3.59-5.66-0.42-0.36-0.78-0.87-1.45-0.59 0 0 0.03-0.04 0.03-0.04l0.09-0.51c1.64-0.15 2.9 0.67 4.07 1.66 1.17 0.98 2.04 2.22 2.76 3.55 0.87 1.6 1.7 3.22 2.53 4.85 0.52 1.02 0.78 2.12 0.84 3.26 0.1 1.75 0.63 3.17 2.13 4.37 2.37 1.89 3.23 4.6 2.91 7.58-0.14 1.34 0.1 2.44 0.87 3.54 2.15 3.09 1.1 7.98-2.05 10.02-0.63 0.38-1.28 0.51-1.98 0.44z"/>
	<path class="st10" d="m188.63 320.65c1.08 2.49 1.58 5.11 1.99 7.78 0.49 3.23 0.17 6.5 0.67 9.73 0.27 1.74 0.73 3.43 1.18 5.11 1.13 4.24 2.37 8.44 4.43 12.36 0.53 1.01 1.22 1.9 1.88 2.8 0.48 0.65 1.13 1.2 2.07 1.01l-0.04 0.04c-0.02 0.16-0.04 0.31-0.06 0.47-1.64 0.17-2.9-0.64-4.07-1.61-1.07-0.89-1.92-1.99-2.59-3.2-0.97-1.76-1.87-3.55-2.82-5.31-0.74-1.37-0.73-2.91-0.93-4.39-0.17-1.2-0.65-2.07-1.62-2.82-2.48-1.91-3.46-4.56-3.31-7.61 0.08-1.55-0.12-2.88-1.06-4.24-1.99-2.85-0.58-8.01 2.47-9.78 0.58-0.34 1.19-0.32 1.81-0.34z"/>
	<path class="st10" d="m158.77 359.45c1.1 0.15 1.74-0.54 2.31-1.31 2.25-3.07 3.76-6.51 4.81-10.15 0.83-2.88 1.7-5.76 2.2-8.73 0.23-1.35 0.57-2.72 0.54-4.08-0.05-2.46 0.3-4.88 0.47-7.31 0.17-2.47 0.71-4.93 2.02-7.12 0.72-0.19 1.34-0.01 1.95 0.41 3.14 2.12 4.13 6.97 1.94 10.02-0.82 1.14-0.89 2.32-0.76 3.58 0.2 1.96-0.35 3.74-1.2 5.44-0.52 1.03-1.31 1.86-2.24 2.51-0.89 0.63-1.41 1.41-1.45 2.5-0.19 4.36-2.51 7.85-4.77 11.31-1.29 1.98-3.09 3.49-5.71 3.42-0.02-0.15-0.04-0.31-0.06-0.46z"/>
	<path class="st10" d="m200.02 52.06c-3.95 3.31-5.48 7.92-6.84 12.64-0.69 2.4-1.46 4.78-1.93 7.25-0.43 2.28-0.67 4.56-0.73 6.89-0.1 3.95-0.63 7.84-1.87 11.61-0.13 0.41-0.21 0.86-0.54 1.18-3.84-1.27-5.84-4.92-4.91-8.9 0.16-0.69 0.43-1.32 0.9-1.84 0.82-0.92 0.99-1.99 0.89-3.16-0.33-3.59 0.81-6.55 3.74-8.74 0.77-0.57 1.07-1.36 1.13-2.28 0.31-4.67 2.74-8.42 5.37-12.03 1.12-1.55 2.7-2.66 4.79-2.62z"/>


	<path class="st12" d="m73.13 228.62c3.8 2.48 4.39 6.89 1.75 9.56-0.96 0.97-1.39 1.78-1.04 3.25 0.5 2.09-0.18 4.1-1.49 5.85-0.92 1.23-2.07 2.19-3.4 2.94-2.73 1.54-5.72 2.52-8.39 4.24-0.38-0.8-0.14-1.4 0-1.99 1.02-4.36 3.26-7.99 6.61-10.95 0.61-0.54 1.27-1.03 1.89-1.56 3.44-2.99 5.68-6.42 4.07-11.34z"/>
	<path class="st12" d="m286.01 228.63c0.17 0.3 0.08 0.61-0.01 0.91-0.87 2.92 0.05 5.44 1.76 7.77 1.01 1.38 2.32 2.45 3.64 3.53 4.1 3.33 6.75 7.54 7.62 12.8 0.03 0.18 0 0.37 0 0.55-0.42 0.37-0.69-0.04-0.98-0.2-1.81-1.02-3.69-1.87-5.59-2.71-1.56-0.69-3.04-1.52-4.27-2.71-2.19-2.09-3.25-4.61-2.57-7.65 0.22-0.97 0.04-1.59-0.71-2.29-3.56-3.34-1.91-7.97 1.13-9.96z"/>
	<path class="st10" d="m162.18 311.29c-0.12 0.01-0.25 0.01-0.37 0.02-4.93 0.42-9.68-0.7-14.44-1.67-1.71-0.35-3.44-0.58-5.19-0.6-3.37-0.03-6.75-0.16-10.1 0.37-2.09 0.33-4.21 0.6-6.09 1.69-0.37 0.21-0.74 0.49-1.21 0.43 0.24-1.23 1.2-1.86 2.12-2.5 0.88-0.61 1.86-1.04 2.91-1.29 3.34-0.78 6.63-1.98 10.15-1.04 0.81 0.22 1.6-0.01 2.3-0.55 2.57-2 5.37-2.16 8.34-1.07 1.03 0.38 2.03 0.34 3.11 0 4.12-1.29 8.34 1.83 8.47 6.21z"/>
	<path class="st10" d="m197.06 100.7c0.12-0.01 0.25-0.01 0.37-0.02 4.93-0.4 9.7 0.56 14.43 1.71 1.36 0.33 2.75 0.39 4.07 0.45 5.3 0.25 10.61 0.36 15.78-1.29 0.95-0.3 1.63-1.2 2.71-1.13-0.13 1.04-0.92 1.6-1.65 2.18-1.05 0.83-2.26 1.38-3.55 1.67-3.28 0.75-6.52 1.91-9.98 0.99-0.89-0.24-1.69 0.09-2.45 0.66-2.47 1.84-5.17 2.07-8.02 1.01-1.09-0.4-2.09-0.49-3.26-0.08-4.03 1.44-8.47-1.85-8.45-6.15z"/>
	<path class="st10" d="m234.73 311.28c-0.38 0.06-0.75-0.01-1.1-0.18-3.24-1.55-6.74-1.8-10.23-2.04-0.81-0.06-1.64 0.02-2.45-0.02-3.97-0.2-7.92 0.12-11.74 1.19-3.87 1.08-7.79 1.17-11.75 1.08 0.12-4.4 4.34-7.52 8.5-6.2 1.15 0.37 2.19 0.31 3.3-0.08 2.84-0.99 5.57-0.85 8.02 1.06 0.88 0.68 1.82 0.81 2.84 0.59 4.15-0.88 7.95 0.49 11.71 1.88 1.27 0.45 2.47 1.24 2.9 2.72z"/>
	<path class="st10" d="m124.5 100.74c0.31 0.03 0.65-0.02 0.92 0.1 3.61 1.63 7.46 1.93 11.35 2.12 5.76 0.29 11.35-0.65 16.91-1.99 0.88-0.21 1.73-0.26 2.61-0.27 1.82-0.02 3.64-0.01 5.47-0.01-0.17 4.5-4.45 7.56-8.69 6.11-1.04-0.35-1.96-0.28-2.92 0.08-2.98 1.14-5.78 0.92-8.35-1.08-0.89-0.69-1.87-0.67-2.87-0.48-4.14 0.79-7.94-0.52-11.69-1.96-1.2-0.45-2.34-1.21-2.74-2.62z"/>

	<path class="st13" d="m310.49 255.29c1.97-0.32 2.5-0.01 3.09 1.7 0.42 1.22 0.53 2.45 0.09 3.69-0.92 2.61-2.08 5.11-3.34 7.58-0.19 0.38-0.37 0.87-0.94 0.7-0.43-0.13-0.45-0.57-0.49-0.93-0.2-2-0.19-4-0.53-6-0.7-4.05-1.88-7.93-3.66-11.63-1.1-2.29-2.53-4.32-4.36-6.09-0.61-0.59-1.42-1.19-1.03-2.22 0.24-0.64 1.26-0.73 2.59-0.33 1.89 0.58 3.58 1.52 5.07 2.81 2.36 2.05 3.71 4.55 3.51 7.76-0.05 0.93 0 1.87 0 2.96z"/>

	<path class="st13" d="m48.98 255.43c0-1.32 0.04-2.64-0.01-3.96-0.08-2.21 0.76-4.04 2.18-5.66 1.84-2.09 4.14-3.43 6.8-4.19 0.3-0.08 0.62-0.12 0.93-0.11 1.27 0.08 1.64 0.82 0.96 1.89-0.17 0.26-0.36 0.53-0.59 0.73-3.79 3.43-5.61 7.97-7.05 12.69-1.01 3.31-1.6 6.71-1.66 10.19 0 0.25 0 0.5-0.03 0.75-0.06 0.48 0.03 1.1-0.64 1.19-0.55 0.08-0.69-0.45-0.89-0.83-1.19-2.36-2.3-4.75-3.2-7.23-0.42-1.16-0.44-2.32-0.11-3.51 0.6-2.11 1.23-2.52 3.31-1.95z"/>
	<path class="st2" d="m307.88 166.4c1.38-0.55 2.63-1.45 4.19-1.5-1.22 1.72-3.05 2.76-4.56 4.16-2.06 1.92-4.38 3.54-6.31 5.61-0.49 0.15-0.87 0.45-1.22 0.82l0.04-0.03c-0.14 0.14-0.28 0.27-0.41 0.41l0.03-0.03c-0.22 0.05-0.37 0.18-0.41 0.41l0.03-0.03c-0.23 0.04-0.37 0.17-0.41 0.41l0.03-0.03c-0.25 0.03-0.38 0.16-0.41 0.41l0.03-0.03c-0.24 0.03-0.38 0.17-0.41 0.41l0.03-0.03c-0.24 0.03-0.37 0.18-0.41 0.41l0.03-0.03c-0.23 0.04-0.37 0.18-0.41 0.41l0.03-0.03c-0.59 0.29-0.93 0.83-1.3 1.32-0.18 0.23-0.15 0.45 0.14 0.59l0.02-0.04c-0.12-0.14-0.25-0.32-0.44-0.16-0.28 0.24-0.56 0.5-0.8 0.79-7.46 9.13-13.1 19.28-16.83 30.47-0.08 0.23-0.11 0.48-0.41 0.73v-3.9c0-1.32-0.03-2.64 0.05-3.95 0.03-0.47 0.3-0.95 0.54-1.39 2.49-4.5 4.95-9.02 7.5-13.48 5.1-8.9 12.34-15.76 20.66-21.59 0.34-0.12 0.61-0.3 0.65-0.7l0.02-0.01c0.33 0.01 0.58-0.1 0.72-0.4z"/>
	<path class="st2" d="m47.5 164.96c1.4-0.16 2.37 0.94 3.62 1.23 0.06 0.06 0.12 0.12 0.19 0.18l0.05 0.04c0.17 0.27 0.4 0.4 0.72 0.36l0.02 0.01c0.02 0.4 0.3 0.56 0.62 0.67 4.45 3.38 8.94 6.72 12.72 10.88 4.26 4.67 7.66 9.92 10.64 15.48 1.51 2.82 3.07 5.61 4.63 8.41 0.56 1.01 0.83 2.05 0.79 3.23-0.08 2.13-0.02 4.27-0.11 6.43-1.06-3.53-2.49-6.9-4.04-10.22-3.36-7.19-7.37-13.99-12.38-20.16-0.45-0.56-0.77-1.3-1.57-1.52l0.03 0.02c-0.08-0.74-0.67-1.09-1.16-1.52l0.03 0.03c-0.06-0.21-0.19-0.35-0.41-0.41l0.03 0.03c-0.06-0.21-0.19-0.35-0.41-0.41l0.03 0.03c-0.06-0.22-0.2-0.35-0.43-0.35-2.24-2.53-4.95-4.55-7.46-6.79-1.86-1.66-3.8-3.23-5.7-4.85-0.25-0.21-0.43-0.46-0.45-0.8z"/>


	<path class="st7" d="m35.62 284.66c0.95-1.67 1.49-1.85 3.12-1.03 1.09 0.55 1.99 1.3 2.53 2.43 1.1 2.33 1.94 4.76 2.76 7.19 0.12 0.35 0.28 0.77-0.05 1.06-0.47 0.4-0.8-0.04-1.12-0.31-1.1-0.94-2.15-1.93-3.27-2.83-3.11-2.48-6.56-4.39-10.27-5.84-2.3-0.9-4.67-1.44-7.15-1.45-0.38 0-0.76 0.01-1.13-0.04-0.61-0.07-1.39-0.04-1.6-0.75-0.23-0.77 0.37-1.27 0.95-1.67 4.04-2.82 9.82-2.31 13.3 1.17 0.65 0.68 1.28 1.38 1.93 2.07z"/>
	<path class="st6" d="m66.7 288.01c0.61-0.65 1.11-1.12 1.55-1.64 3.03-3.62 6.86-4.05 11.11-2.79 1.02 0.3 2.03 0.69 2.89 1.34 0.47 0.35 0.87 0.79 0.71 1.43-0.17 0.68-0.79 0.74-1.35 0.79-1.12 0.1-2.26-0.03-3.38 0.17-6.72 1.15-12.33 4.46-17.39 8.85-0.47 0.41-0.93 0.84-1.4 1.26-0.29 0.26-0.63 0.49-1 0.21-0.28-0.21-0.21-0.55-0.11-0.86 0.87-2.62 1.72-5.25 3-7.71 0.61-1.16 1.64-1.88 2.86-2.33 1.37-0.53 1.65-0.39 2.51 1.28z"/>
	<path class="st7" d="m323.63 284.85c0.75-0.82 1.34-1.46 1.92-2.11 2.45-2.73 5.49-3.55 9.03-2.88 1.5 0.28 2.92 0.74 4.24 1.49 0.67 0.38 1.34 0.9 1.09 1.77-0.21 0.71-1 0.71-1.61 0.72-8.43 0.12-15.04 4.25-21.11 9.57-0.24 0.21-0.45 0.44-0.69 0.64-0.28 0.24-0.55 0.57-0.98 0.34-0.43-0.24-0.31-0.62-0.18-0.99 0.04-0.12 0.06-0.24 0.1-0.36 0.72-2.27 1.55-4.51 2.52-6.68 0.65-1.46 1.76-2.43 3.23-2.97 1.33-0.49 1.78-0.23 2.44 1.46z"/>
	<path class="st6" d="m292.79 287.69c0.86-1.38 1.3-1.53 2.79-0.84 1.24 0.57 2.19 1.44 2.77 2.7 1.02 2.22 1.84 4.53 2.61 6.85 0.14 0.42 0.37 0.94-0.03 1.22-0.52 0.37-0.93-0.13-1.28-0.47-2.73-2.63-5.76-4.83-9.13-6.57-3.88-2.01-7.88-3.58-12.36-3.41-0.06 0-0.13 0-0.19-0.01-0.62-0.07-1.35-0.05-1.55-0.79-0.19-0.7 0.34-1.16 0.85-1.54 3.71-2.8 9.82-2.39 13.18 0.85 0.71 0.69 1.51 1.3 2.34 2.01z"/>
	<path class="st11" d="m312.44 77.05c1.15 1.05 1.25 1.61 0.36 3.17-0.51 0.89-1.17 1.63-2.11 2.09-2.39 1.15-4.91 1.93-7.43 2.71-0.36 0.11-0.75 0.24-0.99-0.2-0.18-0.33 0.02-0.61 0.23-0.84 0.38-0.42 0.78-0.82 1.16-1.24 4.21-4.55 7.36-9.69 8.91-15.75 0.35-1.36 0.27-2.75 0.42-4.12 0.07-0.68-0.07-1.67 0.97-1.8 0.89-0.11 1.31 0.6 1.66 1.3 1.25 2.49 1.69 5.12 1.26 7.87-0.24 1.53-0.94 2.84-2.02 3.97-0.86 0.91-1.62 1.9-2.42 2.84z"/>
	<path class="st11" d="m47.53 334.98c-1.59-0.8-1.8-1.24-1.27-2.54 0.52-1.26 1.33-2.27 2.6-2.86 2.34-1.08 4.79-1.85 7.25-2.62 0.37-0.11 0.76-0.25 1.03 0.12 0.29 0.4-0.04 0.7-0.28 0.97-0.46 0.51-0.96 1-1.42 1.5-3.5 3.78-6.12 8.09-7.88 12.92-0.71 1.96-1.17 3.97-1.14 6.07 0 0.25 0.01 0.5-0.02 0.75-0.08 0.61-0.04 1.36-0.77 1.57-0.89 0.26-1.4-0.39-1.75-1.09-1.48-2.96-2.03-6.04-1.04-9.29 0.42-1.38 1.35-2.39 2.33-3.36 0.7-0.69 1.46-1.33 2.36-2.14z"/>
	<path class="st11" d="m46.79 76.88c-0.26-0.53-0.74-0.85-1.17-1.2-3.93-3.08-4.44-7.04-3.02-11.52 0.27-0.84 0.59-1.66 1.1-2.39 0.34-0.49 0.8-0.84 1.43-0.71 0.61 0.13 0.63 0.72 0.78 1.19 0.05 0.18 0.06 0.37 0.07 0.56 0.12 7.48 3.84 13.37 8.38 18.89 0.64 0.77 1.38 1.47 2.06 2.21 0.26 0.28 0.53 0.59 0.24 0.98-0.22 0.3-0.54 0.25-0.85 0.15-2.58-0.81-5.16-1.59-7.6-2.78-0.88-0.43-1.49-1.14-1.99-1.96-0.96-1.54-0.83-2.29 0.57-3.42z"/>
	<path class="st11" d="m312.42 335.06c0.74 0.67 1.31 1.25 1.94 1.77 3.14 2.55 3.49 5.93 2.84 9.57-0.22 1.24-0.68 2.41-1.31 3.51-0.36 0.64-0.85 1.16-1.65 0.98-0.69-0.16-0.7-0.84-0.72-1.39-0.31-8.5-4.59-15.08-10.14-21.05-0.09-0.09-0.18-0.18-0.26-0.27-0.29-0.33-0.69-0.67-0.36-1.13 0.26-0.37 0.68-0.18 1.04-0.07 2.34 0.72 4.67 1.48 6.91 2.46 1.27 0.55 2.16 1.49 2.75 2.72 0.71 1.48 0.55 1.94-1.04 2.9z"/>
	<path class="st6" d="m28.44 246.37c-0.11-0.49-0.3-0.95-0.59-1.36-1.98-2.86-2.76-6.13-3.18-9.51-0.17-1.37 0.02-2.72 0.47-4.26 4.13 2.83 7.09 6.52 9.58 10.63l-0.02-0.02c0.08 0.2 0.18 0.39 0.41 0.45-0.16 0.68 0.24 1.21 0.53 1.74 0.54 0.97 0.74 1.98 0.46 3.06-1.7 0.68-3.05 1.87-4.42 3.04-0.63-1.63-2.12-2.54-3.24-3.77z"/>
	<path class="st4" d="m331.7 245.29c0.64 0.39 1.01-0.21 1.46-0.43 3.59-1.8 7.34-2.55 11.33-1.89 0.68 0.11 1.35 0.27 2.05 0.68-0.24 0.71-0.91 0.97-1.43 1.34-4.05 2.87-8.15 5.68-12.09 8.7-0.94 0.72-1.7 1.68-2.83 2.14 0.03-0.12 0.03-0.24 0.02-0.36-0.1-1.12-0.37-2.19-1.1-3.08-0.33-0.94-1.34-1.48-1.5-2.52 0.86-1.02 1.71-2.03 2.57-3.05 0.2-0.08 0.37-0.19 0.39-0.43v0.01c0.26 0.01 0.42-0.07 0.37-0.37l0.02-0.01c0.36 0.2 0.59 0.02 0.77-0.28 0.19-0.17 0.19-0.33-0.01-0.48z"/>

	<path class="st6" d="m330.18 246.82c-0.86 1.02-1.71 2.03-2.57 3.05-1.47-0.96-2.74-2.23-4.46-2.78-0.09-0.49-0.02-0.96 0.02-1.45 0.1-1.33 1.18-2.26 1.35-3.54 2.22-3.75 4.89-7.12 8.32-9.86 0.29-0.23 0.58-0.47 0.89-0.69 0.09-0.07 0.23-0.08 0.52-0.17 0.68 1.8 0.57 3.64 0.28 5.46-0.42 2.67-1.14 5.27-2.62 7.58-0.17 0.26-0.35 0.53-0.21 0.86l0.02-0.03c-0.32-0.07-0.44 0.2-0.62 0.38-0.16 0.09-0.21 0.21-0.14 0.39l-0.02 0.01c-0.23 0.01-0.34 0.15-0.37 0.37v-0.01c-0.13 0.15-0.26 0.29-0.39 0.43z"/>

	<path class="st4" d="m28.44 246.37c1.12 1.22 2.6 2.14 3.24 3.77-0.41 0.9-1.27 1.53-1.53 2.53-0.71 0.93-0.99 2.01-1.09 3.15-5.05-4.03-10.35-7.72-15.64-11.42-0.2-0.14-0.37-0.33-0.61-0.54 0.48-0.65 1.18-0.74 1.82-0.84 4.71-0.72 9.1-0.01 13.01 2.89 0.26 0.18 0.54 0.31 0.8 0.46z"/>



	<path class="st14" d="m36.11 247.11c0.28-1.09 0.08-2.09-0.46-3.06-0.3-0.53-0.7-1.06-0.53-1.74-0.11-0.18-0.15-0.41-0.41-0.45l0.02 0.02c0-1.44-0.03-2.88 0.01-4.32 0.09-3.01 0.88-5.82 2.4-8.42 0.44-0.75 0.9-1.49 1.89-1.89 0.59 2.13 0.83 4.23 1.14 6.31 0.59 3.84 1.12 7.69 1.65 11.54 0.08 0.55 0.01 1.13 0.02 1.69-1.56-0.25-3.09-0.21-4.6 0.29-0.35 0.11-0.76 0.02-1.13 0.03z"/>

	<path class="st2" d="m321.51 256.67c-0.27 1.63-0.84 2.73-1.42 3.83-2.39 4.56-5.04 8.99-6.74 13.88-2.19 6.29-4.07 12.67-5.44 19.2-0.15 0.73-0.32 1.46-0.53 2.42-0.61-1.54-0.56-2.92-0.47-4.26 0.65-9.73 2.68-19.02 8.49-27.15 1.35-1.89 2.55-3.89 3.86-5.81 0.52-0.75 1-1.59 2.25-2.11z"/>
	<path class="st14" d="m324.52 242.1c-0.17 1.28-1.25 2.2-1.35 3.54-0.04 0.49-0.11 0.96-0.02 1.45-1.88-0.14-3.73-0.77-5.64-0.29 0.18-4.14 0.94-8.21 1.53-12.3 0.29-2.05 0.67-4.08 1-6.12 0.05-0.31 0.06-0.66 0.38-0.81 0.43-0.2 0.69 0.15 0.95 0.4 0.91 0.91 1.46 2.04 1.92 3.21 0.81 2.05 1.35 4.18 1.31 6.41-0.03 1.5-0.06 3.01-0.08 4.51z"/>
	<path class="st2" d="m38.23 256.62c9.56 11.38 14.83 23.99 14.11 38.77-0.63 0.24-0.55-0.2-0.6-0.44-1.23-6.36-3.06-12.55-5.05-18.7-1.59-4.92-4-9.47-6.46-13.99-0.6-1.1-1.18-2.21-1.71-3.35-0.28-0.6-0.69-1.21-0.29-2.29z"/>

	<path class="st0" d="m317.51 246.8c1.91-0.48 3.76 0.15 5.64 0.29 1.72 0.55 2.99 1.83 4.46 2.78 0.16 1.04 1.17 1.58 1.5 2.52 0.09 1.13 0.31 2.21 1.1 3.08 0.01 0.12 0.01 0.24-0.02 0.36-1.92 1.37-4.1 1.66-6.39 1.52-0.52-0.03-0.68-0.34-0.81-0.83-0.47-1.71-0.81-1.98-2.6-2.04-0.49-0.02-0.87-0.03-1.08-0.5-1.03-2.28-2.02-4.58-1.8-7.18z"/>

	<path class="st0" d="m36.11 247.11c0.37 0 0.78 0.08 1.12-0.03 1.52-0.51 3.05-0.54 4.6-0.29 0.28 2.46-0.67 4.65-1.56 6.84-0.23 0.57-0.62 0.83-1.3 0.81-1.43-0.04-2.42 0.61-2.62 2.1-0.1 0.78-0.62 0.83-1.2 0.86-2.04 0.09-3.96-0.38-5.78-1.27 0.05-1.2 0.91-2.21 0.79-3.45 0.26-0.99 1.12-1.62 1.53-2.53 1.37-1.17 2.72-2.36 4.42-3.04z"/>
	<path class="st8" d="m175.1 375.04c-0.01 1.89-0.03 3.78-0.04 5.67-0.12 1.13-0.57 2.23-0.27 3.39-0.27 4.51-0.79 8.99-1.94 13.37-0.38 1.46-0.86 2.88-1.62 4.19s-1.88 2.18-3.33 2.58c-2.06 0.56-3.98-1.1-3.73-3.2 0.18-1.47 0.99-2.22 2.49-2.29 1.23-0.06 1.81 0.12 3.53 1.17 2.1-8.5 3.99-16.95 4.64-25.63l0.15 0.01 0.13-0.08 0.03 0.06c-0.02 0.26-0.03 0.51-0.04 0.76z"/>
	<path class="st8" d="m184.14 35.91c0.02-1.4 0.04-2.8 0.06-4.21 0.44-0.73 0.46-1.48 0.06-2.23 0.31-4.64 0.74-9.27 1.79-13.81 0.41-1.78 0.94-3.52 1.8-5.14 0.79-1.47 1.99-2.44 3.59-2.83 2.06-0.5 3.96 1.33 3.59 3.39-0.25 1.4-1 2.05-2.44 2.14-1.25 0.08-2.36-0.26-3.51-1.27-2.07 7.98-3.69 15.86-4.59 23.89-0.12 0.01-0.23 0.04-0.35 0.07z"/>
	<path class="st3" d="m348.79 220.7c2.51 0.01 4.57 2 4.62 4.49 0.05 2.54-2.06 4.65-4.65 4.65-2.56-0.01-4.56-1.96-4.59-4.49-0.04-2.62 1.99-4.66 4.62-4.65z"/>
	<path class="st3" d="m20.08 199c-0.02 2.52-2.03 4.56-4.52 4.59-2.54 0.03-4.66-2.1-4.63-4.68 0.03-2.53 2.03-4.55 4.54-4.57 2.6-0.02 4.63 2.03 4.61 4.66z"/>
	<path class="st3" d="m349.08 199.16c-0.08 2.48-2.22 4.5-4.69 4.43-2.57-0.08-4.55-2.22-4.46-4.84 0.08-2.52 2.15-4.46 4.68-4.41 2.59 0.06 4.55 2.18 4.47 4.82z"/>
	<path class="st3" d="m15.84 225.24c0.02 2.53-1.94 4.54-4.48 4.6-2.63 0.06-4.71-1.94-4.73-4.54-0.02-2.52 1.95-4.54 4.48-4.6 2.64-0.06 4.71 1.93 4.73 4.54z"/>
	<path class="st8" d="m175.53 25.4c-0.04 1.84-0.59 3.64-0.53 5.49-0.85-4.24-1.67-8.49-2.57-12.72-0.43-2.02-0.81-4.05-1.55-6.09-0.95 0.67-1.86 1.17-2.98 1.16-1.05-0.01-2.04-0.11-2.58-1.17-0.55-1.08-0.61-2.16 0.18-3.19 0.75-0.99 1.74-1.47 2.96-1.2 1.54 0.35 2.74 1.22 3.55 2.59 0.74 1.26 1.19 2.62 1.59 4.01 1.05 3.63 1.34 7.4 1.93 11.12z"/>
	<path class="st8" d="m183.73 386.66c-0.09-1.84 0.51-3.62 0.54-5.44 1.13 6.23 2.29 12.44 4 18.78 1-0.85 1.99-1.27 3.15-1.26 1.07 0.01 2.02 0.2 2.51 1.28 0.48 1.03 0.54 2.06-0.18 3.03-0.73 0.98-1.69 1.54-2.93 1.28-1.61-0.34-2.85-1.25-3.68-2.7-0.92-1.6-1.41-3.35-1.85-5.11-0.81-3.25-1.14-6.56-1.56-9.86z"/>
	<path class="st12" d="m250.03 297.48c3.76-1.53 7.53-1.27 11.25 0.38 0.99 0.44 2.03 0.68 3.09 0.79 1.9 0.19 3.51-0.51 4.97-1.92-0.65 3.33-2.32 4.55-5.31 3.97-0.66-0.13-1.14-0.12-1.7 0.34-1.86 1.51-3.9 1.52-6.01 0.56-0.92-0.42-1.74-1-2.54-1.61-1.24-0.95-2.46-1.92-3.75-2.51z"/>
	<path class="st12" d="m109.4 297.62c-1.26 0.9-2.59 1.84-3.91 2.81-0.81 0.59-1.64 1.15-2.59 1.51-1.96 0.76-3.82 0.67-5.52-0.65-0.52-0.41-0.96-0.62-1.69-0.46-3.03 0.65-4.55-0.4-5.42-3.64 0.28-0.25 0.43 0.08 0.55 0.19 1.71 1.52 3.7 1.79 5.82 1.19 1.33-0.38 2.6-0.93 3.92-1.33 3.17-0.95 5.88-0.8 8.84 0.38z"/>
	<path class="st12" d="m249.52 114.03c0.67 0.34 1.12-0.17 1.59-0.5 1.19-0.81 2.33-1.7 3.52-2.52 1.37-0.94 2.87-1.57 4.57-1.45 1.02 0.07 2 0.38 2.76 1.08 0.63 0.59 1.21 0.59 2.03 0.4 2.66-0.61 4.51 0.79 5 3.84-1.99-1.75-4.15-2.17-6.51-1.42-0.78 0.25-1.53 0.54-2.3 0.83-2.58 0.96-5.2 1.35-7.94 0.78-0.96-0.21-1.86-0.55-2.72-1.04z"/>
	<path class="st12" d="m108.72 114.67c-3.2 1.27-6.38 1.01-9.55-0.12-0.65-0.23-1.28-0.51-1.93-0.74-2.64-0.92-5.06-0.71-7.14 1.41 0.34-3.09 2.22-4.52 5.19-3.96 0.64 0.12 1.14 0.18 1.73-0.29 2.28-1.84 4.68-1.52 6.99-0.07 1.64 1.03 3.17 2.24 4.75 3.36-0.02 0.14-0.03 0.28-0.04 0.41z"/>
	<path class="st2" d="m80.12 191.95c-2.79-2.23-4.3-4.87-5-8.02-0.14-0.61-0.22-1.24-0.32-1.86-0.47-2.91-1.73-5.22-4.87-6.14 2.64-1.21 5-0.36 5.81 2.17 0.31 0.96 0.79 1.38 1.65 1.77 2.68 1.2 3.35 3.57 3.25 6.24-0.07 1.82-0.31 3.62-0.52 5.84z"/>
	<path class="st2" d="m288.33 175.89c-3.16 0.81-4.5 2.79-5.07 5.42-0.24 1.1-0.37 2.23-0.65 3.32-0.76 2.85-2.22 5.24-4.79 7.3-0.19-2.63-0.67-4.94-0.48-7.3 0.18-2.32 1.27-4.06 3.5-4.9 0.66-0.25 0.95-0.59 1.19-1.25 0.99-2.87 2.75-3.64 6.3-2.59z"/>
	<path class="st3" d="m301.89 131.33c0.03 2.27-1.89 4.25-4.15 4.26-2.28 0.02-4.19-1.9-4.19-4.2-0.01-2.24 1.77-4.05 4.04-4.1 2.38-0.05 4.26 1.72 4.3 4.04z"/>
	<path class="st6" d="m252.48 104.98c-0.04 2.33-1.93 4.12-4.28 4.06-2.25-0.06-4.03-1.89-4.03-4.13 0-2.31 1.88-4.18 4.2-4.17 2.31 0.01 4.15 1.91 4.11 4.24z"/>
	<path class="st3" d="m57 131.33c0.03-2.4 1.8-4.09 4.24-4.04 2.24 0.05 4.05 1.87 4.06 4.1 0.02 2.24-1.98 4.22-4.21 4.2-2.31-0.03-4.11-1.91-4.09-4.26z"/>
	<path class="st6" d="m110.99 302.95c2.39-0.03 4.18 1.73 4.18 4.12 0 2.27-1.75 4.11-3.97 4.19-2.27 0.08-4.27-1.8-4.34-4.07-0.06-2.29 1.81-4.21 4.13-4.24z"/>
	<path class="st6" d="m252.48 306.99c0.04 2.32-1.81 4.25-4.11 4.26-2.31 0.02-4.21-1.86-4.21-4.17 0-2.24 1.78-4.07 4.02-4.13 2.36-0.06 4.25 1.72 4.3 4.04z"/>
	<path class="st6" d="m115.17 104.98c-0.03 2.37-1.87 4.12-4.25 4.06-2.23-0.06-4.05-1.9-4.06-4.12-0.01-2.27 1.92-4.18 4.22-4.17 2.35 0 4.12 1.84 4.09 4.23z"/>
	<path class="st8" d="m185.53 37.24c1.57-4.59 3.48-9.02 5.94-13.2 0.8-1.35 1.69-2.65 2.88-3.71 1.1-0.98 2.38-1.41 3.83-1.15 1.67 0.3 2.53 2.13 1.75 3.63-0.58 1.12-1.42 1.48-2.66 1.13-0.92-0.26-1.34-0.56-2.51-1.82-3.25 5.04-6.08 10.27-8.75 15.59-0.16-0.15-0.32-0.31-0.48-0.47z"/>
	<path class="st8" d="m173.58 375.02c-1.5 4.27-3.28 8.42-5.52 12.36-0.81 1.42-1.72 2.78-2.87 3.96-1.07 1.09-2.36 1.63-3.91 1.5-1.14-0.1-1.8-0.76-2.18-1.8-0.37-1.03 0-1.87 0.68-2.58 0.77-0.81 1.68-0.63 2.62-0.27 0.83 0.32 1.41 0.95 2.04 1.7 3.14-4.88 5.81-9.85 8.4-14.86 0.24-0.01 0.49-0.01 0.74-0.01z"/>
	<path class="st8" d="m186.41 374.64c2.64 5.11 5.34 10.2 8.53 15.14 0.79-0.68 1.4-1.4 2.34-1.69 1.5-0.46 2.69 0.11 3.09 1.55 0.38 1.38-0.52 2.91-1.93 3.15-1.44 0.25-2.74-0.14-3.84-1.12-0.99-0.88-1.78-1.94-2.48-3.07-2.62-4.24-4.58-8.78-6.22-13.47 0.18-0.16 0.34-0.33 0.51-0.49z"/>
	<path class="st8" d="m172.45 36.61c-2.56-4.86-5.15-9.69-8.22-14.5-0.69 0.8-1.29 1.41-2.14 1.71-0.87 0.31-1.7 0.45-2.47-0.21-0.75-0.65-1.06-1.78-0.72-2.75 0.34-0.96 0.99-1.59 2.04-1.71 1.46-0.17 2.72 0.28 3.79 1.27 1.11 1.03 1.98 2.27 2.74 3.57 2.35 4.01 4.22 8.24 5.75 12.62h-0.77z"/>
	<path class="st9" d="m175.81 127.35c0-2.24 1.73-3.97 3.91-3.93 2.05 0.04 3.84 1.81 3.9 3.85 0.06 2.13-1.75 3.99-3.9 4-2.24 0-3.91-1.68-3.91-3.92z"/>
	<path class="st6" d="m285.63 120.59c0.01 1.91-1.59 3.51-3.46 3.46-1.83-0.05-3.31-1.57-3.32-3.41-0.01-1.94 1.53-3.47 3.46-3.43 1.84 0.03 3.31 1.53 3.32 3.38z"/>
	<path class="st6" d="m75.97 124.04c-1.89-0.05-3.42-1.71-3.32-3.6 0.09-1.83 1.65-3.28 3.48-3.23 1.9 0.05 3.44 1.7 3.34 3.58-0.1 1.79-1.72 3.3-3.5 3.25z"/>
	<path class="st13" d="m317.01 328.12c1.99 0.11 3.65 0.58 5.21 1.35 0.74 0.36 1.43 1.07 1.12 1.96-0.27 0.78-0.02 1.07 0.52 1.52 2.09 1.75 2.65 3.88 1.76 6.39-0.1 0.29-0.22 0.59-0.41 0.84-0.14 0.18-0.38 0.37-0.59 0.39-0.38 0.04-0.54-0.32-0.57-0.62-0.59-4.8-3.49-8.2-6.81-11.36-0.05-0.05-0.06-0.12-0.23-0.47z"/>
	<path class="st9" d="m350 283.03c-1.86 0-3.4-1.45-3.44-3.25-0.04-1.82 1.61-3.52 3.42-3.52 1.81-0.01 3.47 1.68 3.44 3.51-0.02 1.79-1.57 3.26-3.42 3.26z"/>
	<path class="st9" d="m10.1 124.56c1.84 0.06 3.43 1.77 3.33 3.59-0.09 1.8-1.65 3.21-3.51 3.17s-3.35-1.54-3.33-3.34c0.03-1.88 1.67-3.48 3.51-3.42z"/>
	<path class="st9" d="m353.43 128.06c-0.04 1.79-1.58 3.26-3.43 3.26-1.93 0-3.52-1.59-3.43-3.44 0.09-1.79 1.66-3.32 3.42-3.32 1.84-0.01 3.47 1.66 3.44 3.5z"/>
	<path class="st9" d="m13.44 279.64c0.06 1.8-1.46 3.35-3.33 3.39-1.92 0.05-3.38-1.3-3.48-3.21-0.1-1.88 1.51-3.56 3.38-3.56 1.78 0.01 3.37 1.58 3.43 3.38z"/>
	<path class="st13" d="m316.49 83.92c0.5-0.93 1.08-1.3 1.55-1.76 2.02-1.93 3.57-4.19 4.7-6.74 0.46-1.05 0.66-2.15 0.79-3.27 0.03-0.3 0.18-0.65 0.51-0.72 0.44-0.1 0.68 0.24 0.85 0.58 1.19 2.43 0.71 5.45-1.06 6.71-0.71 0.51-1.33 0.93-0.9 2.07 0.24 0.64-0.46 1.3-1.05 1.64-1.57 0.89-3.31 1.23-5.39 1.49z"/>
	<path class="st13" d="m42.6 328.08c-0.01 0.81-0.46 0.99-0.76 1.28-2.99 2.87-5.44 6.05-5.98 10.34-0.05 0.38-0.12 0.83-0.55 0.89-0.51 0.07-0.73-0.37-0.92-0.78-1.05-2.23-0.5-5.01 1.34-6.68 0.53-0.48 1.11-0.73 0.73-1.8-0.34-0.94 0.66-1.71 1.54-2.08 1.42-0.61 2.93-0.97 4.6-1.17z"/>
	<path class="st13" d="m42.33 83.86c-1.85-0.13-3.41-0.53-4.89-1.19-1.18-0.53-1.51-1.2-1.26-2.5 0.14-0.72-0.36-0.88-0.71-1.14-2.04-1.53-2.3-3.59-1.85-5.89 0.02-0.12 0.05-0.25 0.1-0.36 0.26-0.54 0.3-1.4 1.09-1.33 0.7 0.06 0.58 0.84 0.67 1.37 0.62 3.76 2.79 6.63 5.34 9.3 0.46 0.48 1.13 0.77 1.51 1.74z"/>
	<path class="st10" d="m106.91 379.87c-1.73 0.05-3.26-1.4-3.31-3.14-0.05-1.79 1.31-3.27 3.09-3.35 1.86-0.08 3.42 1.39 3.42 3.21 0 1.74-1.46 3.23-3.2 3.28z"/>
	<path class="st10" d="m108.48 35.38c-0.03 1.81-1.43 3.22-3.21 3.23-1.85 0.01-3.36-1.53-3.3-3.35 0.06-1.73 1.6-3.18 3.33-3.15 1.75 0.03 3.2 1.52 3.18 3.27z"/>
	<path class="st7" d="m179.85 352.65c-1.74 0.02-3.24-1.47-3.26-3.23-0.01-1.77 1.45-3.28 3.19-3.31 1.73-0.02 3.23 1.48 3.25 3.24 0.02 1.78-1.43 3.28-3.18 3.3z"/>
	<path class="st10" d="m255.78 35.38c0 1.78-1.45 3.22-3.26 3.22-1.76 0.01-3.26-1.5-3.23-3.25 0.03-1.79 1.5-3.26 3.26-3.24s3.24 1.52 3.23 3.27z"/>
	<path class="st10" d="m105.06 315.76c0 1.76-1.51 3.24-3.28 3.2-1.81-0.04-3.26-1.51-3.22-3.27s1.54-3.23 3.3-3.22 3.2 1.48 3.2 3.29z"/>
	<path class="st3" d="m24.81 213.89c-1.77 0.01-3.26-1.43-3.28-3.19-0.02-1.81 1.36-3.22 3.19-3.24 1.86-0.02 3.23 1.31 3.24 3.16 0.01 1.82-1.36 3.25-3.15 3.27z"/>
	<path class="st10" d="m144.65 13.39c0.01-1.75 1.5-3.22 3.27-3.2 1.8 0.02 3.23 1.44 3.26 3.22 0.02 1.72-1.5 3.21-3.27 3.2-1.78 0-3.27-1.48-3.26-3.22z"/>
	<path class="st3" d="m338.47 210.71c-0.02 1.77-1.49 3.2-3.27 3.18-1.79-0.02-3.17-1.45-3.15-3.28s1.41-3.17 3.25-3.15c1.82 0.02 3.2 1.43 3.17 3.25z"/>
	<path class="st7" d="m179.42 65.84c-1.77 0.02-3.22-1.42-3.23-3.22-0.01-1.85 1.34-3.25 3.16-3.28 1.76-0.02 3.26 1.45 3.28 3.21 0.02 1.77-1.45 3.27-3.21 3.29z"/>
	<path class="st10" d="m104.57 96.18c0.03 1.86-1.3 3.28-3.12 3.33-1.72 0.05-3.27-1.44-3.32-3.19-0.04-1.78 1.39-3.27 3.16-3.31 1.82-0.03 3.25 1.35 3.28 3.17z"/>
	<path class="st10" d="m214.54 398.6c0 1.77-1.48 3.23-3.27 3.21-1.77-0.02-3.26-1.51-3.25-3.25 0.01-1.78 1.48-3.2 3.28-3.2 1.79 0.01 3.24 1.46 3.24 3.24z"/>
	<path class="st10" d="m148.28 395.37c1.8 0.02 3.24 1.49 3.2 3.25-0.04 1.81-1.49 3.22-3.29 3.19-1.77-0.03-3.26-1.55-3.22-3.28 0.04-1.78 1.49-3.18 3.31-3.16z"/>
	<path class="st10" d="m258 312.47c1.81 0.01 3.19 1.41 3.19 3.26 0 1.82-1.42 3.26-3.2 3.23-1.81-0.03-3.25-1.47-3.24-3.24 0.01-1.75 1.52-3.26 3.25-3.25z"/>
	<path class="st10" d="m214.24 13.39c0.01 1.72-1.51 3.22-3.27 3.22-1.78 0.01-3.27-1.45-3.28-3.2-0.01-1.76 1.46-3.21 3.26-3.22 1.76-0.02 3.29 1.47 3.29 3.2z"/>
	<path class="st3" d="m29.13 222.95c-0.03 1.85-1.39 3.15-3.27 3.11-1.81-0.04-3.22-1.49-3.16-3.26 0.05-1.75 1.57-3.2 3.32-3.17 1.79 0.03 3.14 1.48 3.11 3.32z"/>
	<path class="st3" d="m334.14 226.06c-1.88 0.03-3.24-1.26-3.26-3.11-0.03-1.83 1.34-3.28 3.12-3.31 1.74-0.03 3.26 1.43 3.31 3.17 0.04 1.77-1.36 3.22-3.17 3.25z"/>
	<path class="st10" d="m257.52 93.08c1.87-0.01 3.24 1.3 3.26 3.14 0.02 1.78-1.42 3.27-3.19 3.29-1.73 0.02-3.24-1.47-3.26-3.22-0.01-1.85 1.33-3.19 3.19-3.21z"/>
	<path class="st10" d="m250.94 376.41c0.1-1.83 1.51-3.06 3.41-2.98 1.83 0.08 3.12 1.52 3.02 3.37-0.09 1.74-1.69 3.17-3.41 3.05-1.75-0.11-3.12-1.68-3.02-3.44z"/>
	<path class="st3" d="m296.19 123.34c-1.65-0.01-2.97-1.37-2.92-3.01 0.05-1.53 1.39-2.82 2.94-2.83 1.6 0 2.99 1.44 2.93 3.03-0.06 1.56-1.37 2.81-2.95 2.81z"/>
	<path class="st6" d="m126.04 301.16c-0.03 1.64-1.42 2.96-3.06 2.88-1.54-0.07-2.81-1.42-2.78-2.98 0.02-1.52 1.36-2.87 2.88-2.9 1.61-0.03 2.99 1.37 2.96 3z"/>
	<path class="st6" d="m123.06 107.93c1.64-0.03 2.99 1.32 2.98 2.97-0.01 1.55-1.32 2.89-2.85 2.93-1.58 0.04-3.02-1.4-2.99-2.99 0.03-1.56 1.33-2.89 2.86-2.91z"/>
	<path class="st6" d="m238.98 301.2c-0.04 1.56-1.35 2.84-2.9 2.85-1.63 0.01-2.94-1.36-2.9-3.02 0.04-1.57 1.33-2.86 2.88-2.86 1.6-0.01 2.97 1.41 2.92 3.03z"/>
	<path class="st3" d="m66.82 123c-0.53-0.39-0.92 0.13-1.36 0.23-1.48 0.35-2.83-0.24-3.46-1.54-0.59-1.23-0.25-2.69 0.81-3.54 1.01-0.8 2.42-0.84 3.49-0.1 1.19 0.83 1.52 2.22 0.95 3.66-0.17 0.42-0.79 0.71-0.44 1.3l0.01-0.01z"/>
	<path class="st6" d="m238.98 110.9c-0.01 1.55-1.3 2.88-2.85 2.92-1.61 0.05-2.97-1.33-2.96-2.99s1.38-2.97 3.02-2.9c1.56 0.07 2.81 1.4 2.79 2.97z"/>
	<path class="st9" d="m168.2 130.08c-1.41 0.03-2.7-1.15-2.78-2.54-0.09-1.51 1.1-2.85 2.59-2.93 1.47-0.08 2.82 1.16 2.88 2.64 0.06 1.47-1.2 2.8-2.69 2.83z"/>
	<path class="st9" d="m191.05 130.08c-1.5-0.01-2.76-1.28-2.73-2.76 0.03-1.44 1.21-2.67 2.6-2.71 1.45-0.05 2.81 1.24 2.84 2.69 0.04 1.5-1.22 2.79-2.71 2.78z"/>
	<path class="st3" d="m324.87 217.35c1.34-0.04 2.46 0.98 2.52 2.27 0.06 1.35-1.1 2.57-2.45 2.57-1.3 0-2.38-1.08-2.41-2.4-0.04-1.29 1.03-2.4 2.34-2.44z"/>
	<path class="st6" d="m282.19 274.79c0.01 1.29-1.09 2.41-2.38 2.42-1.28 0.01-2.4-1.1-2.41-2.39s1.07-2.39 2.38-2.4c1.31 0 2.4 1.07 2.41 2.37z"/>
	<path class="st6" d="m75.89 274.81c0-1.3 1.07-2.38 2.38-2.38 1.32 0 2.38 1.04 2.39 2.36 0.01 1.27-1.12 2.42-2.38 2.42s-2.38-1.12-2.39-2.4z"/>
	<path class="st3" d="m34.99 217.35c1.34-0.04 2.39 0.95 2.45 2.3 0.05 1.36-0.9 2.46-2.22 2.54-1.34 0.09-2.59-1.07-2.6-2.41-0.01-1.29 1.06-2.39 2.37-2.43z"/>
	<path class="st13" d="m311.7 204.29c-0.02-1.33 1.01-2.39 2.34-2.4s2.44 1.06 2.43 2.33c0 1.26-1.13 2.42-2.38 2.45-1.26 0.04-2.36-1.06-2.39-2.38z"/>
	<path class="st13" d="m43.64 201.9c1.32-0.02 2.39 1.02 2.4 2.34s-1.06 2.44-2.34 2.44c-1.26 0-2.41-1.12-2.44-2.39-0.04-1.27 1.05-2.37 2.38-2.39z"/>
	<path class="st13" d="m49.48 197.44c-0.02-1.32 1.02-2.35 2.37-2.36 1.34-0.01 2.4 1 2.43 2.32 0.02 1.24-1.13 2.42-2.38 2.43s-2.41-1.13-2.42-2.39z"/>
	<path class="st10" d="m20.38 138.11c-0.02 1.33-1.06 2.32-2.42 2.3-1.33-0.02-2.39-1.09-2.36-2.38 0.03-1.28 1.18-2.38 2.44-2.34 1.33 0.03 2.36 1.1 2.34 2.42z"/>

	<path class="st10" d="m343.74 138.04c0.02 1.32-1 2.35-2.35 2.36-1.33 0.01-2.42-1.02-2.43-2.31-0.01-1.26 1.12-2.41 2.37-2.42 1.28-0.01 2.4 1.09 2.41 2.37z"/>
	<path class="st13" d="m55.06 206.38c0.03 1.28-1.05 2.42-2.32 2.46-1.25 0.04-2.42-1.06-2.47-2.33s1.02-2.38 2.34-2.41c1.36-0.02 2.42 0.96 2.45 2.28z"/>
	<path class="st13" d="m308.25 197.41c0.02 1.25-1.13 2.41-2.38 2.42s-2.41-1.15-2.41-2.39c0-1.31 1.06-2.35 2.38-2.36 1.34-0.01 2.4 1.01 2.41 2.33z"/>
	<path class="st13" d="m305.01 204.11c1.34-0.02 2.42 1 2.44 2.3 0.02 1.27-1.09 2.42-2.35 2.44s-2.4-1.08-2.43-2.35c-0.03-1.33 1-2.37 2.34-2.39z"/>
	<path class="st10" d="m344.54 129.03c0 1.33-1.02 2.34-2.37 2.35-1.35 0-2.41-1.02-2.41-2.33 0-1.28 1.09-2.35 2.4-2.36 1.34-0.02 2.37 1.01 2.38 2.34z"/>
	<path class="st10" d="m352.77 135.92c-0.01 1.26-1.15 2.37-2.42 2.35-1.28-0.02-2.4-1.16-2.37-2.41 0.03-1.32 1.09-2.33 2.43-2.31 1.33 0.01 2.37 1.05 2.36 2.37z"/>

	<path class="st10" d="m19.59 128.98c0.04 1.33-0.97 2.37-2.32 2.4-1.32 0.03-2.43-0.99-2.47-2.28-0.04-1.27 1.03-2.37 2.34-2.41 1.32-0.04 2.41 0.98 2.45 2.29z"/>
	<path class="st6" d="m277.4 131.18c0.09-1.31 1.2-2.26 2.55-2.18 1.33 0.07 2.34 1.19 2.25 2.48-0.09 1.31-1.2 2.26-2.55 2.19-1.33-0.07-2.34-1.19-2.25-2.49z"/>
	<path class="st10" d="m9.03 133.55c1.36 0.01 2.37 1.06 2.32 2.42-0.04 1.27-1.02 2.26-2.28 2.29-1.34 0.04-2.41-0.99-2.43-2.35-0.02-1.35 1.01-2.37 2.39-2.36z"/>
	<path class="st6" d="m78.46 128.99c1.39-0.01 2.37 0.97 2.36 2.36-0.01 1.31-0.92 2.26-2.22 2.32-1.39 0.06-2.42-0.89-2.46-2.26-0.03-1.39 0.94-2.4 2.32-2.42z"/>

	<path class="st6" d="m224.64 297.57c1.15 0.08 2.11 1.15 2.05 2.29-0.07 1.24-1.19 2.16-2.47 2.02-1.2-0.13-2.06-1.17-1.93-2.35 0.12-1.18 1.16-2.04 2.35-1.96z"/>
	<path class="st6" d="m134.7 301.9c-1.2-0.01-2.17-0.96-2.18-2.13s0.95-2.16 2.14-2.2c1.26-0.04 2.32 1 2.28 2.24-0.05 1.16-1.05 2.1-2.24 2.09z"/>

	<path class="st6" d="m224.49 114.41c-1.18 0-2.18-0.96-2.21-2.13-0.04-1.27 0.98-2.24 2.29-2.19 1.19 0.04 2.16 1.03 2.13 2.18-0.04 1.16-1.05 2.14-2.21 2.14z"/>
	<path class="st6" d="m134.63 114.38c-1.18-0.04-2.14-1.03-2.11-2.19 0.02-1.24 1.1-2.18 2.39-2.09 1.19 0.08 2.1 1.11 2.02 2.27-0.09 1.15-1.11 2.05-2.3 2.01z"/>
	<path class="st9" d="m159.64 127.4c-0.01 1.25-0.89 2.06-2.18 2.01-1.2-0.04-1.98-0.83-1.99-2.01-0.02-1.23 0.87-2.15 2.08-2.15 1.2 0 2.1 0.92 2.09 2.15z"/>
	<path class="st3" d="m316.72 220.86c1.08 0.05 2.02 1.04 2.01 2.11-0.01 1.13-1.12 2.12-2.27 2.03-1.12-0.09-1.96-1.07-1.89-2.19 0.08-1.11 1.06-2 2.15-1.95z"/>
	<path class="st3" d="m45.42 222.89c0.03 1.12-0.84 2.07-1.96 2.11-1.08 0.05-2.11-0.86-2.18-1.93-0.08-1.14 0.93-2.21 2.09-2.22 1.11 0 2.02 0.91 2.05 2.04z"/>
	<path class="st9" d="m201.65 129.41c-1.27 0.01-2.09-0.83-2.07-2.11 0.02-1.16 0.82-1.99 1.97-2.05 1.16-0.06 2.17 0.88 2.2 2.04 0.03 1.22-0.86 2.11-2.1 2.12z"/>
	<path class="st6" d="m282.68 140.71c0.05 1.01-0.68 1.84-1.67 1.89-0.97 0.05-1.81-0.73-1.86-1.71s0.71-1.84 1.68-1.9 1.81 0.72 1.85 1.72z"/>
	<path class="st6" d="m77.31 138.99c0.92-0.03 1.83 0.84 1.86 1.76 0.03 0.93-0.82 1.82-1.76 1.84-0.95 0.03-1.82-0.8-1.85-1.75-0.04-0.92 0.82-1.82 1.75-1.85z"/>
	<path class="st5" d="m172.45 36.61c0.25 0 0.51-0.01 0.76-0.01 0.88 1.66 1.5 3.41 1.79 5.27-0.49-0.4-1.02-0.79-1.05-1.51-0.08-0.17-0.11-0.4-0.38-0.39l0.03 0.03c-0.02-0.63 0.04-1.3-0.78-1.53l0.01 0.02c0.33-0.71-0.46-1.21-0.38-1.88z"/>
	<path class="st5" d="m186.41 374.64c-0.17 0.16-0.33 0.33-0.5 0.49-0.79-1.59-1.48-3.22-1.69-5.01 0.86 0.5 0.65 1.77 1.59 2.21-0.18 0.87 0.57 1.5 0.6 2.31z"/>
	<path class="st10" d="m337.08 87.59s-0.06 0.05-0.05 0.05c-1.76-0.43-3.54 0.1-5.31-0.18l-0.36-0.63c1.95-0.06 3.86 0.15 5.72 0.76z"/>
	<path class="st5" d="m185.53 37.24c0.16 0.16 0.32 0.32 0.47 0.48 0.1 0.38-0.39 0.78 0.04 1.14l0.02-0.02c-0.37-0.14-0.45 0.19-0.6 0.39-0.23 0.27-0.22 0.58-0.16 0.9-0.12 0.69-0.61 1.07-1.19 1.38l0.24-1.89c0.44-0.09 0.56-0.39 0.51-0.79 0.13-0.58 0.26-1.14 0.67-1.59z"/>
	<path class="st10" d="m22.37 87.73c-0.1-0.09-0.21-0.19-0.31-0.28 1.8-0.38 3.6-0.73 5.45-0.62l-0.36 0.63c-1.58 0.3-3.22-0.31-4.78 0.27z"/>
	<path class="st5" d="m173.58 375.02h-0.74c-0.05-0.66 0.74-1.16 0.37-1.88l-0.02 0.02c0.38 0.11 0.36-0.17 0.39-0.41 0.34-0.53 0.39-1.34 1.27-1.37-0.04 0.34-0.08 0.69-0.12 1.03-0.33 0.14-0.4 0.41-0.38 0.73-0.2 0.64-0.32 1.33-0.77 1.88z"/>
	<path class="st14" d="m42.99 148.7c0.17 1.87 0.54 3.73 0.36 5.63-0.58-1.73-0.54-3.58-1-5.33 0.22-0.1 0.43-0.2 0.64-0.3z"/>
	<path class="st10" d="m22.42 324.23v0c0.57 0.57 1.28 0.25 1.94 0.27 0.92 0.03 1.85 0.03 2.78 0.04 0.02 0.18 0.03 0.36 0.05 0.54-1.5 0.16-2.94-0.29-4.41-0.45-0.14-0.02-0.24-0.27-0.36-0.4z"/>
	<path class="st10" d="m337.04 324.36 0.13 0.1c-1.41 0.5-2.86 0.66-4.35 0.6 0.01-0.18 0.03-0.35 0.04-0.53 1.39-0.25 2.8 0.2 4.18-0.17z"/>
	<path class="st13" d="m209.02 378.46c-0.02 0.14-0.03 0.29-0.05 0.43-0.55-0.27-1.09-0.15-1.63 0.03-0.3 0.1-0.62 0.17-0.76-0.23-0.03-0.1 0.01-0.25 0.07-0.35 0.17-0.33 0.47-0.38 0.79-0.29 0.53 0.13 0.97 0.59 1.58 0.41z"/>
	<path class="st14" d="m174.78 384.1c-0.3-1.16 0.15-2.27 0.27-3.39 0.65 0.97 0.26 2.07 0.4 3.1-0.22 0.1-0.44 0.19-0.67 0.29z"/>
	<path class="st14" d="m44.58 166.19c-0.24-1.45-0.5-1.62-1.68-1.04-0.22 0.11-0.42 0.24-0.63 0.36 0.02-0.53 0.48-0.83 0.66-1.27 1.86 0.37 1.86 0.37 2.01 1.92 0 0-0.17 0.06-0.17 0.06z"/>
	<path class="st14" d="m316.89 149.73c-0.22 1.16-0.18 2.37-0.71 3.47-0.04-1.28-0.12-2.56 0.18-3.82 0.17 0.12 0.35 0.24 0.53 0.35z"/>
	<path class="st13" d="m151.33 378.75c-0.01-0.07-0.01-0.15 0.01-0.22 0.6 0.09 1-0.5 1.58-0.47 0.34 0.02 0.61 0.17 0.59 0.56-0.02 0.33-0.28 0.4-0.53 0.35-0.54-0.12-1.07-0.36-1.65-0.22z"/>
	<path class="st13" d="m207.9 33.22c0.02 0.09 0.02 0.17 0 0.26-0.59-0.1-1 0.41-1.54 0.45-0.34 0.02-0.63-0.11-0.65-0.47-0.03-0.38 0.24-0.52 0.6-0.42 0.51 0.13 1.03 0.34 1.59 0.18z"/>
	<path class="st14" d="m127.94 66.39c0.24 0 0.49-0.01 0.73-0.01-0.34 1.4-0.33 1.42 1.41 1.48 0.02 0.15 0.04 0.3 0.05 0.45-0.69 0.12-1.46-0.2-2.07 0.37-0.04-0.77-0.08-1.53-0.12-2.29z"/>
	<path class="st14" d="m30.16 252.67c0.12 1.24-0.74 2.25-0.79 3.45-0.19-0.01-0.29-0.11-0.3-0.3 0.09-1.14 0.37-2.22 1.09-3.15z"/>
	<path class="st14" d="m115.83 344.1c1.12 0.04 2.23 0.07 3.35 0.11-1.18 0.4-2.41 0.32-3.62 0.29 0.09-0.13 0.18-0.26 0.27-0.4z"/>
	<path class="st14" d="m244.42 344.52c-1.22 0.02-2.45 0.11-3.64-0.3 1.12-0.04 2.24-0.08 3.35-0.12 0.1 0.14 0.2 0.28 0.29 0.42z"/>
	<path class="st14" d="m227.92 356.94c0.22 0.81-0.13 1.51-0.46 2.21-0.18-0.21-0.38-0.39-0.68-0.42 0.15-0.75 0.63-1.28 1.14-1.79z"/>
	<path class="st14" d="m309.88 160.73c-0.78 0.08-1.49-0.19-2.19-0.46-0.03-0.21-0.07-0.41-0.11-0.62 0.87 0.13 1.62 0.52 2.3 1.08z"/>
	<path class="st14" d="m184.86 38.82c0.05 0.41-0.08 0.7-0.51 0.79-0.22-0.48-0.12-1.07-0.49-1.5-0.04-0.31-0.03-0.6 0.27-0.79 0.11 0.13 0.22 0.25 0.32 0.38 0.15 0.37-0.11 0.89 0.41 1.12z"/>
	<path class="st14" d="m130.93 55.55c-0.06-0.72 0.14-1.37 0.58-1.94 0.2 0.04 0.4 0.07 0.6 0.11-0.21 0.73-0.5 1.4-1.18 1.83z"/>
	<path class="st14" d="m132.05 358.69c-0.44-0.52-0.48-1.12-0.35-1.75 0.53 0.5 0.98 1.04 1.15 1.77-0.27-0.01-0.53-0.02-0.8-0.02z"/>
	<path class="st14" d="m51.95 160.18c-0.54 0.34-1.17 0.35-1.77 0.42 0.26-0.89 1.15-0.66 1.72-0.99 0.02 0.19 0.04 0.38 0.05 0.57z"/>

	<path class="st5" d="m184.26 29.47c0.39 0.76 0.38 1.5-0.06 2.23-0.1-0.64-0.19-1.27-0.29-1.9 0.12-0.11 0.24-0.22 0.35-0.33z"/>
	<path class="st14" d="m174.36 373.13c-0.02-0.32 0.05-0.59 0.38-0.73 0.45 0.54 0.48 1.17 0.36 1.83l-0.13 0.08-0.15-0.01c-0.24-0.36 0.09-0.94-0.46-1.17z"/>
	<path class="st14" d="m310.54 154.05c0.35 0.4 0.67 0.82 0.41 1.4-0.71-0.15-0.81-0.82-1.13-1.31 0.25-0.03 0.48-0.06 0.72-0.09z"/>
	<path class="st14" d="m29.87 169.48c-0.36 0.55-0.92 0.81-1.49 1.07 0.01-0.25 0.02-0.49 0.03-0.74 0.36-0.38 0.82-0.48 1.32-0.47z"/>
	<path class="st14" d="m239.4 339.51c-0.26 0.25-0.55 0.42-0.92 0.42-0.1-0.79 0.46-0.98 1.04-1.18-0.05 0.25-0.09 0.5-0.12 0.76z"/>

	<path class="st13" d="m108.72 114.67c0.01-0.13 0.02-0.27 0.03-0.4 0.39 0.02 0.77 0.04 1.25 0.06-0.43 0.5-0.89 0.23-1.28 0.34z"/>
	<path class="st14" d="m124.16 57.77c-0.38-0.34-0.52-0.81-0.65-1.27 0.15-0.08 0.29-0.16 0.43-0.25 0.39 0.46 0.22 1 0.22 1.52z"/>
	<path class="st13" d="m59.83 255.65c-0.11-0.05-0.22-0.21-0.18-0.39 0.05-0.26 0.26-0.43 0.52-0.39 0.06 0.01 0.13 0.33 0.11 0.5-0.02 0.18-0.12 0.37-0.45 0.28z"/>
	<path class="st5" d="m184.45 37.71c-0.11-0.13-0.22-0.25-0.32-0.38l-0.06-1.29v-0.02l0.07-0.11c0.12-0.03 0.24-0.05 0.36-0.06 0.14 0.62 0.05 1.24-0.05 1.86z"/>
	<path class="st13" d="m307.15 166.78c-0.04 0.4-0.31 0.58-0.65 0.7 0.01-0.21 0.02-0.43 0.02-0.64 0.2-0.17 0.4-0.2 0.63-0.06z"/>
	<path class="st14" d="m48.67 155.07c-0.32-0.46-0.08-0.8 0.25-1.11 0.05 0.29 0.09 0.58 0.14 0.87-0.06 0.2-0.19 0.29-0.39 0.24z"/>
	<path class="st14" d="m52.72 167.45c-0.33-0.11-0.61-0.27-0.62-0.67 0.21-0.18 0.4-0.1 0.58 0.04 0.01 0.21 0.02 0.42 0.04 0.63z"/>
	<path class="st2" d="m158.51 52.03-0.09 0.51c-0.39 0.01-0.61-0.08-0.28-0.48 0.13-0.01 0.25-0.02 0.37-0.03z"/>
	<path class="st10" d="m201.16 359.62c0.2 0.04 0.29 0.16 0.19 0.34-0.06 0.11-0.17 0.07-0.2-0.07-0.03-0.09-0.03-0.18 0.01-0.27z"/>
	<path class="st10" d="m124.01 100.03c0.44 0.04 0.55 0.32 0.51 0.72-0.37-0.1-0.42-0.43-0.51-0.72z"/>
	<path class="st10" d="m235.1 312.06c-0.31-0.18-0.45-0.43-0.38-0.79 0.38 0.14 0.45 0.43 0.38 0.79z"/>
	<path class="st10" d="m158.47 359.87c-0.01 0.14-0.11 0.2-0.17 0.1-0.1-0.16-0.02-0.29 0.17-0.32 0.04 0.07 0.04 0.14 0 0.22z"/>
	<path class="st10" d="m234.42 100.42c-0.04-0.23 0.06-0.38 0.25-0.49 0.06 0.24 0 0.42-0.25 0.49z"/>
	<path class="st10" d="m124.77 311.55c0.07 0.26-0.05 0.4-0.28 0.49-0.01-0.23 0.05-0.41 0.28-0.49z"/>
	<path class="st14" d="m227.2 54.31h-0.04c-0.21 0.01-0.32-0.1-0.37-0.29 0.14 0.09 0.28 0.19 0.41 0.29z"/>
	<path class="st14" d="m330.22 152.06c-0.01-0.15-0.02-0.29-0.02-0.44 0.14 0.04 0.29 0.07 0.43 0.11-0.06 0.21-0.2 0.32-0.41 0.33z"/>
	<path class="st2" d="m332.86 324.54c-0.01 0.18-0.03 0.35-0.04 0.53-0.17-0.01-0.39 0.01-0.41-0.21-0.04-0.33 0.23-0.31 0.45-0.32z"/>
	<path class="st2" d="m158.47 359.87c0.04-0.07 0.04-0.15 0-0.22 0.11-0.05 0.22-0.1 0.33-0.16 0.02 0.15 0.04 0.31 0.06 0.46-0.13-0.03-0.26-0.06-0.39-0.08z"/>
	<path class="st2" d="m27.18 325.08c-0.02-0.18-0.03-0.36-0.05-0.54 0.23 0.01 0.5 0 0.47 0.33-0.02 0.23-0.24 0.2-0.42 0.21z"/>
	<path class="st2" d="m201.16 359.62c-0.03 0.09-0.04 0.17-0.01 0.26-0.13 0.02-0.26 0.04-0.39 0.06 0.02-0.16 0.04-0.31 0.06-0.47 0.11 0.06 0.22 0.11 0.34 0.15z"/>
	<path class="st12" d="m286.04 228.67c-0.02-0.15 0.04-0.25 0.19-0.26 0.01 0 0.07 0.11 0.06 0.16-0.05 0.17-0.15 0.19-0.27 0.06-0.01 0 0.02 0.04 0.02 0.04z"/>
	<path class="st10" d="m158.52 52.03c-0.12 0.01-0.25 0.02-0.37 0.02 0.1-0.24 0.23-0.18 0.37-0.02z"/>
	<path class="st3" d="m104.55 383.7c-0.06-0.04-0.12-0.08-0.17-0.13 0.03 0.01 0.07 0.01 0.09 0.03 0.03 0.04 0.04 0.08 0.06 0.13z"/>
	<path class="st14" d="m325.45 179.61c-0.39-0.42-0.62-0.91-0.52-1.5 0.6 0.31 0.83 0.9 1.08 1.46-0.18 0.01-0.37 0.03-0.56 0.04z"/>
	<path class="st14" d="m324.91 178.08c-0.21-0.05-0.3-0.19-0.27-0.4 0.09 0.13 0.18 0.26 0.27 0.4z"/>
	<path class="st14" d="m324.48 177.23c-0.12 0.01-0.18-0.04-0.18-0.16 0.08 0.04 0.14 0.09 0.18 0.16z"/>
	<path class="st14" d="m29.74 169.35c0.09-0.04 0.19-0.08 0.28-0.13-0.05 0.09-0.1 0.17-0.15 0.26z"/>
	<path class="st2" d="m312.06 164.9c0.06-0.23 0.23-0.33 0.46-0.34-0.09 0.2-0.23 0.33-0.46 0.34z"/>
	<path class="st2" d="m46.78 164.52c0.33 0 0.64 0.04 0.73 0.44-0.35 0.03-0.58-0.13-0.73-0.44z"/>
	<path class="st14" d="m47.92 156.21c-0.08-0.35-0.04-0.63 0.37-0.74 0.08 0.36 0.02 0.63-0.37 0.74z"/>
	<path class="st14" d="m47.53 156.97c-0.06-0.35-0.05-0.65 0.38-0.75 0.05 0.34-0.05 0.6-0.38 0.75z"/>
	<path class="st14" d="m48.3 155.45c-0.02-0.25-0.01-0.48 0.35-0.36 0.02 0.25-0.08 0.39-0.35 0.36z"/>
	<path class="st14" d="m47.14 157.48c0.03-0.25 0.1-0.47 0.4-0.51-0.13 0.17-0.27 0.34-0.4 0.51z"/>
	<path class="st14" d="m311.33 155.85c0.39 0.1 0.42 0.46 0.54 0.75-0.45-0.05-0.6-0.32-0.54-0.75z"/>
	<path class="st14" d="m310.97 155.47c0.32-0.07 0.37 0.12 0.36 0.37-0.27 0.01-0.37-0.13-0.36-0.37z"/>
	<path class="st14" d="m52.08 166.77c-0.32 0.04-0.56-0.09-0.72-0.36 0.27 0.04 0.63-0.07 0.72 0.36z"/>
	<path class="st14" d="m51.3 166.38c-0.06-0.06-0.13-0.12-0.19-0.18 0.08 0.04 0.15 0.1 0.19 0.18z"/>
	<path class="st13" d="m307.88 166.4c-0.14 0.31-0.38 0.41-0.71 0.38 0.09-0.41 0.42-0.36 0.71-0.38z"/>
	<path class="st14" d="m185.29 40.13c-0.06-0.32-0.07-0.63 0.16-0.9 0.2 0.01 0.4 0.01 0.6 0.02-0.12 0.41-0.41 0.66-0.76 0.88z"/>
	<path class="st5" d="m175.1 370.48c0.03 0.32 0.09 0.66-0.3 0.83-0.12-0.35-0.01-0.63 0.3-0.83z"/>
	<polygon class="st14" points="184.07 36.02 184.07 36.04 183.99 36.03"/>
	<path class="st14" d="m175.13 374.29 0.07-0.08 0.11 0.03c0.12 0.32 0.06 0.58-0.2 0.8 0-0.25 0.01-0.5 0.02-0.75z"/>
	<path class="st0" d="m232.79 65.65c0.43 0.53 1.04 0.32 1.58 0.4-0.12 0.49-0.05 0.96 0.13 1.42-0.19 0.49-0.38 0.99-0.57 1.48-0.34 0.16-0.68 0.31-1.02 0.47-0.67 0.35-1.32 0.11-1.98-0.08-0.24-0.35-0.33-0.79-0.72-1.03 0.13-0.63 0.47-1.25 0.17-1.92 0.59 0.06 1.05-0.13 1.3-0.7 0.38-0.01 0.75-0.02 1.11-0.04z"/>
	<path class="st14" d="m237.35 71.69c0.32-0.01 0.57 0.1 0.74 0.38-0.41 0.18-0.64 0.02-0.74-0.38z"/>
	<path class="st14" d="m238.1 72.08c0.2 0.04 0.34 0.14 0.36 0.36-0.31 0.06-0.46-0.03-0.36-0.36z"/>
	<path class="st14" d="m236.78 71.3c0.25 0.04 0.46 0.14 0.56 0.39-0.27-0.01-0.43-0.17-0.56-0.39z"/>
	<path class="st0" d="m234.8 345.91c-0.6 0.04-1.2 0.09-1.3 0.87-0.23-0.17-0.46-0.35-0.68-0.52-0.59-0.5-1.26-0.73-2.03-0.65 0.23-0.66 0.2-1.31-0.15-1.92 0.24-0.35 0.47-0.7 0.71-1.04 0.66-0.15 1.33-0.43 2.01-0.08 0.34 0.16 0.69 0.32 1.03 0.48 0.22 0.49 0.45 0.99 0.67 1.48-0.4 0.4-0.38 0.88-0.26 1.38z"/>
	<path class="st14" d="m238.46 339.93c-0.16 0.29-0.42 0.39-0.74 0.38 0.12-0.37 0.35-0.54 0.74-0.38z"/>
	<path class="st14" d="m237.73 340.32c-0.11 0.25-0.31 0.35-0.57 0.39 0.13-0.21 0.3-0.38 0.57-0.39z"/>
	<path class="st0" d="m126.38 346.27c-0.44-0.47-1.03-0.23-1.55-0.35 0.12-0.5 0.13-0.98-0.24-1.4 0.22-0.5 0.45-0.99 0.67-1.49 0.35-0.16 0.7-0.31 1.04-0.47 0.68-0.31 1.33-0.11 1.99 0.08 0.17 0.36 0.34 0.72 0.51 1.08-0.16 0.61-0.19 1.23-0.15 1.86-0.71-0.02-1.31 0.22-1.84 0.67-0.14 0.02-0.28 0.02-0.43 0.02z"/>
	<path class="st0" d="m127.94 66.39 0.12 2.28-0.15 0.66c-0.68 0.03-1.36 0.07-2.03 0.1-0.35-0.16-0.69-0.33-1.04-0.49-0.23-0.5-0.46-0.99-0.69-1.49 0.28-0.42 0.45-0.86 0.3-1.37 0.58-0.05 1.19-0.08 1.29-0.85 0.23 0.16 0.47 0.33 0.7 0.49 0.43 0.39 0.92 0.63 1.5 0.67z"/>
	<path class="st14" d="m120.78 72.06c0.26-0.54 0.72-0.76 1.3-0.78-0.37 0.37-0.62 0.94-1.3 0.78z"/>
	<path class="st14" d="m128.67 66.38c0.13-0.14 0.25-0.27 0.38-0.41-0.13 0.14-0.25 0.27-0.38 0.41z"/>
	<path class="st2" d="m230.29 70.16c-0.12 0.19-0.23 0.38-0.48 0.4 0.06-0.25 0.24-0.37 0.48-0.4z"/>
	<path class="st2" d="m229.82 70.54c-0.01 0.25-0.1 0.42-0.39 0.39 0.03-0.24 0.16-0.36 0.39-0.39z"/>
	<path class="st2" d="m128.9 341.85c0.14-0.19 0.26-0.4 0.54-0.41-0.09 0.27-0.29 0.37-0.54 0.41z"/>
	<path class="st2" d="m230.18 341.45c0.28 0.02 0.37 0.22 0.4 0.46-0.13-0.16-0.26-0.31-0.4-0.46z"/>
	<path class="st2" d="m129.06 70.55c-0.28 0.02-0.38-0.18-0.48-0.38 0.23 0.04 0.41 0.15 0.48 0.38z"/>
	<path class="st14" d="m130.59 56.17c0.11-0.13 0.22-0.25 0.34-0.38-0.11 0.13-0.23 0.25-0.34 0.38z"/>
	<path class="st14" d="m131.69 356.92c-0.4-0.12-0.36-0.46-0.38-0.77 0.3 0.17 0.41 0.44 0.38 0.77z"/>
	<path class="st14" d="m227.19 54.34c0.45 0.05 0.39 0.45 0.51 0.73-0.45-0.05-0.58-0.33-0.51-0.73z"/>
	<path class="st14" d="m228.32 356.15c-0.02 0.31 0.02 0.65-0.39 0.77-0.02-0.33 0.09-0.6 0.39-0.77z"/>
	<path class="st9" d="m19.26 325.5c-0.01 0.82-0.48 1.29-1.26 1.27-0.77-0.02-1.33-0.63-1.35-1.47-0.02-0.79 0.47-1.27 1.27-1.24 0.85 0.03 1.36 0.57 1.34 1.44z"/>
	<path class="st9" d="m341.65 87.92c-0.85 0.05-1.59-0.61-1.59-1.46 0-0.72 0.34-1.17 1.09-1.25 0.9-0.1 1.48 0.46 1.51 1.45 0.03 0.71-0.19 1.23-1.01 1.26z"/>
	<path class="st9" d="m19.26 86.53c-0.01 0.88-0.54 1.42-1.41 1.4-0.75-0.02-1.17-0.4-1.2-1.16-0.04-0.86 0.68-1.69 1.44-1.68 0.66 0.01 1.18 0.65 1.17 1.44z"/>
	<path class="st9" d="m341.47 324.07c0.75-0.02 1.17 0.3 1.2 1.09 0.04 1-0.46 1.62-1.35 1.63-0.78 0-1.28-0.51-1.25-1.29 0.02-0.84 0.59-1.41 1.4-1.43z"/>


	<path class="st14" d="m330.21 255.48c-0.79-0.88-1.01-1.96-1.1-3.08 0.73 0.89 1 1.95 1.1 3.08z"/>
	<path class="st14" d="m330.96 246.02c-0.07-0.17-0.02-0.3 0.14-0.39 0.21 0.03 0.42 0.07 0.63 0.1-0.18 0.31-0.41 0.49-0.77 0.29z"/>
	<path class="st14" d="m330.57 246.4c0.03-0.22 0.14-0.35 0.37-0.37 0.04 0.3-0.11 0.39-0.37 0.37z"/>
	<path class="st14" d="m330.18 246.82c0.13-0.14 0.26-0.29 0.39-0.43-0.02 0.25-0.19 0.36-0.39 0.43z"/>
	<path class="st14" d="m28.29 142.23c-0.19 0.06-0.3 0-0.36-0.19 0.06-0.2 0.11-0.41 0.17-0.61 0.25 0.22 0.36 0.48 0.19 0.8z"/>

	<path class="st14" d="m330.21 151.65c-0.46-0.27-0.39-0.72-0.38-1.14 0.47 0.26 0.34 0.73 0.38 1.14z"/>


	<path class="st14" d="m30.18 148.61c-0.02 0.42 0.08 0.88-0.39 1.14-0.04-0.43 0.02-0.84 0.39-1.14z"/>

</g>
</svg>
