<svg xmlns="http://www.w3.org/2000/svg" xmlns:xlink="http://www.w3.org/1999/xlink" width="1007" zoomAndPan="magnify"
     viewBox="0 0 755.25 629.24998" height="839" preserveAspectRatio="xMidYMid meet" version="1.0">
  <defs>
    <g/>
    <clipPath id="20b946bc27">
      <path d="M 0.0742188 0 L 754.425781 0 L 754.425781 628.5 L 0.0742188 628.5 Z M 0.0742188 0 " clip-rule="nonzero"/>
    </clipPath>
  </defs>
  <g fill="#f3f3f8" fill-opacity="1">
    <g transform="translate(161.066554, 324.709491)">
      <g>
        <path d="M 44.621094 12.167969 C 71.214844 5.363281 101.539062 -16.792969 93.445312 -48.417969 C 83.183594 -88.527344 21.589844 -85.015625 14.929688 -111.035156 C 11.328125 -125.125 19.570312 -144.386719 39.578125 -144.605469 C 56.527344 -144.808594 68.9375 -113.675781 49.640625 -108.277344 C 42.488281 -106.292969 36.222656 -113.421875 39.269531 -122.472656 C 39.945312 -124.023438 39.214844 -125.675781 37.414062 -126.132812 C 35.898438 -126.664062 34.425781 -125.828125 33.824219 -123.988281 C 30.375 -109.933594 38.316406 -99.253906 51.109375 -102.527344 C 76.125 -108.929688 65.855469 -156.230469 31.128906 -149.488281 C 11.140625 -145.601562 1.738281 -127.878906 4.339844 -106.335938 C 8.246094 -70.726562 69.007812 -68.507812 75.921875 -41.484375 C 83.167969 -13.164062 57.953125 2.019531 42.285156 6.027344 C 11.378906 13.9375 -4.699219 -9.980469 7.542969 -35.167969 C 14.660156 -49.855469 38.230469 -43.328125 40.511719 -27.828125 C 40.886719 -25.167969 41.253906 -23.730469 43.484375 -23.992188 C 46.003906 -24.332031 46.820312 -25.917969 46.484375 -28.4375 C 43.625 -50.984375 14.578125 -57.949219 3.023438 -39.066406 C -13.667969 -11.511719 3.652344 22.652344 44.621094 12.167969 Z M 44.621094 12.167969 "/>
      </g>
    </g>
  </g>
  <g fill="#f3f3f8" fill-opacity="1">
    <g transform="translate(279.07939, 294.50989)">
      <g>
        <path d="M 47.996094 11 C 65.25 6.582031 81.570312 -42.164062 82.789062 -68.515625 C 82.949219 -72.078125 77.113281 -73.339844 76.742188 -68.804688 C 74.097656 -33.050781 57 -1.109375 49.238281 0.878906 C 46.507812 1.578125 45.167969 -58.121094 46.207031 -72.019531 C 46.757812 -76.449219 28.984375 -75.269531 28.945312 -69.4375 C 28.707031 -66.773438 28.4375 -63.640625 28.058594 -60.328125 C 22.699219 -66.921875 14.832031 -70.726562 2.941406 -66.917969 C -24.113281 -58.3125 -16.414062 5.886719 7.878906 -0.332031 C 20.097656 -3.457031 25.816406 -17.023438 28.992188 -28.554688 C 30.480469 -6.574219 34.628906 14.417969 47.996094 11 Z M 13.542969 -11.125 C 5.636719 -9.101562 -0.394531 -58.40625 9.667969 -60.984375 C 15.992188 -62.601562 22.929688 -57.636719 26.921875 -51.613281 C 24.25 -33.316406 19.292969 -12.59375 13.542969 -11.125 Z M 13.542969 -11.125 "/>
      </g>
    </g>
  </g>
  <g fill="#f3f3f8" fill-opacity="1">
    <g transform="translate(366.187516, 272.218835)">
      <g>
        <path d="M 26.183594 16.734375 C 38.976562 13.460938 44.671875 -5 44.59375 -31.628906 C 56.09375 -34.574219 68.324219 -42.449219 71.257812 -65.101562 C 71.464844 -66.6875 70.84375 -67.90625 69.1875 -68.402344 C 67.527344 -68.898438 65.769531 -67.988281 65.601562 -66.257812 C 63.964844 -49.910156 55.957031 -39.898438 44.417969 -37.710938 C 43.476562 -58.148438 36.71875 -101.90625 18.320312 -97.199219 C -5.113281 -91.203125 10.105469 -27.550781 38.628906 -30.410156 C 38.839844 -11.625 34.859375 3.945312 25.660156 6.300781 C 14.875 8.445312 8.074219 -30.09375 6.203125 -49.375 C 5.523438 -55.632812 -12.175781 -54.167969 -11.265625 -45.824219 C -7.945312 -17.878906 4.335938 22.324219 26.183594 16.734375 Z M 38.484375 -36.347656 C 19.367188 -31.453125 2.828125 -87.109375 19.789062 -91.449219 C 32.441406 -94.6875 37.523438 -54.480469 38.484375 -36.347656 Z M 38.484375 -36.347656 "/>
      </g>
    </g>
  </g>
  <g fill="#f3f3f8" fill-opacity="1">
    <g transform="translate(441.796209, 252.870496)">
      <g>
        <path d="M 19.554688 15.367188 C 28.898438 12.976562 40.421875 -12.027344 43.707031 -55.449219 C 43.976562 -58.582031 44.429688 -61.605469 41.046875 -61.660156 C 37.660156 -61.714844 38.070312 -59.519531 37.800781 -55.777344 C 35.695312 -20.316406 27.03125 7.480469 19.269531 9.464844 C 12.371094 11.230469 6.675781 -16.410156 3.730469 -27.910156 C 12.644531 -30.191406 33.226562 -76.046875 4.476562 -68.691406 C -10.472656 -64.867188 -15.808594 -46.804688 -11.390625 -29.554688 C -6.832031 -11.730469 -0.425781 20.480469 19.554688 15.367188 Z M 2.839844 -33.199219 C -0.121094 -54.34375 8.839844 -60.617188 11.140625 -61.207031 C 20.054688 -63.488281 10.199219 -36.152344 2.839844 -33.199219 Z M 2.839844 -33.199219 "/>
      </g>
    </g>
  </g>
  <g fill="#f3f3f8" fill-opacity="1">
    <g transform="translate(132.453661, 459.381654)">
      <g>
        <path d="M 10.996094 24.785156 C 22.074219 21.949219 22.96875 -14.523438 22.191406 -31.53125 C 22.125 -32.429688 21.476562 -33.011719 20.558594 -33.027344 C 19.640625 -33.039062 18.921875 -32.273438 18.988281 -31.375 C 19.601562 -15.324219 17.6875 16.171875 12.851562 17.410156 C 10.042969 18.128906 7.171875 3.984375 5.691406 -6.027344 C 3.910156 -17.210938 1.710938 -40.421875 0.203125 -58.65625 C 10.042969 -59.511719 20.09375 -60.503906 27.820312 -62.480469 C 41.238281 -65.914062 50.425781 -71.925781 50.238281 -84.34375 C 50.253906 -85.261719 49.585938 -85.925781 48.667969 -85.9375 C 47.75 -85.953125 47.109375 -85.207031 47.09375 -84.289062 C 47.160156 -75.910156 42.214844 -69.574219 30.902344 -66.679688 C 20.058594 -63.902344 9.671875 -62.910156 -0.0117188 -62.09375 C -0.121094 -63.8125 -0.304688 -65.507812 -0.390625 -67.148438 C -0.925781 -71.503906 -10.378906 -68.5 -9.890625 -64.96875 C -9.847656 -63.816406 -9.703125 -62.605469 -9.617188 -61.296875 C -16.292969 -60.753906 -22.5 -59.996094 -28.121094 -58.558594 C -34.4375 -56.941406 -39.425781 -54.335938 -39.492188 -49.082031 C -39.507812 -48.164062 -38.742188 -47.445312 -37.824219 -47.429688 C -36.769531 -47.53125 -36.246094 -48.082031 -36.25 -49.078125 C -36.230469 -52.574219 -31.84375 -54.277344 -27.398438 -55.417969 C -22.699219 -56.539062 -16.390625 -57.234375 -9.402344 -57.859375 C -8.042969 -41.167969 -5.253906 -14.035156 -3.632812 -3.808594 C -1.007812 12.3125 2.570312 26.941406 10.996094 24.785156 Z M 10.996094 24.785156 "/>
      </g>
    </g>
  </g>
  <g fill="#f3f3f8" fill-opacity="1">
    <g transform="translate(156.950006, 453.113015)">
      <g>
        <path d="M 31.105469 5.257812 C 38.125 3.460938 39.304688 -16.292969 40.425781 -35.949219 C 40.441406 -36.867188 39.773438 -37.527344 38.855469 -37.542969 C 37.9375 -37.554688 37.277344 -36.886719 37.261719 -35.96875 C 35.550781 -17.328125 34.097656 -1.242188 31.210938 -0.503906 C 28.324219 0.234375 26.289062 -14.210938 25.953125 -18.777344 C 24.996094 -29.007812 22.699219 -41.886719 12.867188 -39.371094 C 5.613281 -37.511719 4.21875 -28.34375 3.621094 -19.628906 C 2.039062 -26.789062 1.210938 -31.980469 0.371094 -38.832031 C 12.558594 -49.347656 25.511719 -59.148438 16.578125 -70.992188 C 9.257812 -80.757812 -4.683594 -76.773438 -8.734375 -64.347656 C -12.425781 -53.097656 -10.203125 -43.441406 -2.894531 -0.589844 C -2.347656 3.175781 7.03125 -0.136719 6.585938 -2.847656 C 5.546875 -10.480469 6.105469 -32.984375 11.253906 -34.300781 C 14.21875 -35.0625 15.742188 -21.320312 17.328125 -10.253906 C 18.789062 0.0117188 20.027344 8.09375 31.105469 5.257812 Z M -0.0429688 -42.714844 C -1.132812 -52.496094 -0.898438 -59.703125 0.71875 -64.109375 C 3.894531 -72.816406 8.472656 -75.070312 13.992188 -69.085938 C 20.675781 -61.816406 10.929688 -50.84375 -0.0429688 -42.714844 Z M -0.0429688 -42.714844 "/>
      </g>
    </g>
  </g>
  <g fill="#f3f3f8" fill-opacity="1">
    <g transform="translate(199.701584, 442.172844)">
      <g>
        <path d="M 10.613281 8.339844 C 15.683594 7.042969 21.9375 -6.527344 23.722656 -30.09375 C 23.867188 -31.792969 24.113281 -33.4375 22.277344 -33.464844 C 20.441406 -33.492188 20.660156 -32.304688 20.515625 -30.273438 C 19.375 -11.027344 14.671875 4.058594 10.457031 5.136719 C 6.714844 6.097656 3.621094 -8.90625 2.027344 -15.148438 C 6.863281 -16.386719 18.035156 -41.273438 2.429688 -37.28125 C -5.683594 -35.203125 -8.578125 -25.402344 -6.183594 -16.039062 C -3.707031 -6.367188 -0.230469 11.113281 10.613281 8.339844 Z M 1.539062 -18.015625 C -0.0664062 -29.492188 4.796875 -32.898438 6.046875 -33.21875 C 10.882812 -34.457031 5.535156 -19.621094 1.539062 -18.015625 Z M 1.539062 -18.015625 "/>
      </g>
    </g>
  </g>
  <g fill="#f3f3f8" fill-opacity="1">
    <g transform="translate(263.720935, 482.979719)">
      <g>
        <path d="M 89.699219 28.507812 C 118.59375 21.117188 131.984375 -23.511719 126.789062 -58.175781 C 138.730469 -65.980469 154.9375 -76.867188 155.851562 -87.058594 C 156.023438 -88.785156 154.898438 -90.183594 153.171875 -90.351562 C 151.441406 -90.523438 150.046875 -89.402344 149.875 -87.671875 C 149.40625 -81.121094 136.363281 -71.042969 126.175781 -64.757812 C 120.910156 -106.296875 99.589844 -160.269531 68.542969 -152.324219 C 48.128906 -147.101562 41.550781 -113.558594 39.320312 -80.976562 C 30.945312 -123.863281 15.332031 -142.382812 -10.972656 -135.652344 C -49.785156 -125.71875 -8.519531 -56.636719 0.929688 -46.648438 C 1.980469 -45.535156 4.03125 -45.296875 5.066406 -46.632812 C 6.105469 -47.972656 6.128906 -49.664062 5.082031 -50.773438 C -9.183594 -65.808594 -34.214844 -121.738281 -14.089844 -126.890625 C 1.722656 -130.9375 11.449219 -115.660156 17.679688 -95.503906 C 24.28125 -73.300781 25.246094 -55.167969 28.40625 -11.097656 C 29.03125 -2.070312 46.539062 -5.476562 45.664062 -20.261719 C 41.589844 -67.3125 45.234375 -136.863281 67.085938 -142.457031 C 86.492188 -147.421875 106.867188 -87.542969 109.464844 -54.050781 C 81.347656 -36.441406 53.339844 -18.398438 57.636719 9.757812 C 60.242188 25.324219 72.878906 32.8125 89.699219 28.507812 Z M 95.332031 12.824219 C 82.738281 25.847656 66.257812 26.695312 63.496094 8.71875 C 59.835938 -15.160156 84.476562 -30.808594 109.828125 -47.25 C 111.449219 -27.140625 107.75 0.300781 95.332031 12.824219 Z M 95.332031 12.824219 "/>
      </g>
    </g>
  </g>
  <g fill="#f3f3f8" fill-opacity="1">
    <g transform="translate(423.994152, 441.965645)">
      <g>
        <path d="M 47.996094 11 C 65.25 6.582031 81.570312 -42.164062 82.789062 -68.515625 C 82.949219 -72.078125 77.113281 -73.339844 76.742188 -68.804688 C 74.097656 -33.050781 57 -1.109375 49.238281 0.878906 C 46.507812 1.578125 45.167969 -58.121094 46.207031 -72.019531 C 46.757812 -76.449219 28.984375 -75.269531 28.945312 -69.4375 C 28.707031 -66.773438 28.4375 -63.640625 28.058594 -60.328125 C 22.699219 -66.921875 14.832031 -70.726562 2.941406 -66.917969 C -24.113281 -58.3125 -16.414062 5.886719 7.878906 -0.332031 C 20.097656 -3.457031 25.816406 -17.023438 28.992188 -28.554688 C 30.480469 -6.574219 34.628906 14.417969 47.996094 11 Z M 13.542969 -11.125 C 5.636719 -9.101562 -0.394531 -58.40625 9.667969 -60.984375 C 15.992188 -62.601562 22.929688 -57.636719 26.921875 -51.613281 C 24.25 -33.316406 19.292969 -12.59375 13.542969 -11.125 Z M 13.542969 -11.125 "/>
      </g>
    </g>
  </g>
  <g fill="#f3f3f8" fill-opacity="1">
    <g transform="translate(511.102291, 419.674586)">
      <g>
        <path d="M 20.261719 45.664062 C 40.675781 40.441406 42.316406 -26.757812 40.886719 -58.097656 C 40.769531 -59.75 39.574219 -60.824219 37.882812 -60.851562 C 36.191406 -60.878906 34.867188 -59.46875 34.984375 -57.8125 C 36.121094 -28.234375 32.589844 29.796875 23.679688 32.078125 C 18.503906 33.402344 13.210938 7.339844 10.484375 -11.105469 C 7.203125 -31.710938 3.148438 -74.476562 0.371094 -108.078125 C 18.5 -109.652344 37.027344 -111.484375 51.257812 -115.125 C 75.980469 -121.453125 92.90625 -132.523438 92.566406 -155.410156 C 92.589844 -157.101562 91.359375 -158.316406 89.667969 -158.34375 C 87.976562 -158.371094 86.796875 -156.996094 86.769531 -155.304688 C 86.894531 -139.867188 77.78125 -128.191406 56.9375 -122.855469 C 36.957031 -117.742188 17.820312 -115.910156 -0.0234375 -114.40625 C -0.21875 -117.574219 -0.5625 -120.703125 -0.722656 -123.726562 C -1.703125 -131.746094 -19.125 -126.214844 -18.226562 -119.707031 C -18.144531 -117.582031 -17.878906 -115.351562 -17.722656 -112.941406 C -30.023438 -111.9375 -41.460938 -110.542969 -51.808594 -107.894531 C -63.453125 -104.914062 -72.640625 -100.113281 -72.765625 -90.433594 C -72.792969 -88.742188 -71.382812 -87.417969 -69.691406 -87.390625 C -67.75 -87.582031 -66.78125 -88.59375 -66.792969 -90.429688 C -66.757812 -96.871094 -58.675781 -100.011719 -50.484375 -102.109375 C -41.820312 -104.171875 -30.203125 -105.460938 -17.324219 -106.609375 C -14.816406 -75.855469 -9.679688 -25.859375 -6.695312 -7.015625 C -1.855469 22.683594 4.738281 49.636719 20.261719 45.664062 Z M 20.261719 45.664062 "/>
      </g>
    </g>
  </g>
  <g fill="#f3f3f8" fill-opacity="1">
    <g transform="translate(556.237534, 408.124433)">
      <g>
        <path d="M 19.554688 15.367188 C 28.898438 12.976562 40.421875 -12.027344 43.707031 -55.449219 C 43.976562 -58.582031 44.429688 -61.605469 41.046875 -61.660156 C 37.660156 -61.714844 38.070312 -59.519531 37.800781 -55.777344 C 35.695312 -20.316406 27.03125 7.480469 19.269531 9.464844 C 12.371094 11.230469 6.675781 -16.410156 3.730469 -27.910156 C 12.644531 -30.191406 33.226562 -76.046875 4.476562 -68.691406 C -10.472656 -64.867188 -15.808594 -46.804688 -11.390625 -29.554688 C -6.832031 -11.730469 -0.425781 20.480469 19.554688 15.367188 Z M 2.839844 -33.199219 C -0.121094 -54.34375 8.839844 -60.617188 11.140625 -61.207031 C 20.054688 -63.488281 10.199219 -36.152344 2.839844 -33.199219 Z M 2.839844 -33.199219 "/>
      </g>
    </g>
  </g>
</svg>
