<?xml version="1.0" encoding="utf-8"?>
<!-- Generator: Adobe Illustrator 27.9.0, SVG Export Plug-In . SVG Version: 6.00 Build 0)  -->
<svg version="1.1" id="Layer_1" xmlns="http://www.w3.org/2000/svg" xmlns:xlink="http://www.w3.org/1999/xlink" x="0px" y="0px"
	 viewBox="0 0 37.72 71.33" style="enable-background:new 0 0 37.72 71.33;" xml:space="preserve">
<style type="text/css">
	.st0{fill:#98BF40;}
	.st1{fill:#47C0B8;}
	.st2{fill:#F36D37;}
	.st3{fill:#EB4174;}
	.st4{fill:#F59B24;}
</style>
<g>
	<path class="st0" d="M0.94,39.5c0.51-0.13,0.97,0.03,1.44,0.19c2.4,0.82,4.61,2.03,6.8,3.29c3.74,2.14,7.32,4.53,10.82,7.06
		c2.49,1.79,4.89,3.69,6.95,5.95c2.5,2.74,3.72,6.02,3.44,9.76c-0.19,2.6-1.99,4.41-4.57,4.69c-1.06,0.11-1.98-0.26-2.76-0.97
		c-0.74-0.68-1.25-1.52-1.69-2.41c-0.91-1.83-1.64-3.74-2.37-5.64c-1.66-4.28-4.22-8.02-7.05-11.58c-2.52-3.18-5.31-6.1-8.65-8.46
		c-0.76-0.54-1.57-1.01-2.36-1.51C0.94,39.75,0.94,39.62,0.94,39.5z"/>
	<path class="st1" d="M0.94,31.6c0.21-0.26,0.45-0.48,0.74-0.64c2.96-1.61,5.35-3.92,7.63-6.36c3.33-3.57,6.13-7.54,8.45-11.85
		c0.73-1.36,1.28-2.8,1.79-4.25c0.56-1.61,1.31-3.13,2.07-4.64c0.7-1.39,1.7-2.49,3.24-2.99c0.37,0,0.74,0,1.11,0
		c0.43,0.13,0.86,0.24,1.28,0.39c1.94,0.73,2.96,2.2,3.14,4.19c0.35,3.86-0.94,7.2-3.53,10.03c-1.81,1.97-3.86,3.69-6.03,5.26
		c-4.9,3.56-9.94,6.91-15.37,9.63c-1.12,0.56-2.27,1.06-3.48,1.4c-0.34,0.1-0.67,0.18-1.02,0.07C0.94,31.77,0.94,31.69,0.94,31.6z"
		/>
	<path class="st2" d="M2.29,33.53c0.14-0.25,0.39-0.27,0.6-0.29c3.11-0.27,5.9-1.48,8.63-2.89c2.71-1.4,5.22-3.09,7.3-5.37
		c0.71-0.78,1.53-1.42,2.45-1.93c0.89-0.49,1.78-0.63,2.65,0.02c0.93,0.7,1.45,1.6,1.22,2.82c-0.16,0.87-0.6,1.61-1.13,2.3
		c-1.64,2.17-3.93,3.37-6.41,4.25c-3.38,1.21-6.9,1.57-10.47,1.53c-1.27-0.01-2.54-0.1-3.81-0.16C2.96,33.81,2.58,33.82,2.29,33.53z
		"/>
	<path class="st3" d="M6.95,37.35c4.51,0.03,8.45,0.51,12.19,2.16c1.99,0.88,3.72,2.08,5.02,3.84c0.37,0.5,0.67,1.03,0.86,1.63
		c0.34,1.02,0.19,1.94-0.53,2.76c-0.91,1.05-1.97,1.25-3.19,0.58c-0.92-0.51-1.73-1.16-2.46-1.92c-3.81-3.97-8.5-6.45-13.75-7.93
		c-0.65-0.18-1.32-0.3-2-0.34c-0.28-0.02-0.75-0.01-0.74-0.27c0.01-0.33,0.47-0.3,0.76-0.31C4.56,37.46,5.99,37.39,6.95,37.35z"/>
	<path class="st4" d="M31.67,40.75c-2.79-0.01-5.04-2.26-5.06-5.06c-0.02-2.82,2.3-5.11,5.15-5.09c2.78,0.02,5.03,2.29,5.02,5.09
		C36.78,38.5,34.5,40.76,31.67,40.75z"/>
</g>
</svg>
