<?xml version="1.0" encoding="utf-8"?>
<!-- Generator: Adobe Illustrator 27.9.0, SVG Export Plug-In . SVG Version: 6.00 Build 0)  -->
<svg version="1.1" id="Layer_1" xmlns="http://www.w3.org/2000/svg" xmlns:xlink="http://www.w3.org/1999/xlink" x="0px" y="0px"
	 viewBox="0 0 61.79 306" style="enable-background:new 0 0 61.79 306;" xml:space="preserve">
<style type="text/css">
	.st0{fill:#06B3DD;}
	.st1{fill:#EB3F74;}
	.st2{fill:#52813D;}
	.st3{fill:#F59B23;}
	.st4{fill:#F26D37;}
	.st5{fill:#FFD530;}
	.st6{fill:#98BE40;}
	.st7{fill:#6E2666;}
	.st8{fill:#B65C2C;}
	.st9{fill:#EF5444;}
	.st10{fill:#8F9A3C;}
	.st11{fill:#234585;}
	.st12{fill:#49C0B7;}
	.st13{fill:#E32D2F;}
	.st14{fill:#F1789F;}
	.st15{fill:#FFFFFF;}
</style>
<g>
	<path class="st0" d="M45.49,73.28c-0.05-0.68-0.06-1.19-0.12-1.7c-0.2-1.75-0.24-3.5-0.18-5.26c0.04-1.29,0.37-2.48,0.98-3.59
		c2.22-4.04,5.69-6.52,9.99-7.94c0.66-0.22,1.37-0.21,2.02,0.13c0.6,0.31,0.76,0.69,0.52,1.32c-0.22,0.6-0.58,1.11-1,1.58
		c-0.65,0.72-1.33,1.42-1.94,2.18c-2.16,2.67-3.56,5.74-4.71,8.95c-2.16,6.02-3.22,12.24-3.17,18.64c0,0.5-0.01,1-0.02,1.51
		c-0.01,0.35-0.18,0.6-0.53,0.69c-0.31,0.08-0.55-0.06-0.73-0.31c-0.11-0.15-0.21-0.31-0.3-0.48c-1.62-2.9-3.13-5.87-4.47-8.91
		c-0.83-1.88-0.85-3.77-0.19-5.68c0.16-0.48,0.37-0.93,0.68-1.34c0.67-0.89,1.45-1.02,2.37-0.39C44.92,72.82,45.12,73,45.49,73.28z"
		/>
	<path class="st0" d="M45.48,217.69c-0.04-0.52-0.05-1.01-0.11-1.5c-0.21-1.78-0.24-3.56-0.18-5.35c0.05-1.29,0.38-2.48,1-3.59
		c2.23-4.03,5.69-6.51,10-7.91c0.63-0.21,1.31-0.2,1.93,0.11c0.65,0.32,0.81,0.71,0.57,1.38c-0.22,0.6-0.56,1.14-1.01,1.57
		c-3.81,3.71-5.83,8.4-7.38,13.36c-1.68,5.37-2.46,10.87-2.41,16.5c0,0.47-0.01,0.94-0.03,1.41c-0.01,0.31-0.16,0.54-0.46,0.64
		c-0.35,0.12-0.61-0.03-0.81-0.3c-0.09-0.12-0.17-0.26-0.25-0.4c-1.62-2.9-3.12-5.87-4.47-8.91c-0.85-1.91-0.88-3.82-0.21-5.77
		c0.17-0.51,0.4-0.99,0.74-1.41c0.64-0.79,1.37-0.89,2.24-0.36C44.89,217.33,45.05,217.64,45.48,217.69z"/>
	<path class="st1" d="M24.79,218.74c-0.78-1.48-0.1-2.31,1.34-2.54c1.95-0.31,3.75,0.1,5.28,1.39c2.18,1.85,4.14,3.93,6.09,6.02
		c0.3,0.32,0.6,0.65,0.87,0.99c0.17,0.22,0.31,0.48,0.11,0.77c-0.19,0.27-0.46,0.32-0.75,0.25c-0.27-0.06-0.55-0.14-0.81-0.23
		c-3.37-1.23-6.83-2.13-10.39-2.5c-4.69-0.5-9.39-0.66-14.04,0.47c-1.32,0.32-2.57,0.81-3.79,1.39c-0.6,0.29-1.21,0.51-1.87,0.61
		c-0.9,0.13-1.38-0.33-1.28-1.25c0.06-0.5,0.23-0.98,0.54-1.39c2.65-3.47,6.01-5.73,10.42-6.26c0.76-0.09,1.5,0.05,2.23,0.24
		c1.83,0.46,3.56,1.2,5.27,1.98c0.2,0.09,0.41,0.16,0.61,0.23c0.09,0.1,0.22,0.16,0.3,0.07C25.03,218.86,24.87,218.8,24.79,218.74z"
		/>
	<path class="st1" d="M24.88,74.31c-0.89-1.52-0.27-2.44,1.28-2.68c1.84-0.29,3.56,0.07,5.05,1.24c1.14,0.89,2.15,1.92,3.17,2.94
		c1.24,1.24,2.48,2.49,3.63,3.81c0.14,0.16,0.29,0.33,0.42,0.51c0.15,0.22,0.21,0.45,0.02,0.69c-0.17,0.22-0.39,0.33-0.66,0.27
		c-0.27-0.06-0.55-0.14-0.81-0.23c-3.31-1.19-6.7-2.09-10.2-2.49c-4.82-0.56-9.63-0.71-14.39,0.46c-1.31,0.33-2.56,0.82-3.78,1.39
		c-0.6,0.28-1.21,0.52-1.88,0.57c-0.83,0.06-1.25-0.31-1.2-1.15c0.03-0.54,0.21-1.04,0.54-1.48c2.58-3.38,5.86-5.62,10.14-6.23
		c1.12-0.16,2.18,0.1,3.24,0.4c1.6,0.46,3.12,1.14,4.63,1.82c0.23,0.1,0.44,0.24,0.71,0.24c0.06,0.08,0.13,0.1,0.21,0.02
		C24.95,74.38,24.92,74.35,24.88,74.31z"/>
	<path class="st2" d="M59.55,157.37c-0.31-0.41-0.56-0.76-0.83-1.09c-0.51-0.64-1.1-1.2-1.82-1.61c-0.31-0.17-0.54-0.18-0.81,0.13
		c-1.66,1.94-3.89,2.4-6.29,2.3c-3.54-0.15-6.81-1.3-9.98-2.8c-2.16-1.02-4.14-2.35-6.09-3.72c-0.64-0.45-1.25-0.94-1.64-1.78
		c0.88,0.24,1.67,0.48,2.48,0.67c1.72,0.4,3.42,0.21,5.11-0.26c1.3-0.36,2.56-0.82,3.8-1.37c1.85-0.82,3.77-1.38,5.8-1.47
		c3.01-0.14,5.39,0.91,6.87,3.66c0.45,0.84,0.67,1.69,0.21,2.6c-0.22,0.44-0.01,0.59,0.37,0.73c0.93,0.34,1.65,0.99,2.35,1.68
		C59.75,155.71,59.83,156.43,59.55,157.37z"/>
	<path class="st2" d="M56.15,297.7c1.15,0.41,2.03,1.04,2.83,1.81c0.68,0.66,0.89,1.38,0.58,2.34c-0.29-0.13-0.38-0.4-0.53-0.61
		c-0.59-0.79-1.24-1.5-2.1-1.99c-0.3-0.17-0.54-0.22-0.82,0.09c-1.77,2.05-4.14,2.5-6.67,2.31c-4.11-0.31-7.88-1.74-11.44-3.75
		c-1.47-0.83-2.9-1.75-4.27-2.74c-0.9-0.65-1.19-0.98-1.58-1.72c0.3-0.06,0.54,0.08,0.79,0.16c2.33,0.82,4.66,0.83,7.02,0.1
		c1.38-0.43,2.72-0.95,4.05-1.51c2.14-0.9,4.36-1.39,6.69-1.2c2.74,0.23,4.58,1.7,5.69,4.16C56.78,296.01,56.58,296.81,56.15,297.7z
		"/>
	<path class="st3" d="M45.59,268.01c0.59,1.27,1.26,2.5,1.77,3.81c0.62,1.58,1.25,3.14,1.48,4.84c0.02,0.16,0.06,0.31,0.07,0.46
		c0.08,1.31-0.49,1.88-1.74,1.58c-3.03-0.74-5.76-2.1-7.56-4.72c-3.05-4.45-5.29-9.3-6.7-14.52c-0.15-0.57-0.27-1.16-0.35-1.75
		c-0.04-0.3-0.07-0.45-0.41-0.46c-0.3-0.01-0.61-0.13-0.91-0.2c-0.36-0.17-0.48-0.63-0.9-0.73c-0.04-0.32,0.03-0.7-0.4-0.83
		c0.16-0.01,0.3-0.04,0.36-0.23c0.09-0.33,0.2-0.66,0.3-0.98c0.38-0.09,0.68-0.37,1.08-0.4c0.41,0.12,0.8,0.35,1.24,0.18
		c-0.16,0.57,0.27,0.85,0.58,1.18c0,0.47,0.09,0.94-0.07,1.4c-0.08,0.22,0.08,0.34,0.24,0.46c0.08,0.15,0.19,0.26,0.38,0.23
		l-0.01,0.01c0.03,0.33,0.3,0.47,0.51,0.64c1.88,1.61,3.79,3.19,5.64,4.84c0.89,0.79,1.9,1.43,2.65,2.38c0.1,0.07,0.2,0.14,0.3,0.2
		c0,0-0.02-0.02-0.02-0.02c0.66,0.73,1.31,1.46,1.97,2.19c0.08,0.09,0.17,0.17,0.31,0.08l-0.01-0.01c-0.14,0.23,0,0.33,0.2,0.39
		L45.59,268.01z"/>
	<path class="st3" d="M45.62,123.6c1.3,2.41,2.4,4.89,3.06,7.55c0.14,0.58,0.27,1.17,0.24,1.76c-0.05,1.02-0.55,1.48-1.53,1.26
		c-2.99-0.65-5.62-2-7.54-4.43c-1.7-2.15-2.9-4.61-4.05-7.08c-1.33-2.84-2.51-5.74-3.13-8.83c-0.05-0.28-0.09-0.56-0.13-0.83
		c-0.03-0.25-0.23-0.26-0.41-0.28c-0.26-0.21-0.6-0.12-0.89-0.23c-0.24-0.23-0.44-0.52-0.75-0.68c-0.18-0.26-0.14-0.61-0.37-0.84
		c0.18-0.39,0.35-0.79,0.53-1.18c0.33-0.19,0.66-0.38,0.99-0.58c0.32,0.27,0.72,0.34,1.12,0.41c0.18,0.55,0.49,0.94,1.13,0.93
		c-0.13,0.14-0.41,0.15-0.37,0.45c0.05,0.4,0.02,0.78-0.12,1.17c-0.08,0.21,0.16,0.29,0.3,0.4c0.12,0.27,0.36,0.43,0.57,0.61
		c1.89,1.63,3.81,3.23,5.68,4.88c0.91,0.8,1.93,1.47,2.71,2.43c0.28,0.27,0.55,0.56,0.86,0.8c0.24,0.19,0.34,0.6,0.76,0.53
		l-0.02-0.02c0.22,0.77,0.9,1.2,1.34,1.81L45.62,123.6z"/>
	<path class="st4" d="M33.52,255.25c-0.31-0.34-0.74-0.61-0.58-1.18c0.28-0.5,0.57-0.98,0.97-1.39c0.06-0.09,0.12-0.19,0.19-0.28
		c0,0,0,0,0,0c0.17-0.07,0.22-0.2,0.19-0.37c0,0,0.01-0.01,0.01-0.01c0.13,0,0.18-0.08,0.2-0.19c0.13-0.09,0.18-0.22,0.18-0.38
		l-0.01,0.02c0.33-0.16,0.46-0.5,0.65-0.78c1.9-2.73,3.78-5.47,5.91-8.04c1.14-1.37,2.43-2.52,4.01-3.37c1.66-0.9,3.3-1.8,5.09-2.41
		c0.63-0.21,1.26-0.37,1.93-0.35c0.82,0.03,1.13,0.32,1.19,1.14c0.04,0.54-0.07,1.07-0.19,1.58c-0.42,1.82-1.13,3.52-2.12,5.1
		c-0.5,0.8-1.09,1.54-1.83,2.14c-3.83,3.14-8.02,5.7-12.59,7.63c-0.83,0.29-1.68,0.52-2.47,0.93C34,255.1,33.76,255.17,33.52,255.25
		z"/>
	<path class="st4" d="M33.9,110.55c-0.64,0.01-0.95-0.38-1.13-0.93c0.38-0.49,0.75-0.99,1.13-1.48c0.19-0.18,0.42-0.34,0.38-0.65
		l0,0.02c0.44-0.41,0.73-0.94,1.07-1.42c1.84-2.66,3.67-5.32,5.73-7.82c1.19-1.45,2.53-2.68,4.2-3.57c1.63-0.87,3.25-1.76,5.01-2.37
		c0.57-0.2,1.15-0.34,1.74-0.4c0.95-0.09,1.43,0.33,1.42,1.29c-0.01,0.53-0.1,1.06-0.22,1.58c-0.42,1.82-1.15,3.51-2.15,5.09
		c-0.51,0.8-1.11,1.52-1.85,2.12c-3.82,3.11-7.99,5.64-12.52,7.56c-0.46,0.11-0.9,0.3-1.31,0.54
		C34.89,110.25,34.44,110.56,33.9,110.55z"/>
	<path class="st4" d="M23.99,59.93c0-0.03,0.01-0.06,0.01-0.09c-0.3-1.49,0.52-2.29,2.26-1.98c1.81,0.32,3.29,1.16,4.33,2.72
		c1.61,2.4,3.06,4.89,4.42,7.44c0.07,0.14,0.15,0.28,0.19,0.43c0.06,0.22,0.06,0.44-0.13,0.61c-0.21,0.19-0.45,0.23-0.69,0.1
		c-0.38-0.22-0.76-0.44-1.13-0.68c-2.29-1.5-4.66-2.84-7.2-3.87c-3.94-1.59-7.99-2.8-12.23-3.23c-2.14-0.22-4.26-0.06-6.36,0.4
		c-0.56,0.12-1.12,0.15-1.68-0.02c-0.58-0.17-0.78-0.45-0.69-1.04c0.09-0.58,0.38-1.07,0.83-1.43c3.18-2.57,6.76-3.9,10.91-3.41
		c0.66,0.08,1.28,0.29,1.87,0.6c1.51,0.79,2.88,1.78,4.21,2.83c0.32,0.25,0.6,0.56,0.99,0.7c0.03,0.04,0.07,0.09,0.1,0.13
		C24.11,60.06,24.08,59.99,23.99,59.93z"/>
	<path class="st4" d="M24,204.45c-0.12-1.76,0.51-2.34,2.3-2.03c1.7,0.3,3.14,1.05,4.15,2.51c1.71,2.45,3.18,5.04,4.59,7.67
		c0.06,0.11,0.12,0.22,0.16,0.34c0.08,0.25,0.08,0.5-0.14,0.69c-0.22,0.18-0.47,0.18-0.71,0.04c-0.46-0.27-0.91-0.55-1.36-0.84
		c-2.21-1.44-4.52-2.72-6.97-3.71c-4.06-1.63-8.23-2.86-12.62-3.24c-1.95-0.17-3.89,0.01-5.8,0.42c-0.56,0.12-1.13,0.14-1.68,0.04
		c-0.69-0.12-0.95-0.54-0.78-1.23c0.13-0.53,0.43-0.98,0.85-1.32c3.09-2.48,6.56-3.77,10.56-3.4c0.82,0.07,1.59,0.33,2.32,0.72
		c1.51,0.8,2.87,1.8,4.2,2.85c0.27,0.21,0.49,0.49,0.84,0.58c0.04,0.04,0.11,0.12,0.11,0.12C24.11,204.6,24.07,204.52,24,204.45z"/>
	<path class="st5" d="M31.65,109.22c-0.33,0.19-0.66,0.38-0.99,0.57c-0.2-0.24-0.4-0.48-0.59-0.72c-0.81-1.03-1.58-2.11-2.57-2.99
		c0.02-0.16,0-0.28-0.2-0.29l0.01,0.01c0.02-0.15-0.02-0.24-0.2-0.2l0.01,0.01c0.04-0.17,0.01-0.27-0.2-0.2l0.01,0.01
		c0.11-0.44-0.27-0.66-0.47-0.93c-1.1-1.49-2.38-2.84-3.4-4.38c-0.52-0.78-1.03-1.57-1.55-2.36c-1.14-1.72-1.49-3.71-1.89-5.67
		c-0.32-1.57-0.52-3.15-0.44-4.76c0.09-1.81,0.81-2.3,2.41-1.47c3.09,1.6,5.58,3.77,6.79,7.2c1.18,3.35,2.14,6.75,2.74,10.25
		c0.09,0.7,0.1,1.41,0.34,2.09C31.57,106.66,31.72,107.93,31.65,109.22z"/>
	<path class="st6" d="M30.63,258.08c0.19-0.16,0.4-0.31,0.57-0.49c0.31-0.33,0.63-0.17,0.96-0.06c0.32,0.1,0.27,0.38,0.25,0.63
		c-0.25,4.38-0.26,8.78-0.79,13.15c-0.22,1.85-0.69,3.62-1.62,5.27c-0.94,1.67-1.85,3.35-3.07,4.84c-0.36,0.44-0.73,0.86-1.21,1.18
		c-0.85,0.56-1.35,0.47-1.89-0.37c-0.67-1.05-0.94-2.25-1.22-3.44c-0.7-2.94-0.15-5.72,1.04-8.43c0.45-1.03,0.89-2.07,1.41-3.07
		c0,0-0.01,0.01-0.01,0.01c0.14-0.11,0.17-0.25,0.15-0.41C26.89,263.87,28.48,260.8,30.63,258.08z"/>
	<path class="st6" d="M32.08,112.93c0.39,0.09,0.34,0.38,0.32,0.67c-0.09,2.1-0.14,4.2-0.27,6.3c-0.12,2-0.27,4-0.42,6
		c-0.22,2.86-1.18,5.43-2.67,7.84c-0.68,1.09-1.34,2.19-2.16,3.19c-0.34,0.41-0.7,0.81-1.15,1.1c-0.84,0.55-1.35,0.45-1.89-0.37
		c-0.14-0.21-0.26-0.43-0.35-0.66c-1.23-3.09-1.66-6.22-0.5-9.44c0.68-1.89,1.48-3.72,2.41-5.5c0.52-0.99,1.03-1.99,1.58-2.96
		c1.1-1.95,2.29-3.84,3.7-5.58C31.14,113.31,31.36,112.51,32.08,112.93z"/>
	<path class="st5" d="M31.69,253.89c-0.4,0.03-0.7,0.31-1.08,0.4c-1.01-1.21-1.9-2.51-3.02-3.62c-0.09-0.42-0.41-0.7-0.65-1.02
		c-1.35-1.8-2.82-3.52-4.15-5.34c-1.71-2.33-2.73-4.91-3.19-7.74c-0.25-1.55-0.49-3.1-0.42-4.67c0.09-1.82,0.79-2.31,2.39-1.48
		c3.03,1.56,5.51,3.66,6.73,7.01c1.24,3.4,2.19,6.86,2.81,10.42c0.09,0.7,0.1,1.41,0.34,2.09C31.6,251.23,31.67,252.56,31.69,253.89
		z"/>
	<path class="st7" d="M31.69,253.89c-0.02-1.33-0.09-2.65-0.23-3.98c-0.01-0.73,0.1-1.48-0.15-2.19c-0.11-2.41-0.26-4.82-0.26-7.23
		c0-2.07,0.34-4.04,1.17-5.94c0.69-1.58,1.36-3.17,2.27-4.63c0.37-0.59,0.77-1.15,1.32-1.58c0.59-0.45,1.07-0.42,1.56,0.14
		c0.25,0.28,0.47,0.59,0.64,0.92c1.14,2.17,1.8,4.47,1.74,6.94c-0.03,1.26-0.37,2.48-0.7,3.68c-1.03,3.75-2.4,7.38-4.2,10.84
		c-0.1,0.19-0.26,0.36-0.22,0.61c0,0,0.01-0.02,0.01-0.02c-0.14,0.02-0.17,0.13-0.21,0.24c-0.17,0.05-0.2,0.18-0.17,0.33
		c0,0-0.01,0.01-0.01,0.01c-0.18,0.06-0.21,0.2-0.19,0.37c0,0,0,0,0,0c-0.16,0.03-0.19,0.15-0.19,0.28c-0.4,0.41-0.69,0.9-0.97,1.39
		C32.49,254.24,32.1,254.01,31.69,253.89z"/>
	<path class="st7" d="M31.65,109.22c0.07-1.28-0.09-2.56-0.19-3.84c-0.01-0.73,0.1-1.47-0.15-2.19c-0.12-2.45-0.27-4.89-0.26-7.34
		c0.01-2.01,0.34-3.92,1.13-5.77c0.68-1.59,1.35-3.18,2.26-4.65c0.38-0.61,0.79-1.22,1.37-1.66c0.62-0.47,1.04-0.44,1.56,0.15
		c0.25,0.28,0.47,0.59,0.65,0.92c1.15,2.2,1.83,4.54,1.74,7.05c-0.05,1.42-0.45,2.79-0.85,4.14c-1.1,3.77-2.49,7.43-4.38,10.89
		c-0.1,0.19-0.18,0.4-0.27,0.6c0,0,0-0.02,0-0.02c-0.28,0.13-0.38,0.36-0.38,0.65c-0.38,0.49-0.75,0.99-1.13,1.48
		C32.37,109.56,31.98,109.49,31.65,109.22z"/>
	<path class="st8" d="M30.63,258.08c-2.16,2.72-3.74,5.79-5.44,8.79c-0.13,0.11-0.19,0.24-0.15,0.41c0,0,0.01-0.01,0.01-0.01
		c-0.34-0.07-0.43,0.22-0.55,0.41c-2.04,3.42-5.28,5.37-8.71,7.09c-0.53,0.27-1.09,0.47-1.66,0.65c-1.8,0.55-2.48,0.06-2.24-1.82
		c0.42-3.33,1.6-6.31,4.25-8.55c1.39-1.18,2.81-2.31,4.29-3.38c0.24-0.17,0.57-0.26,0.66-0.61c0,0-0.01,0.01-0.01,0.01
		c0.22,0.06,0.34-0.1,0.49-0.2c1.34-0.79,2.65-1.63,4.02-2.39c1.53-0.85,3.11-1.57,4.76-2.15c0.42,0.1,0.54,0.56,0.9,0.73
		C31.04,257.4,30.84,257.74,30.63,258.08z"/>
	<path class="st8" d="M30.68,113.51c-1.41,1.74-2.6,3.63-3.7,5.58c-0.55,0.97-1.05,1.97-1.58,2.96c-0.71,0.76-1.28,1.62-1.89,2.45
		c-0.94,1.28-2.05,2.36-3.39,3.22c-1.51,0.96-3.01,1.92-4.65,2.66c-0.66,0.3-1.32,0.58-2.05,0.67c-1.11,0.13-1.5-0.22-1.56-1.32
		c-0.03-0.7,0.09-1.38,0.24-2.05c0.31-1.41,0.8-2.77,1.48-4.05c0.46-0.86,1.03-1.64,1.73-2.33c1.58-1.54,3.32-2.86,5.1-4.16
		c0.24-0.18,0.57-0.28,0.69-0.6c0,0-0.01,0.01-0.01,0.01c0.13-0.01,0.26-0.01,0.2-0.21l-0.02,0.01c0.22,0.08,0.36-0.06,0.49-0.2
		c0.23-0.01,0.42-0.14,0.59-0.26c1.77-1.29,3.73-2.25,5.69-3.2c0.78-0.38,1.57-0.78,2.45-0.87c0.31,0.16,0.5,0.45,0.75,0.68
		C30.97,112.78,30.72,113.09,30.68,113.51z"/>
	<path class="st9" d="M30.35,256.33c-1.65,0.57-3.23,1.3-4.76,2.15c-1.37,0.75-2.67,1.6-4.02,2.39c-0.22-0.06-0.42-0.1-0.49,0.2
		c0,0,0.01-0.01,0.01-0.01c-0.34-0.14-0.6,0.1-0.87,0.21c-1.19,0.49-2.39,0.95-3.6,1.38c-1.91,0.68-3.88,0.69-5.86,0.59
		c-1.44-0.07-2.88-0.13-4.3-0.48c-0.46-0.11-0.91-0.23-1.33-0.45c-0.86-0.44-1.02-0.92-0.57-1.75c0.15-0.27,0.33-0.54,0.53-0.77
		c2.29-2.61,5-4.41,8.56-4.8c2.85-0.31,5.69-0.48,8.55-0.46c0.19,0,0.37-0.03,0.56-0.04c0.49,0.06,0.98,0.13,1.48,0.16
		c1.93,0.12,3.84,0.33,5.7,0.84C30.38,255.63,30.31,256.01,30.35,256.33z"/>
	<path class="st9" d="M30.5,111.82c-0.89,0.1-1.67,0.5-2.45,0.87c-1.96,0.95-3.92,1.91-5.69,3.2c-0.17,0.13-0.36,0.25-0.59,0.26
		c-0.18,0.02-0.39-0.02-0.49,0.2c0,0,0.02-0.01,0.02-0.01c-0.11,0.02-0.31-0.03-0.2,0.21c0,0,0.01-0.01,0.01-0.01
		c-0.26-0.2-0.47,0.01-0.68,0.1c-0.93,0.36-1.86,0.75-2.79,1.11c-1.41,0.55-2.85,0.93-4.39,0.95c-2.26,0.02-4.52-0.01-6.74-0.47
		c-0.52-0.11-1.04-0.26-1.5-0.53c-0.72-0.42-0.84-0.82-0.49-1.56c0.08-0.17,0.17-0.34,0.28-0.49c1.85-2.36,4.13-4.12,7.07-4.87
		c1.64-0.42,3.34-0.53,5.03-0.65c1.97-0.14,3.95-0.15,5.92-0.18c0.4,0.05,0.8,0.14,1.21,0.15c2.07,0.08,4.1,0.37,6.11,0.87
		C30.36,111.21,30.32,111.56,30.5,111.82z"/>
	<path class="st10" d="M44.15,46.18c0.27-1.3,0.54-2.45,0.76-3.61c0.81-4.28,3.78-6.46,7.6-7.79c1.31-0.46,2.68-0.62,4.06-0.72
		c0.58-0.04,1.13,0.09,1.61,0.43c0.59,0.41,0.64,0.86,0.2,1.43c-0.31,0.4-0.7,0.72-1.15,0.96c-3.31,1.8-5.76,4.49-7.9,7.52
		c-2.97,4.22-5.18,8.8-6.53,13.78c-0.11,0.39-0.24,0.78-0.37,1.16c-0.09,0.27-0.3,0.41-0.57,0.4c-0.24-0.01-0.4-0.18-0.48-0.39
		c-0.09-0.23-0.16-0.48-0.21-0.72c-0.58-2.7-1.16-5.39-1.46-8.14c-0.2-1.85,0.43-3.4,1.61-4.74c0.91-1.04,1.67-0.97,2.55,0.11
		C43.91,45.94,43.97,46,44.15,46.18z"/>
	<path class="st10" d="M44.19,190.57c0.15-0.72,0.3-1.47,0.45-2.23c0.21-1.05,0.5-2.07,0.83-3.09c0.41-1.27,1.17-2.28,2.15-3.15
		c2.61-2.3,5.7-3.35,9.13-3.47c0.61-0.02,1.19,0.13,1.64,0.59c0.33,0.34,0.39,0.7,0.1,1.1c-0.28,0.39-0.61,0.73-1.03,0.95
		c-4.75,2.57-7.76,6.75-10.42,11.26c-1.89,3.21-3.26,6.64-4.26,10.22c-0.11,0.39-0.24,0.78-0.37,1.16
		c-0.08,0.23-0.27,0.36-0.49,0.38c-0.29,0.02-0.47-0.17-0.56-0.42c-0.09-0.23-0.16-0.48-0.21-0.72c-0.57-2.67-1.14-5.34-1.45-8.05
		c-0.21-1.84,0.39-3.41,1.57-4.76c0.9-1.04,1.69-1,2.56,0.05C43.9,190.48,43.94,190.61,44.19,190.57z"/>
	<path class="st11" d="M33.9,110.55c0.54,0.01,0.99-0.3,1.49-0.44c0.54,0.08,1.02-0.13,1.49-0.34c2.54-0.58,5.11-0.94,7.72-1.03
		c3.52-0.11,6.92,0.49,10.22,1.69c0.65,0.24,1.26,0.56,1.79,1.01c1.15,0.98,1.09,1.91-0.17,2.71c-0.94,0.6-1.98,0.93-3.04,1.22
		c-2.18,0.6-4.41,0.93-6.66,1.13c-1.47,0.13-2.87-0.2-4.25-0.61c-1.38-0.41-2.73-0.9-4.07-1.45c-0.41-0.27-0.85-0.45-1.33-0.55
		c-1.13-0.45-2.2-1.05-3.39-1.33c-0.14-0.11-0.38-0.18-0.3-0.4c0.14-0.38,0.17-0.77,0.12-1.17C33.49,110.7,33.76,110.69,33.9,110.55
		z"/>
	<path class="st11" d="M33.52,255.25c0.24-0.07,0.48-0.14,0.72-0.21c0.96-0.15,1.89-0.42,2.81-0.75c2.7-0.6,5.43-0.99,8.21-1
		c3.26-0.01,6.43,0.55,9.49,1.67c0.74,0.27,1.44,0.62,2.02,1.18c0.95,0.9,0.88,1.73-0.19,2.49c-0.6,0.42-1.27,0.69-1.95,0.92
		c-2.6,0.88-5.29,1.3-8.02,1.51c-1.41,0.11-2.75-0.2-4.07-0.59c-1.71-0.51-3.39-1.13-5.03-1.86c-0.48-0.2-0.96-0.45-1.46-0.6
		c-0.67-0.2-1.23-0.75-1.99-0.67c0,0,0.01-0.01,0.01-0.01c-0.04-0.22-0.2-0.23-0.38-0.23c-0.16-0.11-0.31-0.24-0.24-0.46
		C33.61,256.18,33.52,255.71,33.52,255.25z"/>
	<path class="st0" d="M30.13,110.97c-2.01-0.5-4.04-0.79-6.11-0.87c-0.4-0.01-0.8-0.1-1.21-0.15c-1.37-0.44-2.76-0.82-4.11-1.32
		c-3.19-1.17-6.04-2.92-8.58-5.16c-0.57-0.5-1.06-1.08-1.38-1.77c-0.53-1.14-0.18-1.89,1.03-2.2c1.24-0.32,2.5-0.2,3.75-0.07
		c2.25,0.25,4.46,0.72,6.61,1.43c0.84,0.28,1.63,0.65,2.35,1.17c1.3,0.94,2.59,1.87,3.77,2.97c0.19,0.18,0.34,0.47,0.68,0.43
		c0,0-0.01-0.01-0.01-0.01c-0.03,0.16,0.04,0.22,0.2,0.2c0,0-0.01-0.01-0.01-0.01c-0.02,0.16,0.05,0.21,0.2,0.2
		c0,0-0.01-0.01-0.01-0.01c-0.02,0.16,0.08,0.23,0.2,0.29c0.99,0.88,1.76,1.95,2.57,2.99c0.19,0.24,0.39,0.48,0.59,0.72
		C30.49,110.19,30.31,110.58,30.13,110.97z"/>
	<path class="st0" d="M29.95,255.5c-1.87-0.51-3.78-0.72-5.7-0.84c-0.5-0.03-0.99-0.11-1.48-0.16c-1.4-0.45-2.82-0.84-4.2-1.36
		c-3.05-1.15-5.8-2.83-8.27-4.95c-0.62-0.53-1.17-1.14-1.53-1.89c-0.56-1.18-0.22-1.94,1.05-2.25c1.14-0.28,2.32-0.2,3.47-0.08
		c2.34,0.24,4.64,0.73,6.89,1.46c0.84,0.27,1.63,0.66,2.34,1.18c1.39,1.02,2.79,2.03,4.04,3.23c0.32,0.3,0.64,0.61,1.03,0.83
		c1.12,1.12,2.02,2.42,3.02,3.63c-0.1,0.33-0.21,0.65-0.3,0.98C30.25,255.46,30.11,255.49,29.95,255.5z"/>
	<path class="st7" d="M21.77,189.63c0.13-0.1,0.08-0.23,0.09-0.35c0.07-1.24,0.61-1.72,1.82-1.49c1.63,0.31,3.04,1.05,3.91,2.52
		c1.48,2.48,2.63,5.13,3.74,7.79c0.13,0.3,0.24,0.62-0.07,0.86c-0.34,0.27-0.65,0.06-0.93-0.15c-0.32-0.25-0.65-0.5-0.97-0.75
		c-4.67-3.69-9.9-6.23-15.65-7.72c-2.2-0.57-4.43-0.85-6.71-0.55c-0.65,0.08-1.31,0.13-1.96-0.07c-0.71-0.22-0.89-0.59-0.63-1.28
		c0.15-0.39,0.39-0.73,0.73-0.96c3.21-2.16,6.67-3.12,10.53-2.23c0.72,0.17,1.34,0.52,1.94,0.92c1.31,0.88,2.45,1.95,3.59,3.03
		C21.37,189.37,21.5,189.62,21.77,189.63z"/>
	<path class="st7" d="M21.83,45.22c0.08-1.89,0.72-2.34,2.37-1.87c1.62,0.45,2.87,1.36,3.68,2.85c1.27,2.35,2.38,4.77,3.4,7.23
		c0.06,0.14,0.13,0.29,0.15,0.44c0.07,0.49-0.3,0.79-0.76,0.6c-0.14-0.06-0.27-0.16-0.39-0.26c-0.32-0.25-0.64-0.5-0.97-0.75
		c-4.86-3.81-10.3-6.42-16.31-7.84c-2.03-0.48-4.08-0.65-6.17-0.37c-0.62,0.08-1.25,0.1-1.86-0.11c-0.61-0.2-0.8-0.54-0.61-1.14
		c0.15-0.49,0.47-0.89,0.9-1.17c3.02-2,6.3-2.9,9.92-2.25c0.81,0.15,1.55,0.46,2.25,0.91c1.29,0.85,2.43,1.88,3.55,2.94
		C21.22,44.67,21.47,44.89,21.83,45.22z"/>
	<path class="st11" d="M50.4,19.65c-0.29-0.56-0.56-1.05-0.8-1.56c-0.31-0.65-0.57-1.33-0.73-2.03c-0.12-0.49-0.14-1-0.04-1.5
		c0.07-0.35,0.27-0.49,0.61-0.29c0.5,0.28,0.9,0.67,1.24,1.14c0.52,0.73,0.83,1.55,1.1,2.38c0.1,0.3,0.18,0.6,0.3,1.01
		c0.24-0.55,0.41-1.01,0.63-1.44c0.5-0.99,1.12-1.89,2.01-2.58c0.62-0.47,0.97-0.31,1.03,0.47c0.05,0.74-0.17,1.43-0.42,2.11
		c-0.25,0.67-0.64,1.27-1.07,1.96c0.76,0,1.41-0.02,2.05,0.01c0.79,0.03,1.57,0.16,2.24,0.61c0.56,0.38,0.55,0.57,0,0.96
		c-0.8,0.56-1.73,0.72-2.66,0.84c-0.3,0.04-0.61,0.04-1.03,0.07c0.29,0.43,0.71,0.51,1.04,0.69c1.4,0.76,2.31,1.88,2.7,3.57
		c-1.73,0.08-2.99-0.86-4.36-1.71c0.02,1.16,0.15,2.23-0.11,3.27c-0.08,0.33-0.04,0.78-0.42,0.87c-0.36,0.09-0.59-0.29-0.8-0.55
		c-0.58-0.71-0.95-1.54-1.26-2.41c-0.1-0.29-0.19-0.57-0.31-0.92c-0.46,0.24-0.68,0.63-0.99,0.92c-0.51,0.48-1.05,0.91-1.74,1.08
		c-0.57,0.14-0.77-0.03-0.69-0.62c0.13-0.89,0.5-1.68,0.99-2.42c0.3-0.47,0.65-0.9,1.03-1.42c-0.55,0-1.03,0.02-1.5,0
		c-0.83-0.03-1.62-0.25-2.26-0.8c-0.65-0.56-0.58-0.97,0.21-1.31c0.74-0.31,1.52-0.37,2.31-0.38C49.2,19.64,49.74,19.65,50.4,19.65z
		 M53.28,20.97c0-0.5-0.38-0.91-0.86-0.92c-0.52,0-0.98,0.49-0.99,1.04c-0.01,0.53,0.43,1.02,0.9,1
		C52.79,22.07,53.28,21.49,53.28,20.97z"/>
	<path class="st11" d="M53.31,159.69c0.95,0.77,1.59,1.54,2.06,2.44c0.9,1.71,0.72,3.33-0.51,4.82c-0.36,0.43-0.94,0.76-1.09,1.25
		c-0.14,0.44,0.2,1.02,0.25,1.55c0.16,1.79-0.43,3.33-1.65,4.64c-1.02,1.1-2.3,1.83-3.66,2.43c-1.41,0.62-2.81,1.24-4.13,2.04
		c-0.37,0.22-0.8,0.41-0.68,0.98c0.02,0.11-0.06,0.17-0.16,0.18c-0.05,0-0.11-0.04-0.15-0.09c-0.06-0.08-0.09-0.2-0.01-0.26
		c0.5-0.36,0.39-0.93,0.49-1.43c0.71-3.66,2.56-6.64,5.41-9.01c0.89-0.74,1.81-1.45,2.56-2.36c1.15-1.39,1.9-2.94,1.84-4.81
		C53.86,161.29,53.61,160.58,53.31,159.69z"/>
	<path class="st12" d="M35.6,179.99c0-0.96,0.03-1.83-0.01-2.71c-0.09-2.06,0.74-3.72,2.19-5.11c1.27-1.22,2.78-2.03,4.46-2.53
		c0.38-0.11,0.74-0.14,1.1,0c0.54,0.2,0.69,0.51,0.44,1.02c-0.14,0.28-0.32,0.56-0.54,0.76c-2.93,2.64-4.28,6.13-5.36,9.77
		c-0.74,2.48-1.08,5.02-1.16,7.61c-0.01,0.39,0.13,0.94-0.39,1.04c-0.51,0.1-0.61-0.46-0.77-0.8c-0.78-1.58-1.5-3.18-2.15-4.81
		c-0.43-1.1-0.52-2.19-0.09-3.3c0.03-0.09,0.06-0.18,0.09-0.27C33.91,179.53,34.43,179.34,35.6,179.99z"/>
	<path class="st12" d="M35.6,35.37c0-0.74,0.05-1.49-0.01-2.24c-0.21-2.88,1.18-4.91,3.41-6.51c0.98-0.7,2.06-1.19,3.22-1.51
		c0.27-0.08,0.54-0.15,0.83-0.11c0.83,0.13,1.06,0.61,0.6,1.33c-0.13,0.21-0.3,0.41-0.48,0.58c-2.09,1.92-3.38,4.34-4.37,6.95
		c-1.28,3.37-2.01,6.85-2.08,10.47c-0.01,0.36,0.12,0.84-0.37,0.96c-0.5,0.12-0.58-0.39-0.74-0.7c-0.82-1.62-1.57-3.28-2.24-4.98
		c-0.49-1.24-0.46-2.45,0.12-3.64c0.5-1.03,0.88-1.14,1.9-0.6C35.45,35.39,35.52,35.37,35.6,35.37z"/>
	<path class="st2" d="M33.7,112.56c1.19,0.28,2.26,0.88,3.39,1.33c0.18,0.33,0.5,0.5,0.81,0.68c2.88,2.12,5.73,4.29,8.31,6.78
		c3.32,3.21,5.97,6.94,8.24,10.94c1.55,2.73,2.95,5.53,4.54,8.23c0.42,0.72,0.62,1.46,0.59,2.32c-0.06,1.67-0.02,3.34-0.02,5
		c-0.03-0.03-0.09-0.07-0.11-0.12c-1.15-4.47-3.23-8.55-5.41-12.58c-2.03-3.76-4.4-7.31-7.16-10.58c-0.28-0.34-0.58-0.66-0.88-0.97
		c-0.12-0.13-0.27-0.15-0.39,0.02c0,0-0.01,0-0.01,0c0.27-0.12,0.16-0.31,0.04-0.44c-0.44-0.48-0.82-1.02-1.38-1.37l0.02,0.02
		c-0.44-0.57-0.92-1.08-1.62-1.33c-0.77-0.95-1.8-1.62-2.71-2.43c-1.87-1.66-3.79-3.25-5.68-4.88
		C34.06,112.99,33.83,112.83,33.7,112.56z"/>
	<path class="st2" d="M34.06,257.34c0.76-0.08,1.32,0.47,1.99,0.67c0.5,0.15,0.97,0.4,1.46,0.6c0.12,0.4,0.49,0.56,0.78,0.78
		c2.62,1.99,5.26,3.98,7.65,6.25c3.51,3.34,6.28,7.25,8.65,11.45c1.46,2.6,2.79,5.27,4.32,7.83c0.48,0.79,0.71,1.62,0.67,2.58
		c-0.08,1.62-0.02,3.25-0.02,4.91c-0.25-0.22-0.2-0.56-0.28-0.84c-0.61-2.25-1.55-4.37-2.52-6.48c-2.67-5.82-5.91-11.28-10.05-16.18
		c-0.26-0.31-0.54-0.61-0.82-0.91c-0.09-0.1-0.2-0.13-0.3,0.01c0,0,0.01,0.02,0.01,0.02c0.21-0.27,0.06-0.36-0.2-0.39
		c0,0,0.01,0.01,0.01,0.01c-0.55-0.97-1.34-1.69-2.28-2.27c0,0,0.02,0.02,0.02,0.02c-0.03-0.17-0.15-0.2-0.3-0.2
		c-0.74-0.94-1.76-1.59-2.65-2.38c-1.85-1.64-3.76-3.22-5.64-4.84C34.36,257.8,34.09,257.66,34.06,257.34z"/>
	<path class="st2" d="M27.57,180.83c0.46,0.07,0.67,0.37,0.86,0.64c3.5,4.99,7,9.98,8.57,16c1.15,4.41,1.68,8.87,1.41,13.42
		c-0.09,1.53-0.3,3.05-0.87,4.68c-0.21-2.18-0.37-4.18-0.61-6.17c-0.98-8.16-2.82-16.06-7.02-23.25c-0.76-1.3-1.49-2.62-2.07-4.01
		C27.67,181.74,27.43,181.35,27.57,180.83z"/>
	<path class="st2" d="M37.57,70.72c-0.32-2.49-0.48-4.96-0.82-7.41c-1.06-7.66-2.93-15.07-6.9-21.82c-0.7-1.19-1.3-2.43-1.91-3.67
		c-0.23-0.46-0.49-0.95-0.38-1.54c0.49,0.04,0.7,0.41,0.95,0.71c0.64,0.77,1.16,1.64,1.72,2.47c1.28,1.93,2.56,3.87,3.7,5.89
		c2.23,3.96,3.48,8.24,4.12,12.71c0.38,2.65,0.52,5.31,0.37,7.98C38.34,67.65,38.13,69.22,37.57,70.72z"/>
	<path class="st1" d="M20.45,28.6c0.13-0.33-0.13-0.53-0.29-0.75c-1.64-2.33-2.36-4.96-2.54-7.76c-0.06-0.87,0.02-1.75,0.35-2.71
		c3.08,2.28,5.49,5.04,7.26,8.36c0.2,0.38,0.41,0.76,0.59,1.16c0.34,0.72,0.51,1.46,0.24,2.24c-0.63,0.38-1.35,0.59-1.91,1.08
		c-0.12,0.01-0.21,0.05-0.24,0.18l-0.01,0.01c-0.16-0.01-0.3,0.03-0.36,0.2l0,0c-0.11,0.02-0.17,0.07-0.19,0.18l-0.01,0.01
		c-0.11,0.01-0.17,0.07-0.18,0.18l-0.01,0.01c-0.15,0-0.3,0-0.46,0C22.08,30.07,21.24,29.36,20.45,28.6z"/>
	<path class="st1" d="M20.54,173.15c-0.03-0.47-0.4-0.77-0.62-1.13c-1.69-2.71-2.47-5.65-2.22-8.85c0.03-0.38,0.09-0.74,0.24-1.1
		c0.29-0.08,0.45,0.15,0.63,0.3c2.29,1.83,4.28,3.94,5.81,6.46c0.23,0.39,0.41,0.84,0.87,1.05c0,0-0.01-0.01-0.01-0.01
		c-0.08,0.13,0,0.25,0.01,0.37c0.01,0.37,0.26,0.62,0.43,0.92c0.45,0.78,0.72,1.6,0.38,2.51c-0.71,0.4-1.42,0.8-2.13,1.2
		c-0.23,0.11-0.48,0.19-0.56,0.47l0,0c-0.11,0.01-0.17,0.07-0.19,0.18l-0.01,0.01c-0.18,0-0.35,0.01-0.53,0.01
		c-0.21-0.41-0.53-0.75-0.83-1.1C21.42,173.97,20.84,173.7,20.54,173.15z"/>
	<path class="st13" d="M20.54,173.15c0.3,0.54,0.88,0.81,1.27,1.27c0.3,0.35,0.61,0.69,0.83,1.1c0.06,0.12,0.12,0.24,0.18,0.35
		c-0.25,0.54-0.74,0.93-0.95,1.5c-0.2,0.06-0.24,0.21-0.22,0.39l0,0c-0.53,0.66-0.69,1.45-0.75,2.27l0-0.01
		c-0.06,0.01-0.13,0.02-0.19,0.03c-2.8-2.43-5.86-4.51-8.88-6.64c-1-0.7-1.99-1.41-3.02-2.13c0.22-0.38,0.57-0.42,0.88-0.5
		c1.76-0.49,3.53-0.41,5.31-0.08C17.04,171.08,18.86,171.96,20.54,173.15z"/>
	<path class="st13" d="M20.45,28.6c0.79,0.76,1.63,1.47,2.25,2.39c0.04,0.12,0.08,0.24,0.12,0.35c-0.33,0.48-0.65,0.95-0.98,1.43
		c-0.15,0.12-0.23,0.27-0.19,0.47l0,0c-0.3,0.18-0.31,0.51-0.43,0.79c-0.22,0.48-0.21,1.03-0.49,1.48c-2.87-2.5-6.02-4.62-9.12-6.81
		c-0.92-0.65-1.84-1.3-2.83-2c0.45-0.44,0.98-0.52,1.47-0.6C14,25.49,17.41,26.31,20.45,28.6z"/>
	<path class="st0" d="M6.34,7.3c-0.81,2.45-0.17,4.34,1.37,6.01c0.66,0.72,1.45,1.29,2.24,1.86c2.59,1.86,4.36,4.3,5.17,7.4
		c0.07,0.27,0.2,0.53,0.04,0.87c-1.6-0.87-3.33-1.43-5.01-2.13c-0.81-0.34-1.56-0.81-2.21-1.42c-1.36-1.26-1.99-2.82-1.64-4.66
		c0.11-0.57-0.07-0.84-0.46-1.17c-1.75-1.52-2.02-3.28-0.84-5.2C5.34,8.33,5.71,7.83,6.34,7.3z"/>
	<path class="st14" d="M26.05,173.66c0.34-0.91,0.06-1.72-0.38-2.51c-0.17-0.3-0.42-0.55-0.43-0.92c0.21-0.13,0.21-0.26-0.01-0.37
		c0,0,0.01,0.01,0.01,0.01c0.08-0.44,0.01-0.88-0.04-1.31c-0.32-2.76,0.21-5.35,1.49-7.8c0.37-0.7,0.83-1.32,1.55-1.81
		c0.29,0.52,0.29,1.05,0.37,1.55c0.5,3.12,1.01,6.23,1.45,9.36c0.17,1.17,0.33,2.36,0.29,3.55c-0.95-0.21-1.9-0.25-2.84,0.05
		C27.03,173.62,26.55,173.65,26.05,173.66z"/>
	<path class="st14" d="M26.07,29.15c0.27-0.79,0.1-1.53-0.24-2.24c-0.18-0.39-0.4-0.77-0.59-1.16c0.27-0.2,0.12-0.44,0.08-0.68
		c-0.52-3.13-0.09-6.11,1.41-8.92c0.36-0.67,0.82-1.25,1.49-1.72c0.35,0.45,0.3,0.98,0.37,1.44c0.53,3.21,1.04,6.42,1.5,9.64
		c0.16,1.11,0.31,2.24,0.27,3.37c-0.95-0.21-1.9-0.24-2.83,0.04C27.05,29.05,26.56,29.13,26.07,29.15z"/>
	<path class="st3" d="M26.05,173.66c0.5,0,0.98-0.03,1.46-0.19c0.93-0.3,1.89-0.26,2.84-0.05c0.29,0.52,0.03,1.05-0.05,1.55
		c-0.19,1.24-0.63,2.42-1.14,3.56c-0.19,0.42-0.43,0.64-0.93,0.56c-0.47-0.08-0.94,0.02-1.33,0.33c-0.4,0.31-0.6,0.73-0.58,1.22
		c0.02,0.41-0.2,0.52-0.55,0.59c-0.63,0.14-1.25,0.06-1.86-0.06c-1.04-0.19-2.09-0.38-2.99-0.99c0.01-0.05,0-0.11-0.02-0.16
		c0,0,0,0.01,0,0.01c0.5-0.67,0.7-1.44,0.75-2.27c0,0,0,0,0,0c0.2-0.06,0.19-0.23,0.22-0.39c0.21-0.57,0.69-0.96,0.95-1.5
		c0.21-0.03,0.36-0.13,0.34-0.37c0,0,0.01-0.01,0.01-0.01c0.12-0.01,0.18-0.07,0.19-0.18c0,0,0,0,0,0c0.31-0.01,0.49-0.17,0.56-0.47
		C24.63,174.46,25.34,174.06,26.05,173.66z"/>
	<path class="st3" d="M26.07,29.15c0.49-0.02,0.98-0.09,1.46-0.24c0.94-0.28,1.89-0.25,2.83-0.04c0.28,0.56,0.01,1.12-0.07,1.65
		c-0.18,1.18-0.61,2.3-1.09,3.39c-0.2,0.44-0.43,0.66-0.99,0.63c-1.22-0.07-1.7,0.36-1.87,1.59c-0.05,0.35-0.18,0.48-0.51,0.53
		c-0.82,0.11-1.63,0.06-2.43-0.14c-0.82-0.2-1.66-0.34-2.37-0.83c0.15-0.83,0.65-1.57,0.63-2.45c0,0,0,0,0,0
		c0.22-0.09,0.19-0.29,0.19-0.47c0.33-0.48,0.65-0.95,0.98-1.43c0.2-0.04,0.34-0.12,0.34-0.35c0,0,0.01-0.01,0.01-0.01
		c0.11-0.01,0.18-0.07,0.18-0.18c0,0,0.01-0.01,0.01-0.01c0.11-0.01,0.18-0.07,0.19-0.18c0,0,0,0,0,0c0.16,0.01,0.28-0.05,0.36-0.2
		c0,0,0.01-0.01,0.01-0.01c0.08-0.06,0.16-0.12,0.24-0.18C24.72,29.74,25.44,29.53,26.07,29.15z"/>
	<path class="st6" d="M17.61,37.28c-0.44-0.54-1.04-0.47-1.61-0.47c-1.07-0.01-2.13,0-3.2,0.02c-0.66,0.01-1.32-0.05-1.96-0.22
		c-1.74-0.45-2.95-1.48-3.39-3.28c-0.1-0.4-0.24-0.65-0.67-0.77c-1.91-0.53-2.92-2.04-2.28-4.43c0.07-0.27,0.13-0.54,0.3-0.77
		C4.96,27.5,4.97,27.7,5,27.88c0.26,1.47,1.14,2.48,2.4,3.19c0.72,0.41,1.48,0.69,2.28,0.85c3.05,0.61,5.57,2.07,7.35,4.66
		C17.2,36.83,17.56,36.89,17.61,37.28z"/>
	<path class="st0" d="M39.81,14.38c1.96,0.01,3.53,1.61,3.49,3.56c-0.03,1.95-1.63,3.48-3.61,3.44c-1.9-0.03-3.46-1.62-3.45-3.52
		C36.26,15.92,37.84,14.37,39.81,14.38z"/>
	<path class="st0" d="M7.66,300.45c-1.86-0.01-3.34-1.49-3.34-3.35c0-1.89,1.53-3.43,3.4-3.41c1.83,0.02,3.35,1.55,3.36,3.37
		C11.09,298.95,9.57,300.46,7.66,300.45z"/>
	<path class="st0" d="M7.49,138.18c0-1.92,1.49-3.4,3.4-3.38c1.85,0.02,3.35,1.52,3.36,3.36c0.01,1.86-1.57,3.43-3.43,3.4
		C8.97,141.54,7.49,140.04,7.49,138.18z"/>
	<path class="st0" d="M4.32,284.54c-0.01-1.9,1.51-3.43,3.39-3.41c1.83,0.01,3.36,1.53,3.37,3.36c0.02,1.87-1.55,3.43-3.41,3.41
		C5.81,287.88,4.33,286.39,4.32,284.54z"/>
	<path class="st0" d="M4.32,157.58c0-1.9,1.51-3.39,3.43-3.37c1.85,0.02,3.34,1.53,3.34,3.38c0,1.87-1.58,3.42-3.44,3.39
		C5.79,160.95,4.32,159.44,4.32,157.58z"/>
	<path class="st1" d="M23.32,17.5c-0.23-1.73-0.8-3.16-1.13-4.65c-0.41-1.87,0.24-4.08,2.16-4.94c0.27-0.12,0.36-0.31,0.36-0.59
		c0-0.18,0.03-0.37,0.08-0.56c0.54-2.08,2.07-2.97,4.27-2.47C26.48,5.31,26,7.44,26.06,9.82c0.03,1.11-0.04,2.19-0.28,3.27
		C25.43,14.72,24.54,16.07,23.32,17.5z"/>
	<path class="st2" d="M50.85,121.16c1.77-0.86,4.08-0.43,4.63,1.94c0.09,0.37,0.17,0.65,0.64,0.8c1.89,0.59,2.68,2.03,2.84,3.9
		c0.07,0.82-0.06,1.62-0.15,2.43c-0.09,0.86-0.12,1.73-0.19,2.7c-0.54-0.36-0.94-0.74-1.31-1.16c-1.38-1.54-2.19-3.34-2.5-5.37
		c-0.09-0.59-0.17-1.18-0.34-1.75C53.93,122.83,52.9,121.49,50.85,121.16z"/>
	<path class="st2" d="M58.59,277.46c-0.59-0.37-1.01-0.82-1.42-1.29c-1.3-1.51-2.07-3.27-2.36-5.24c-0.11-0.77-0.24-1.54-0.53-2.28
		c-0.61-1.57-1.65-2.64-3.37-2.93c1.85-1.03,3.92-0.23,4.5,1.77c0.16,0.56,0.4,0.86,0.97,1.07c1.67,0.59,2.37,1.95,2.56,3.62
		c0.05,0.4,0.05,0.82,0.01,1.22C58.85,274.72,58.72,276.05,58.59,277.46z"/>
	<path class="st5" d="M41.18,5.15c-0.4,0.02-0.77,0.01-1.13,0.06c-1.1,0.18-1.99,0.73-2.71,1.56c-0.6,0.7-1.03,1.49-1.43,2.31
		c-1.02,2.06-2.54,3.63-4.61,4.65c-0.2,0.1-0.4,0.19-0.6,0.26c-0.08,0.03-0.18,0.02-0.27,0.02c-0.18-0.23-0.02-0.42,0.03-0.63
		c0.21-0.92,0.43-1.83,0.63-2.75c0.16-0.74,0.37-1.46,0.72-2.13c0.73-1.38,1.84-2.21,3.42-2.28c0.56-0.03,0.89-0.2,1.18-0.69
		C37.51,3.75,39.76,3.77,41.18,5.15z"/>
	<path class="st3" d="M16.96,4.23C15.45,5.52,15.16,7.15,15.62,9c0.15,0.61,0.4,1.19,0.62,1.77c0.76,2.02,0.93,4.08,0.34,6.17
		c-0.1,0.35-0.14,0.74-0.5,1.05c-0.69-1.25-1.59-2.33-2.37-3.5c-0.37-0.55-0.62-1.15-0.78-1.8c-0.31-1.24-0.09-2.37,0.73-3.35
		c0.32-0.39,0.46-0.69,0.31-1.23c-0.55-2.08,0.78-3.76,2.99-3.87L16.96,4.23z"/>
	<path class="st1" d="M55.57,227.35c-1.41-0.01-2.48-1.11-2.45-2.53c0.03-1.4,1.13-2.45,2.56-2.42c1.35,0.03,2.42,1.13,2.42,2.48
		C58.09,226.28,56.98,227.36,55.57,227.35z"/>
	<path class="st1" d="M55.57,77.83c1.4-0.01,2.52,1.08,2.53,2.48c0.01,1.38-1.12,2.5-2.51,2.49c-1.36-0.01-2.44-1.08-2.47-2.43
		C53.09,78.98,54.18,77.85,55.57,77.83z"/>
	<path class="st0" d="M48.14,7.59c1.37,0.02,2.43,1.09,2.43,2.46c-0.01,1.34-1.12,2.45-2.46,2.45c-1.37,0-2.52-1.17-2.48-2.53
		C45.67,8.62,46.77,7.58,48.14,7.59z"/>
	<path class="st0" d="M18.34,291.73c0.01,1.31-1.07,2.39-2.38,2.38c-1.28-0.01-2.33-1.04-2.37-2.31c-0.04-1.28,1.04-2.41,2.34-2.44
		C17.23,289.34,18.33,290.42,18.34,291.73z"/>
	<path class="st0" d="M17.7,144.43c1.32,0.02,2.37,1.1,2.34,2.42c-0.03,1.33-1.09,2.33-2.44,2.3c-1.27-0.03-2.31-1.09-2.3-2.36
		C15.3,145.49,16.39,144.41,17.7,144.43z"/>
	<path class="st0" d="M20.91,155.83c0,1.33-1.08,2.38-2.42,2.35c-1.29-0.02-2.31-1.07-2.3-2.37c0-1.34,1.07-2.38,2.41-2.35
		C19.89,153.48,20.91,154.53,20.91,155.83z"/>
	<path class="st0" d="M57.16,4.21c1.04-0.01,1.86,0.77,1.88,1.8c0.02,1.03-0.78,1.86-1.81,1.88c-1.03,0.02-1.85-0.77-1.86-1.81
		C55.35,5.02,56.11,4.22,57.16,4.21z"/>
	<path class="st0" d="M24.7,298.74c-1.02-0.01-1.8-0.78-1.8-1.78c0-0.99,0.79-1.77,1.8-1.78c1.04-0.01,1.87,0.81,1.84,1.83
		C26.52,298,25.72,298.75,24.7,298.74z"/>
	<path class="st0" d="M25.38,151.76c1.01,0.02,1.77,0.8,1.75,1.81c-0.02,0.99-0.85,1.77-1.83,1.74c-1.03-0.03-1.79-0.78-1.79-1.78
		C23.51,152.47,24.28,151.74,25.38,151.76z"/>
	<path class="st6" d="M14.45,237.78c0.01,0.93-0.77,1.75-1.71,1.77c-0.98,0.03-1.81-0.8-1.8-1.78c0.01-0.93,0.82-1.74,1.75-1.74
		C13.61,236.04,14.44,236.87,14.45,237.78z"/>
	<path class="st12" d="M31.76,140.32c0.92,0.03,1.73,0.87,1.72,1.78c-0.02,0.94-0.82,1.73-1.76,1.73c-0.99,0-1.78-0.83-1.75-1.82
		C30,141.07,30.82,140.3,31.76,140.32z"/>
	<path class="st12" d="M38.39,286.5c0.95,0.02,1.73,0.82,1.72,1.76c-0.02,0.95-0.81,1.74-1.74,1.75c-0.94,0.01-1.81-0.89-1.77-1.83
		C36.64,287.24,37.44,286.48,38.39,286.5z"/>
	<path class="st1" d="M57.43,89.97c-0.96,0.02-1.75-0.73-1.79-1.68c-0.04-0.95,0.81-1.81,1.78-1.8c0.96,0.01,1.73,0.79,1.73,1.74
		C59.15,89.18,58.38,89.95,57.43,89.97z"/>
	<path class="st12" d="M39.52,137.06c-0.01,0.94-0.81,1.71-1.76,1.71c-0.96,0-1.75-0.78-1.75-1.71c-0.01-0.97,0.84-1.81,1.8-1.78
		C38.73,135.31,39.53,136.14,39.52,137.06z"/>
	<path class="st1" d="M58.98,194.11c-0.01,0.95-0.79,1.73-1.73,1.73c-0.98,0-1.79-0.84-1.75-1.81c0.04-0.93,0.87-1.73,1.78-1.69
		C58.24,192.37,58.99,193.16,58.98,194.11z"/>
	<path class="st12" d="M38.34,145.45c-0.91-0.01-1.75-0.85-1.74-1.75c0.01-0.99,0.83-1.77,1.83-1.74c0.95,0.03,1.72,0.84,1.69,1.77
		C40.08,144.68,39.27,145.46,38.34,145.45z"/>
	<path class="st6" d="M13.86,231.14c-0.01,0.94-0.8,1.74-1.73,1.75c-0.99,0.01-1.79-0.81-1.76-1.79c0.03-0.95,0.81-1.7,1.76-1.69
		C13.07,229.41,13.86,230.2,13.86,231.14z"/>
	<path class="st6" d="M14.45,93.18c0.02,0.91-0.78,1.75-1.7,1.78c-0.94,0.03-1.75-0.73-1.8-1.67c-0.05-0.97,0.76-1.81,1.74-1.81
		C13.64,91.47,14.43,92.23,14.45,93.18z"/>
	<path class="st12" d="M33.47,286.75c-0.07,0.94-0.89,1.67-1.85,1.62c-0.98-0.05-1.74-0.91-1.66-1.9c0.08-0.92,0.96-1.67,1.88-1.59
		C32.77,284.97,33.53,285.84,33.47,286.75z"/>
	<path class="st6" d="M6.09,93.35c-0.94,0.02-1.74-0.74-1.77-1.69c-0.03-0.96,0.7-1.76,1.65-1.81c0.96-0.05,1.83,0.78,1.83,1.75
		C7.8,92.53,7.03,93.32,6.09,93.35z"/>
	<path class="st1" d="M57.22,47.78c0.93-0.02,1.73,0.76,1.75,1.71c0.02,0.95-0.72,1.76-1.66,1.81c-0.95,0.04-1.82-0.79-1.82-1.75
		C55.5,48.61,56.3,47.8,57.22,47.78z"/>
	<path class="st6" d="M12.1,88.28c-0.96,0-1.73-0.76-1.74-1.71c-0.02-0.95,0.74-1.74,1.69-1.76c0.98-0.02,1.82,0.79,1.8,1.76
		C13.85,87.52,13.06,88.28,12.1,88.28z"/>
	<path class="st12" d="M37.71,279.87c0.96-0.02,1.76,0.71,1.81,1.64c0.05,0.97-0.76,1.79-1.76,1.79c-0.95,0.01-1.74-0.76-1.76-1.7
		C35.99,280.68,36.77,279.89,37.71,279.87z"/>
	<path class="st6" d="M6.06,237.91c-0.99,0.01-1.72-0.7-1.74-1.68c-0.02-0.97,0.71-1.73,1.67-1.76c1.02-0.02,1.81,0.73,1.8,1.73
		C7.78,237.17,7.04,237.9,6.06,237.91z"/>
	<path class="st1" d="M57.36,231.07c0.98-0.02,1.75,0.7,1.79,1.66c0.04,0.95-0.72,1.75-1.67,1.79c-1.01,0.03-1.84-0.73-1.85-1.71
		C55.63,231.86,56.4,231.08,57.36,231.07z"/>
	<path class="st0" d="M32.75,298.18c-0.02,0.8-0.7,1.48-1.5,1.49c-0.85,0.01-1.54-0.69-1.52-1.55c0.02-0.87,0.7-1.5,1.58-1.47
		C32.13,296.69,32.77,297.37,32.75,298.18z"/>
	<path class="st0" d="M32.99,155.87c0,0.84-0.64,1.51-1.47,1.53c-0.8,0.02-1.52-0.66-1.55-1.46c-0.03-0.86,0.66-1.56,1.53-1.55
		C32.37,154.39,32.98,155.01,32.99,155.87z"/>
	<path class="st1" d="M57.86,239.8c-0.01,0.74-0.58,1.29-1.33,1.28c-0.71-0.01-1.31-0.64-1.29-1.34c0.02-0.7,0.65-1.3,1.35-1.28
		C57.33,238.48,57.87,239.06,57.86,239.8z"/>
	<path class="st1" d="M57.86,95.21c0,0.73-0.56,1.32-1.29,1.33c-0.69,0.01-1.32-0.61-1.33-1.31c-0.01-0.7,0.59-1.31,1.31-1.31
		C57.3,93.91,57.86,94.46,57.86,95.21z"/>
	<path class="st14" d="M37.05,254.28c-0.92,0.33-1.85,0.6-2.81,0.75c0.79-0.41,1.64-0.64,2.47-0.93
		C36.77,254.27,36.93,254.24,37.05,254.28z"/>
	<path class="st14" d="M21.65,33.24c0.02,0.87-0.48,1.61-0.63,2.45c-0.14,0.01-0.25-0.03-0.3-0.18c0.28-0.45,0.28-1,0.49-1.48
		C21.34,33.76,21.35,33.42,21.65,33.24z"/>
	<path class="st14" d="M30.68,113.51c0.05-0.42,0.29-0.73,0.57-1.02c0.29,0.11,0.63,0.02,0.89,0.23c-0.02,0.07-0.03,0.14-0.05,0.21
		C31.36,112.51,31.14,113.31,30.68,113.51z"/>
	<path class="st14" d="M31.32,103.19c0.25,0.72,0.14,1.46,0.15,2.19c-0.24-0.68-0.25-1.39-0.34-2.09
		C31.19,103.26,31.25,103.23,31.32,103.19z"/>
	<path class="st14" d="M31.32,247.72c0.25,0.72,0.14,1.46,0.15,2.19c-0.24-0.68-0.25-1.39-0.34-2.09
		C31.19,247.79,31.25,247.75,31.32,247.72z"/>
	<path class="st14" d="M36.88,109.77c-0.47,0.21-0.95,0.42-1.49,0.34c0.41-0.24,0.84-0.43,1.31-0.54
		C36.7,109.68,36.8,109.72,36.88,109.77z"/>
	<path class="st12" d="M37.9,114.57c-0.31-0.18-0.63-0.35-0.81-0.68c0.48,0.09,0.92,0.28,1.33,0.55
		C38.24,114.46,38.05,114.41,37.9,114.57z"/>
	<path class="st2" d="M59.04,277.91c-0.06,0.02-0.12,0.07-0.16,0.05c-0.04-0.02-0.06-0.1-0.06-0.16c0-0.09,0.06-0.11,0.13-0.04
		C58.98,277.8,59.01,277.86,59.04,277.91z"/>
	<polygon class="st3" points="16.95,4.24 16.97,4.21 16.96,4.23 	"/>
	<path class="st14" d="M20.9,180.03c0.02,0.05,0.03,0.1,0.02,0.16c-0.11,0.03-0.18-0.02-0.21-0.13
		C20.77,180.04,20.84,180.03,20.9,180.03z"/>
	<path class="st15" d="M24.79,218.74c0.07,0.07,0.24,0.13,0.13,0.25c-0.08,0.09-0.22,0.03-0.3-0.07
		C24.67,218.86,24.73,218.8,24.79,218.74z"/>
	<path class="st15" d="M24.88,74.31c0.04,0.04,0.08,0.07,0.12,0.11c-0.08,0.08-0.15,0.06-0.21-0.02
		C24.81,74.37,24.84,74.34,24.88,74.31z"/>
	<path class="st15" d="M43.13,265.38c0.93,0.58,1.73,1.3,2.28,2.27c-0.13,0.09-0.22,0.01-0.31-0.08
		C44.45,266.84,43.79,266.11,43.13,265.38z"/>
	<path class="st2" d="M33.69,257.1c0.17,0,0.34,0.01,0.38,0.23C33.88,257.36,33.77,257.25,33.69,257.1z"/>
	<path class="st15" d="M45.41,267.64c0.26,0.03,0.41,0.12,0.2,0.39C45.41,267.97,45.27,267.88,45.41,267.64z"/>
	<path class="st15" d="M42.85,265.19c0.15,0,0.27,0.04,0.3,0.2C43.05,265.33,42.95,265.26,42.85,265.19z"/>
	<path class="st15" d="M44.27,121.8c0.56,0.35,0.94,0.89,1.38,1.37c0.12,0.13,0.23,0.32-0.04,0.44
		C45.16,123,44.49,122.57,44.27,121.8z"/>
	<path class="st15" d="M42.66,120.48c0.69,0.26,1.18,0.77,1.62,1.33c-0.42,0.07-0.52-0.34-0.76-0.53
		C43.22,121.04,42.95,120.75,42.66,120.48z"/>
	<path class="st15" d="M34.46,251.67c0.04-0.11,0.07-0.22,0.21-0.24c0,0.16-0.06,0.28-0.18,0.38
		C34.52,251.76,34.51,251.71,34.46,251.67z"/>
	<path class="st14" d="M34.46,251.67c0.05,0.04,0.06,0.09,0.02,0.14c-0.02,0.11-0.07,0.19-0.2,0.19
		C34.26,251.85,34.29,251.73,34.46,251.67z"/>
	<path class="st14" d="M34.09,252.38c-0.03-0.17,0.01-0.31,0.19-0.37C34.31,252.19,34.26,252.32,34.09,252.38z"/>
	<path class="st14" d="M33.9,252.67c0-0.14,0.03-0.25,0.19-0.28C34.03,252.48,33.97,252.57,33.9,252.67z"/>
	<path class="st14" d="M33.9,108.14c0-0.29,0.09-0.53,0.38-0.65C34.32,107.8,34.09,107.96,33.9,108.14z"/>
	<path class="st15" d="M23.99,59.93c0.09,0.06,0.12,0.13,0.03,0.21c-0.03-0.04-0.07-0.09-0.1-0.13
		C23.94,59.99,23.96,59.96,23.99,59.93z"/>
	<path class="st15" d="M24,204.45c0.07,0.07,0.12,0.14,0.01,0.22c-0.01,0-0.07-0.08-0.11-0.12C23.93,204.52,23.96,204.49,24,204.45z
		"/>
	<path class="st15" d="M27.12,105.61c-0.15,0.02-0.23-0.03-0.2-0.2C27.13,105.34,27.16,105.44,27.12,105.61z"/>
	<path class="st15" d="M27.31,105.8c-0.15,0.02-0.22-0.04-0.2-0.2C27.29,105.56,27.34,105.65,27.31,105.8z"/>
	<path class="st15" d="M27.5,106.08c-0.12-0.06-0.22-0.14-0.2-0.29C27.5,105.8,27.52,105.93,27.5,106.08z"/>
	<path class="st15" d="M25.04,267.29c-0.05-0.17,0.02-0.31,0.15-0.41C25.21,267.03,25.18,267.18,25.04,267.29z"/>
	<path class="st15" d="M21.09,261.07c0.07-0.29,0.27-0.26,0.49-0.2C21.43,260.97,21.3,261.13,21.09,261.07z"/>
	<path class="st15" d="M21.27,116.35c0.1-0.22,0.31-0.18,0.49-0.2C21.63,116.29,21.5,116.43,21.27,116.35z"/>
	<path class="st15" d="M21.09,116.54c-0.11-0.24,0.09-0.18,0.2-0.21C21.35,116.53,21.22,116.54,21.09,116.54z"/>
	<path class="st5" d="M53.28,20.97c0,0.52-0.49,1.1-0.95,1.12c-0.47,0.02-0.91-0.46-0.9-1c0.01-0.55,0.47-1.04,0.99-1.04
		C52.9,20.05,53.28,20.46,53.28,20.97z"/>
	<path class="st14" d="M23.16,30.99c0.01,0.23-0.14,0.32-0.34,0.35c-0.04-0.12-0.08-0.24-0.12-0.35
		C22.86,30.99,23.01,30.99,23.16,30.99z"/>
	<path class="st14" d="M23.91,30.42c-0.08,0.14-0.2,0.21-0.36,0.2C23.61,30.44,23.74,30.4,23.91,30.42z"/>
	<path class="st14" d="M23.35,30.8c-0.01,0.11-0.07,0.18-0.18,0.18C23.18,30.87,23.24,30.81,23.35,30.8z"/>
	<path class="st14" d="M24.16,30.23c-0.08,0.06-0.16,0.12-0.24,0.18C23.95,30.28,24.04,30.23,24.16,30.23z"/>
	<path class="st14" d="M23.55,30.61c-0.01,0.12-0.08,0.17-0.19,0.18C23.37,30.68,23.44,30.63,23.55,30.61z"/>
	<path class="st14" d="M23.16,175.51c0.01,0.24-0.14,0.33-0.34,0.37c-0.06-0.12-0.12-0.24-0.18-0.35
		C22.81,175.52,22.99,175.52,23.16,175.51z"/>
	<path class="st14" d="M23.92,174.86c-0.07,0.29-0.26,0.45-0.56,0.47C23.44,175.04,23.69,174.96,23.92,174.86z"/>
	<path class="st15" d="M25.23,169.86c0.23,0.12,0.23,0.24,0.01,0.37C25.22,170.11,25.15,169.98,25.23,169.86z"/>
	<path class="st14" d="M23.36,175.32c-0.01,0.12-0.07,0.18-0.19,0.18C23.19,175.4,23.25,175.34,23.36,175.32z"/>
	<path class="st14" d="M21.65,177.77c-0.05,0.82-0.25,1.59-0.75,2.27C20.97,179.22,21.12,178.43,21.65,177.77z"/>
	<path class="st14" d="M21.87,177.38c-0.03,0.15-0.02,0.33-0.22,0.39C21.63,177.59,21.67,177.44,21.87,177.38z"/>
	<path class="st14" d="M21.84,32.77c0,0.18,0.03,0.38-0.19,0.47C21.61,33.04,21.7,32.89,21.84,32.77z"/>
</g>
</svg>
